<svg width="460" height="56" viewBox="0 0 460 56" fill="none" xmlns="http://www.w3.org/2000/svg">
<rect width="460" height="56" rx="12" fill="#FFF374"/>
<path d="M172.846 27.234H175.78V29.196H172.846V27.234ZM171.064 20.916H173.476V37.584H171.064V20.916ZM160.912 22.518H163.306V32.868H160.912V22.518ZM160.912 31.536H162.352C164.728 31.536 167.302 31.374 169.984 30.834L170.236 32.796C167.482 33.372 164.8 33.516 162.352 33.516H160.912V31.536ZM178.73 28.368H190.448V30.276H178.73V28.368ZM176.984 33.768H192.068V35.73H176.984V33.768ZM183.302 29.232H185.696V34.398H183.302V29.232ZM178.73 22.068H190.322V23.994H181.124V29.196H178.73V22.068ZM209.087 20.916H211.481V37.638H209.087V20.916ZM198.503 31.806H199.979C202.931 31.806 205.289 31.698 207.935 31.248L208.169 33.174C205.469 33.66 203.021 33.75 199.979 33.75H198.503V31.806ZM198.485 22.338H206.351V28.782H200.933V32.526H198.503V26.892H203.903V24.246H198.485V22.338ZM217.527 30.672H219.939V37.602H217.527V30.672ZM223.485 30.672H225.897V37.602H223.485V30.672ZM214.161 30.384H229.263V32.292H214.161V30.384ZM215.889 21.546H218.265V23.364H225.105V21.546H227.481V28.818H215.889V21.546ZM218.265 25.254V26.892H225.105V25.254H218.265ZM245.526 20.934H247.92V30.654H245.526V20.934ZM247.254 24.714H250.134V26.676H247.254V24.714ZM235.284 21.906H237.66V24.012H240.918V21.906H243.294V29.844H235.284V21.906ZM237.66 25.848V27.972H240.918V25.848H237.66ZM237.084 31.392H248.01V33.282H239.478V36.864H237.084V31.392ZM237.084 35.514H248.334V37.404H237.084V35.514ZM255.821 22.086C258.359 22.086 260.195 24.39 260.195 28.026C260.195 31.698 258.359 34.002 255.821 34.002C253.283 34.002 251.447 31.698 251.447 28.026C251.447 24.39 253.283 22.086 255.821 22.086ZM255.821 24.264C254.579 24.264 253.751 25.578 253.751 28.026C253.751 30.51 254.579 31.842 255.821 31.842C257.063 31.842 257.909 30.51 257.909 28.026C257.909 25.578 257.063 24.264 255.821 24.264ZM262.013 20.934H264.425V37.602H262.013V20.934ZM263.885 27.216H266.837V29.196H263.885V27.216ZM267.933 33.732H283.017V35.676H267.933V33.732ZM274.251 30.168H276.645V34.2H274.251V30.168ZM269.517 21.996H271.893V24.552H279.003V21.996H281.379V30.672H269.517V21.996ZM271.893 26.424V28.764H279.003V26.424H271.893ZM295.958 20.934H298.37V37.602H295.958V20.934ZM291.044 22.662H293.42C293.42 27.756 291.692 31.932 285.77 34.794L284.528 32.886C289.316 30.582 291.044 27.558 291.044 23.094V22.662ZM285.41 22.662H292.178V24.552H285.41V22.662Z" fill="black"/>
</svg>
