<svg width="32" height="32" viewBox="0 0 32 32" fill="none" xmlns="http://www.w3.org/2000/svg">
<mask id="mask0_61_860" style="mask-type:alpha" maskUnits="userSpaceOnUse" x="0" y="0" width="32" height="32">
<rect width="32" height="32" fill="#D9D9D9"/>
</mask>
<g mask="url(#mask0_61_860)">
<path d="M8.01771 17.324L14.551 23.8573C14.8177 24.124 14.9455 24.4351 14.9344 24.7906C14.9233 25.1462 14.7844 25.4573 14.5177 25.724C14.251 25.9684 13.9399 26.0962 13.5844 26.1073C13.2288 26.1184 12.9177 25.9906 12.651 25.724L3.85104 16.924C3.71771 16.7906 3.62326 16.6462 3.56771 16.4906C3.51215 16.3351 3.48438 16.1684 3.48438 15.9906C3.48438 15.8128 3.51215 15.6462 3.56771 15.4906C3.62326 15.3351 3.71771 15.1906 3.85104 15.0573L12.651 6.25729C12.8955 6.01285 13.201 5.89062 13.5677 5.89062C13.9344 5.89062 14.251 6.01285 14.5177 6.25729C14.7844 6.52396 14.9177 6.84062 14.9177 7.20729C14.9177 7.57396 14.7844 7.89062 14.5177 8.15729L8.01771 14.6573H27.1901C27.5678 14.6573 27.8845 14.7851 28.1401 15.0406C28.3956 15.2962 28.5234 15.6128 28.5234 15.9906C28.5234 16.3684 28.3956 16.6851 28.1401 16.9406C27.8845 17.1962 27.5678 17.324 27.1901 17.324H8.01771Z" fill="#F7F7F7"/>
</g>
</svg>
