<svg width="20" height="20" viewBox="0 0 20 20" fill="none" xmlns="http://www.w3.org/2000/svg">
<mask id="mask0_258_7833" style="mask-type:alpha" maskUnits="userSpaceOnUse" x="0" y="0" width="20" height="20">
<rect width="20" height="20" fill="#D9D9D9"/>
</mask>
<g mask="url(#mask0_258_7833)">
<path d="M12.0617 10L5.9367 3.87503C5.72836 3.6667 5.62767 3.42017 5.63461 3.13545C5.64156 2.85072 5.7492 2.6042 5.95753 2.39586C6.16586 2.18753 6.41239 2.08336 6.69711 2.08336C6.98184 2.08336 7.22836 2.18753 7.4367 2.39586L13.8325 8.81253C13.9992 8.9792 14.1242 9.1667 14.2075 9.37503C14.2909 9.58336 14.3325 9.7917 14.3325 10C14.3325 10.2084 14.2909 10.4167 14.2075 10.625C14.1242 10.8334 13.9992 11.0209 13.8325 11.1875L7.41586 17.6042C7.20753 17.8125 6.96447 17.9132 6.6867 17.9063C6.40892 17.8993 6.16586 17.7917 5.95753 17.5834C5.7492 17.375 5.64503 17.1285 5.64503 16.8438C5.64503 16.5591 5.7492 16.3125 5.95753 16.1042L12.0617 10Z" fill="#3D3D3D"/>
</g>
</svg>
