<svg width="56" height="56" viewBox="0 0 56 56" fill="none" xmlns="http://www.w3.org/2000/svg">
<rect width="56" height="56" rx="28" fill="#212121"/>
<mask id="mask0_640_6033" style="mask-type:alpha" maskUnits="userSpaceOnUse" x="16" y="16" width="24" height="24">
<rect x="16" y="16" width="24" height="24" fill="#D9D9D9"/>
</mask>
<g mask="url(#mask0_640_6033)">
<path d="M22.0108 28.9935L26.9108 33.8935C27.1108 34.0935 27.2067 34.3268 27.1983 34.5935C27.19 34.8601 27.0858 35.0935 26.8858 35.2935C26.6858 35.4768 26.4525 35.5726 26.1858 35.581C25.9192 35.5893 25.6858 35.4935 25.4858 35.2935L18.8858 28.6935C18.7858 28.5935 18.715 28.4851 18.6733 28.3685C18.6317 28.2518 18.6108 28.1268 18.6108 27.9935C18.6108 27.8601 18.6317 27.7351 18.6733 27.6185C18.715 27.5018 18.7858 27.3935 18.8858 27.2935L25.4858 20.6935C25.6692 20.5101 25.8983 20.4185 26.1733 20.4185C26.4483 20.4185 26.6858 20.5101 26.8858 20.6935C27.0858 20.8935 27.1858 21.131 27.1858 21.406C27.1858 21.681 27.0858 21.9185 26.8858 22.1185L22.0108 26.9935H36.3901C36.6734 26.9935 36.9109 27.0893 37.1026 27.281C37.2943 27.4726 37.3901 27.7101 37.3901 27.9935C37.3901 28.2768 37.2943 28.5143 37.1026 28.706C36.9109 28.8976 36.6734 28.9935 36.3901 28.9935H22.0108Z" fill="#F7F7F7"/>
</g>
</svg>