<svg width="356" height="112" viewBox="0 0 356 112" fill="none" xmlns="http://www.w3.org/2000/svg">
<path d="M140.637 53.1463C136.504 53.1463 132.674 50.864 129.853 46.7195C127.195 42.8138 125.73 37.6605 125.73 32.2055C125.73 26.7505 127.195 21.5972 129.853 17.6915C132.674 13.547 136.504 11.2646 140.637 11.2646C144.771 11.2646 148.6 13.547 151.421 17.6915C154.08 21.5972 155.544 26.7505 155.544 32.2055C155.544 37.6605 154.08 42.8138 151.421 46.7195C148.6 50.864 144.771 53.1463 140.637 53.1463Z" fill="#F7F7F7" stroke="#171717" stroke-width="5.16358"/>
<path d="M143.254 44.5385C147.611 44.5385 151.143 39.3514 151.143 32.9529C151.143 26.5543 147.611 21.3672 143.254 21.3672C138.897 21.3672 135.365 26.5543 135.365 32.9529C135.365 39.3514 138.897 44.5385 143.254 44.5385Z" fill="#171717"/>
<path d="M147.168 34.8881C148.327 34.8881 149.267 33.9483 149.267 32.789C149.267 31.6297 148.327 30.6899 147.168 30.6899C146.009 30.6899 145.069 31.6297 145.069 32.789C145.069 33.9483 146.009 34.8881 147.168 34.8881Z" fill="#F7F7F7"/>
<path d="M129.191 57.0144C129.191 57.0144 132.654 48.822 140.361 48.1319C148.068 47.4418 152.35 53.4669 152.35 53.4669" fill="#FEF69B"/>
<path d="M129.191 57.0144C129.191 57.0144 132.654 48.822 140.361 48.1319C148.068 47.4418 152.35 53.4669 152.35 53.4669" stroke="#171717" stroke-width="5.16358" stroke-miterlimit="10" stroke-linecap="round"/>
<path d="M132.931 59.5417C132.931 59.5417 135.232 53.2084 141.037 52.3866C146.842 51.5648 150.315 55.9572 150.315 55.9572" fill="#FEF69B"/>
<path d="M133.147 13.5399C128.75 13.6765 125.315 3.50928 125.315 3.50928" stroke="#171717" stroke-width="5.16358" stroke-miterlimit="10" stroke-linecap="round"/>
<path d="M141.093 11.1585C137.864 10.7966 136.423 3 136.423 3" stroke="#171717" stroke-width="5.16358" stroke-miterlimit="10" stroke-linecap="round"/>
<path d="M127.645 20.1836C124.905 20.7074 121.743 14.6841 121.743 14.6841" stroke="#171717" stroke-width="5.16358" stroke-miterlimit="10" stroke-linecap="round"/>
<path d="M142.6 66.2484L154.093 101.624L210.3 25.3062" stroke="#171717" stroke-width="19.2845" stroke-linecap="round" stroke-linejoin="round"/>
<path d="M15.6982 62.9476C20.8341 57.7059 26.8129 57.5585 33.1771 59.8827C35.3502 60.6763 37.0848 62.1729 38.5172 63.9491C39.2314 64.8372 39.564 64.977 40.3728 64.002C44.889 58.5676 50.8261 57.5736 57.3226 59.1156C63.6226 60.6159 67.0353 65.0677 68.6717 71.0766C69.4162 73.809 69.5258 76.6169 69.5371 79.4173C69.5673 86.9189 69.5485 94.4206 69.5447 101.922C69.5447 102.591 69.5107 103.264 69.454 103.929C69.0723 108.487 66.1849 111.14 61.7821 110.988C57.247 110.834 54.5336 108.007 54.5147 103.298C54.4806 95.5543 54.492 87.807 54.5109 80.0635C54.5109 78.771 54.3824 77.505 53.9856 76.2768C53.2222 73.9261 51.3628 72.3616 49.0272 72.3011C46.6236 72.2406 44.7945 73.329 43.6456 75.4567C42.9313 76.7794 42.7688 78.2268 42.7726 79.7083C42.7839 87.516 42.799 95.32 42.7688 103.128C42.7461 108.846 39.016 111.816 33.3396 110.709C30.2785 110.112 28.2112 107.942 27.9807 104.825C27.5801 99.4053 27.8938 93.9747 27.8106 88.5515C27.7577 85.1389 27.822 81.7188 27.6443 78.3138C27.4554 74.6669 25.116 72.2822 22.0057 72.2784C18.9029 72.2746 16.4654 74.6555 16.2424 78.2193C15.804 85.2221 16.1592 92.24 16.0572 99.2504C16.0307 101.015 16.0383 102.788 15.9098 104.549C15.6188 108.468 12.5879 111.041 8.41181 111C4.12616 110.958 0.838223 108.105 0.823106 104.167C0.770196 91.2385 0.785318 78.31 0.815551 65.3814C0.82311 62.2447 2.66737 59.8374 5.55093 58.9115C9.0316 57.7966 12.7806 58.7981 14.6853 61.3717C15.0406 61.8517 15.3354 62.3732 15.7095 62.9514L15.6982 62.9476Z" fill="#171717"/>
<path d="M302.547 86.8312C303.47 86.4571 303.522 85.7239 303.749 85.123C306.058 79.0234 308.364 72.9238 310.658 66.8205C311.519 64.5265 312.702 62.5084 315.11 61.5221C318.957 59.9424 322.917 61.6468 324.629 65.8605C326.829 71.2799 328.821 76.7824 330.911 82.247C331.519 83.8343 332.15 85.4102 332.812 87.092C333.59 86.6385 333.575 85.9204 333.756 85.3422C336.039 78.1391 338.284 70.9246 340.585 63.7253C341.783 59.9801 344.066 58.3891 347.796 58.5592C353.609 58.8237 356.42 62.8221 354.55 68.3397C352.709 73.7628 350.736 79.1443 348.817 84.541C346.383 91.37 344.055 98.2405 341.466 105.013C339.134 111.116 332.003 112.873 327.173 108.728C325.737 107.496 324.89 105.897 324.252 104.155C322.411 99.1173 320.555 94.0834 318.7 89.0533C318.496 88.4978 318.246 87.9536 317.993 87.3489C317.211 87.8931 317.165 88.6679 316.92 89.3141C314.932 94.5558 313.02 99.8316 310.99 105.058C309.633 108.546 307.003 110.621 303.25 110.905C300.053 111.146 297.419 109.812 295.442 107.277C294.645 106.252 294.188 105.051 293.757 103.845C289.611 92.2543 285.469 80.6636 281.323 69.0691C280.549 66.9036 280.008 64.6928 281.081 62.4971C282.635 59.3226 285.541 58.4949 288.753 58.5025C291.916 58.5138 293.927 59.9537 294.929 63.011C297.298 70.2519 299.554 77.5269 301.86 84.7867C302.075 85.4669 302.313 86.1358 302.547 86.8274V86.8312Z" fill="#171717"/>
<path d="M219.012 84.8247C219.012 91.1019 219.042 97.3791 218.997 103.653C218.966 107.643 216.699 110.111 212.583 110.807C208.626 111.475 205.119 109.62 203.819 106.185C203.4 105.081 203.343 103.921 203.343 102.768C203.328 90.7656 203.29 78.7591 203.351 66.7565C203.385 59.9162 209.567 56.2315 215.421 59.4664C217.916 60.842 218.997 63.0529 219.004 65.8117C219.027 72.1493 219.012 78.487 219.012 84.8247Z" fill="#171717"/>
<path d="M126.78 79.0397C123.288 60.6125 103.171 53.4283 88.1826 62.0448C79.1086 67.2638 74.4564 77.8644 76.2024 88.5784C77.9068 99.0164 83.7797 106.072 93.9232 109.39C98.9005 111.019 104.025 110.993 109.157 110.184C113.11 109.564 116.931 108.548 120.393 106.458C123.11 104.817 124.199 102.078 123.352 99.092C122.249 95.1957 118.711 93.3099 114.921 94.7913C110.722 96.4315 106.455 97.6257 101.905 97.3725C98.326 97.1722 95.2497 95.8684 93.0842 92.8715C92.8083 92.486 92.385 92.0628 92.6118 91.5639C92.865 91.0084 93.4772 91.2427 93.9307 91.2427C98.3373 91.2238 102.744 91.2313 107.147 91.2313V91.2049C111.553 91.2049 115.96 91.2729 120.363 91.1822C124.146 91.1066 126.289 89.0394 126.999 85.385C127.419 83.2157 127.169 81.0994 126.776 79.0322L126.78 79.0397ZM110.215 78.4955C107.408 78.4426 104.596 78.4804 101.788 78.4804C98.9156 78.4804 96.0471 78.4502 93.1749 78.4955C92.0222 78.5144 91.8975 78.0874 92.4455 77.2257C94.6488 73.7527 97.9141 71.9764 101.935 71.9802C105.835 71.984 108.968 73.7413 111.028 77.169C111.636 78.1818 111.395 78.5182 110.215 78.4955Z" fill="#171717"/>
<path d="M277.278 79.2779C273.79 60.5106 253.529 53.4813 238.677 62.0109C229.089 67.5209 224.399 79.1419 226.931 90.2829C229.123 99.9387 234.947 106.394 244.425 109.424C249.349 111 254.413 110.989 259.485 110.203C263.434 109.594 267.251 108.559 270.74 106.522C272.467 105.513 273.608 104.149 273.911 102.085C274.651 96.9947 270.154 92.5466 264.893 94.9124C260.948 96.6848 256.772 97.5994 252.418 97.3764C248.847 97.1912 245.744 95.9479 243.582 92.9283C243.276 92.5013 242.732 92.0515 243.106 91.4809C243.401 91.0387 244.009 91.2352 244.478 91.2352C248.82 91.2239 253.166 91.2277 257.509 91.2277V91.2088C261.851 91.2088 266.197 91.2617 270.539 91.1937C274.678 91.1294 276.972 88.964 277.501 84.9127C277.75 83.008 277.618 81.1108 277.278 79.2704V79.2779ZM260.324 78.473C257.637 78.4843 254.946 78.473 252.259 78.473C249.387 78.473 246.515 78.439 243.646 78.4881C242.35 78.5108 242.312 78.0497 242.913 77.1238C245.071 73.8019 248.223 72.0597 252.097 71.969C255.929 71.8783 259.085 73.5109 261.216 76.7875C262.199 78.2991 262.081 78.4616 260.324 78.4692V78.473Z" fill="#171717"/>
</svg>
