<svg width="49" height="48" viewBox="0 0 49 48" fill="none" xmlns="http://www.w3.org/2000/svg">
<rect width="48" height="48" rx="24" transform="matrix(-1 0 0 1 48.0168 0)" fill="#2A291E"/>
<mask id="mask0_1452_25594" style="mask-type:alpha" maskUnits="userSpaceOnUse" x="12" y="12" width="25" height="24">
<rect width="24" height="24" transform="matrix(-1 0 0 1 36.0168 12)" fill="#D9D9D9"/>
</mask>
<g mask="url(#mask0_1452_25594)">
<path d="M30.006 24.9935L25.106 29.8935C24.906 30.0935 24.8102 30.3268 24.8185 30.5935C24.8268 30.8601 24.931 31.0935 25.131 31.2935C25.331 31.4768 25.5643 31.5726 25.831 31.581C26.0977 31.5893 26.331 31.4935 26.531 31.2935L33.131 24.6935C33.231 24.5935 33.3018 24.4851 33.3435 24.3685C33.3852 24.2518 33.406 24.1268 33.406 23.9935C33.406 23.8601 33.3852 23.7351 33.3435 23.6185C33.3018 23.5018 33.231 23.3935 33.131 23.2935L26.531 16.6935C26.3477 16.5101 26.1185 16.4185 25.8435 16.4185C25.5685 16.4185 25.331 16.5101 25.131 16.6935C24.931 16.8935 24.831 17.131 24.831 17.406C24.831 17.681 24.931 17.9185 25.131 18.1185L30.006 22.9935H15.6267C15.3434 22.9935 15.1059 23.0893 14.9142 23.281C14.7226 23.4726 14.6267 23.7101 14.6267 23.9935C14.6267 24.2768 14.7226 24.5143 14.9142 24.706C15.1059 24.8976 15.3434 24.9935 15.6267 24.9935H30.006Z" fill="#F7F7F7"/>
</g>
</svg>
