<svg width="48" height="48" viewBox="0 0 48 48" fill="none" xmlns="http://www.w3.org/2000/svg">
<rect width="48" height="48" rx="24" transform="matrix(-1 0 0 1 48 0)" fill="#2A291E"/>
<mask id="mask0_117_1866" style="mask-type:alpha" maskUnits="userSpaceOnUse" x="12" y="12" width="24" height="24">
<rect width="24" height="24" transform="matrix(-1 0 0 1 36 12)" fill="#D9D9D9"/>
</mask>
<g mask="url(#mask0_117_1866)">
<path d="M29.9906 24.9969L25.0906 29.8969C24.8906 30.0969 24.7948 30.3302 24.8031 30.5969C24.8115 30.8635 24.9156 31.0969 25.1156 31.2969C25.3156 31.4802 25.549 31.576 25.8156 31.5844C26.0823 31.5927 26.3156 31.4969 26.5156 31.2969L33.1156 24.6969C33.2156 24.5969 33.2865 24.4885 33.3281 24.3719C33.3698 24.2552 33.3906 24.1302 33.3906 23.9969C33.3906 23.8635 33.3698 23.7385 33.3281 23.6219C33.2865 23.5052 33.2156 23.3969 33.1156 23.2969L26.5156 16.6969C26.3323 16.5135 26.1031 16.4219 25.8281 16.4219C25.5531 16.4219 25.3156 16.5135 25.1156 16.6969C24.9156 16.8969 24.8156 17.1344 24.8156 17.4094C24.8156 17.6844 24.9156 17.9219 25.1156 18.1219L29.9906 22.9969H15.6114C15.328 22.9969 15.0905 23.0927 14.8989 23.2844C14.7072 23.476 14.6114 23.7135 14.6114 23.9969C14.6114 24.2802 14.7072 24.5177 14.8989 24.7094C15.0905 24.901 15.328 24.9969 15.6114 24.9969H29.9906Z" fill="#F7F7F7"/>
</g>
</svg>
