<svg width="48" height="48" viewBox="0 0 48 48" fill="none" xmlns="http://www.w3.org/2000/svg">
<rect width="48" height="48" rx="24" fill="#212121"/>
<mask id="mask0_105_1372" style="mask-type:alpha" maskUnits="userSpaceOnUse" x="12" y="12" width="24" height="24">
<rect x="12" y="12" width="24" height="24" fill="#D9D9D9"/>
</mask>
<g mask="url(#mask0_105_1372)">
<path d="M18.0094 24.9969L22.9094 29.8969C23.1094 30.0969 23.2052 30.3302 23.1969 30.5969C23.1885 30.8635 23.0844 31.0969 22.8844 31.2969C22.6844 31.4802 22.451 31.576 22.1844 31.5844C21.9177 31.5927 21.6844 31.4969 21.4844 31.2969L14.8844 24.6969C14.7844 24.5969 14.7135 24.4885 14.6719 24.3719C14.6302 24.2552 14.6094 24.1302 14.6094 23.9969C14.6094 23.8635 14.6302 23.7385 14.6719 23.6219C14.7135 23.5052 14.7844 23.3969 14.8844 23.2969L21.4844 16.6969C21.6677 16.5135 21.8969 16.4219 22.1719 16.4219C22.4469 16.4219 22.6844 16.5135 22.8844 16.6969C23.0844 16.8969 23.1844 17.1344 23.1844 17.4094C23.1844 17.6844 23.0844 17.9219 22.8844 18.1219L18.0094 22.9969H32.3886C32.672 22.9969 32.9095 23.0927 33.1011 23.2844C33.2928 23.476 33.3886 23.7135 33.3886 23.9969C33.3886 24.2802 33.2928 24.5177 33.1011 24.7094C32.9095 24.901 32.672 24.9969 32.3886 24.9969H18.0094Z" fill="#F7F7F7"/>
</g>
</svg>
