<svg width="49" height="48" viewBox="0 0 49 48" fill="none" xmlns="http://www.w3.org/2000/svg">
<rect x="0.0168457" width="48" height="48" rx="24" fill="#2A291E"/>
<mask id="mask0_1452_25598" style="mask-type:alpha" maskUnits="userSpaceOnUse" x="12" y="12" width="25" height="24">
<rect x="12.0168" y="12" width="24" height="24" fill="#D9D9D9"/>
</mask>
<g mask="url(#mask0_1452_25598)">
<path d="M18.0277 24.9935L22.9277 29.8935C23.1277 30.0935 23.2235 30.3268 23.2152 30.5935C23.2069 30.8601 23.1027 31.0935 22.9027 31.2935C22.7027 31.4768 22.4694 31.5726 22.2027 31.581C21.936 31.5893 21.7027 31.4935 21.5027 31.2935L14.9027 24.6935C14.8027 24.5935 14.7319 24.4851 14.6902 24.3685C14.6485 24.2518 14.6277 24.1268 14.6277 23.9935C14.6277 23.8601 14.6485 23.7351 14.6902 23.6185C14.7319 23.5018 14.8027 23.3935 14.9027 23.2935L21.5027 16.6935C21.686 16.5101 21.9152 16.4185 22.1902 16.4185C22.4652 16.4185 22.7027 16.5101 22.9027 16.6935C23.1027 16.8935 23.2027 17.131 23.2027 17.406C23.2027 17.681 23.1027 17.9185 22.9027 18.1185L18.0277 22.9935H32.4069C32.6903 22.9935 32.9278 23.0893 33.1194 23.281C33.3111 23.4726 33.4069 23.7101 33.4069 23.9935C33.4069 24.2768 33.3111 24.5143 33.1194 24.706C32.9278 24.8976 32.6903 24.9935 32.4069 24.9935H18.0277Z" fill="#F7F7F7"/>
</g>
</svg>
