<svg width="56" height="57" viewBox="0 0 56 57" fill="none" xmlns="http://www.w3.org/2000/svg">
<rect y="0.875488" width="56" height="56" rx="28" fill="#212121"/>
<mask id="mask0_162_200" style="mask-type:alpha" maskUnits="userSpaceOnUse" x="16" y="16" width="24" height="25">
<rect x="16" y="16.8755" width="24" height="24" fill="#D9D9D9"/>
</mask>
<g mask="url(#mask0_162_200)">
<path d="M28 30.5789L22.038 36.5409C21.815 36.764 21.5311 36.8755 21.1863 36.8755C20.8416 36.8755 20.5577 36.764 20.3346 36.5409C20.1115 36.3178 20 36.0339 20 35.6892C20 35.3444 20.1115 35.0605 20.3346 34.8375L26.2966 28.8755L20.3346 22.9135C20.1115 22.6904 20 22.4065 20 22.0618C20 21.7171 20.1115 21.4332 20.3346 21.2101C20.5577 20.987 20.8416 20.8755 21.1863 20.8755C21.5311 20.8755 21.815 20.987 22.038 21.2101L28 27.1721L33.962 21.2101C34.185 20.987 34.4689 20.8755 34.8137 20.8755C35.1584 20.8755 35.4423 20.987 35.6654 21.2101C35.8885 21.4332 36 21.7171 36 22.0618C36 22.4065 35.8885 22.6904 35.6654 22.9135L29.7034 28.8755L35.6654 34.8375C35.8885 35.0605 36 35.3444 36 35.6892C36 36.0339 35.8885 36.3178 35.6654 36.5409C35.4423 36.764 35.1584 36.8755 34.8137 36.8755C34.4689 36.8755 34.185 36.764 33.962 36.5409L28 30.5789Z" fill="white"/>
</g>
</svg>
