<svg width="126" height="44" viewBox="0 0 126 44" fill="none" xmlns="http://www.w3.org/2000/svg">
<mask id="path-1-inside-1_20_1140" fill="white">
<path d="M0 4C0 1.79086 1.79086 0 4 0H122C124.209 0 126 1.79086 126 4V40C126 42.2091 124.209 44 122 44H4C1.79086 44 0 42.2091 0 40V4Z"/>
</mask>
<path d="M0 4C0 1.79086 1.79086 0 4 0H122C124.209 0 126 1.79086 126 4V40C126 42.2091 124.209 44 122 44H4C1.79086 44 0 42.2091 0 40V4Z" fill="#212121" fill-opacity="0.8"/>
<path d="M0 0H126H0ZM126 44H0H126ZM0 44V0V44ZM122 0C126.418 0 130 3.58172 130 8V36C130 40.4183 126.418 44 122 44C122 44 122 42.2091 122 40V4C122 1.79086 122 0 122 0Z" fill="#6F6F6F" mask="url(#path-1-inside-1_20_1140)"/>
<mask id="mask0_20_1140" style="mask-type:alpha" maskUnits="userSpaceOnUse" x="12" y="8" width="28" height="28">
<rect x="12" y="8" width="28" height="28" fill="#D9D9D9"/>
</mask>
<g mask="url(#mask0_20_1140)">
<path d="M26.4176 28.2856H25.5864L25.5423 28.2814H25.4944C23.6869 28.2814 21.925 27.4906 20.3269 26.3363C18.7352 25.1866 17.3851 23.7329 16.4226 22.5458C15.6352 21.5746 15.5575 20.2608 16.226 19.2319C17.1365 17.8303 18.4386 16.1988 19.9808 15.2361C20.7405 14.7619 21.5273 14.4696 22.3345 14.4212C23.1282 14.3737 24.0052 14.5576 24.97 15.1337C25.6009 15.5298 26.4031 15.5298 27.0339 15.1337C27.9988 14.5576 28.8757 14.3737 29.6695 14.4212C30.4767 14.4696 31.2635 14.7619 32.0231 15.2361C33.5654 16.1988 34.8675 17.8303 35.778 19.2319C36.4464 20.2608 36.3688 21.5746 35.5813 22.5458C34.6189 23.7329 33.2687 25.1866 31.677 26.3363C30.079 27.4906 28.3171 28.2814 26.5096 28.2814H26.4616L26.4176 28.2856Z" stroke="#6F6F6F" stroke-width="2"/>
<path fill-rule="evenodd" clip-rule="evenodd" d="M21.032 22.9971C21.3357 22.5358 21.9558 22.408 22.4171 22.7117C24.5933 24.1442 27.4133 24.1443 29.5894 22.7117C30.0508 22.408 30.6709 22.5358 30.9746 22.9971C31.2782 23.4585 31.1504 24.0786 30.6891 24.3823C27.8456 26.2541 24.161 26.2541 21.3175 24.3823C20.8562 24.0786 20.7284 23.4585 21.032 22.9971Z" fill="#6F6F6F"/>
</g>
<path d="M59.282 22.53L58.31 24.492C55.394 23.97 53.27 22.422 52.19 20.37C51.11 22.404 49.004 23.97 46.106 24.492L45.134 22.53C48.878 21.918 50.93 19.38 50.93 17.076V15.888H53.468V17.076C53.468 19.434 55.502 21.918 59.282 22.53ZM53.396 27.678H59.786V29.586H44.774V27.678H51.02V23.97H53.396V27.678ZM68.6046 29.82C70.9086 29.82 71.9706 29.514 71.9706 28.83C71.9706 28.146 70.9086 27.858 68.6046 27.858C66.3186 27.858 65.2566 28.146 65.2566 28.83C65.2566 29.514 66.3186 29.82 68.6046 29.82ZM68.6046 26.112C72.2586 26.112 74.3646 27.048 74.3646 28.83C74.3646 30.594 72.2586 31.548 68.6046 31.548C64.9686 31.548 62.8626 30.594 62.8626 28.83C62.8626 27.048 64.9686 26.112 68.6046 26.112ZM69.8106 23.52H76.1286V25.374H61.1346V23.52H67.4346V22.494H63.0066V15.402H74.4186V17.202H65.3646V18.066H74.0406V19.794H65.3646V20.694H74.5446V22.494H69.8106V23.52ZM90.8692 19.092V20.982H79.4212V15.258H81.7972V19.092H90.8692ZM84.9832 29.694C87.1972 29.694 88.3312 29.298 88.3312 28.434C88.3312 27.57 87.1972 27.174 84.9832 27.174C82.7692 27.174 81.6352 27.57 81.6352 28.434C81.6352 29.298 82.7692 29.694 84.9832 29.694ZM84.9832 25.356C88.5652 25.356 90.7432 26.49 90.7432 28.434C90.7432 30.378 88.5652 31.512 84.9832 31.512C81.4012 31.512 79.2412 30.378 79.2412 28.434C79.2412 26.49 81.4012 25.356 84.9832 25.356ZM77.5492 22.386H92.5432V24.276H77.5492V22.386ZM102.37 22.476L102.604 24.366C100.678 24.726 98.9678 24.78 95.8178 24.78H94.5398V19.38H99.4358V17.814H94.5218V15.906H101.776V21.144H96.8978V22.872C99.2738 22.854 100.732 22.782 102.37 22.476ZM96.4298 27.822V25.932H107.77V31.566H105.394V27.822H96.4298ZM105.394 14.988L107.77 14.97V25.194H105.394V22.692H102.73V20.802H105.394V19.164H102.73V17.256H105.394V14.988Z" fill="#6F6F6F"/>
</svg>
