<svg width="151" height="45" viewBox="0 0 151 45" fill="none" xmlns="http://www.w3.org/2000/svg">
<g filter="url(#filter0_b_1025_13538)">
<mask id="path-1-inside-1_1025_13538" fill="white">
<path d="M0 4.46387C0 2.25473 1.79086 0.463867 4 0.463867H147C149.209 0.463867 151 2.25473 151 4.46387V40.4639C151 42.673 149.209 44.4639 147 44.4639H4C1.79086 44.4639 0 42.673 0 40.4639V4.46387Z"/>
</mask>
<path d="M0 4.46387C0 2.25473 1.79086 0.463867 4 0.463867H147C149.209 0.463867 151 2.25473 151 4.46387V40.4639C151 42.673 149.209 44.4639 147 44.4639H4C1.79086 44.4639 0 42.673 0 40.4639V4.46387Z" fill="#262023" fill-opacity="0.85"/>
<path d="M0 0.463867H151H0ZM151 44.4639H0H151ZM0 44.4639V0.463867V44.4639ZM147 0.463867C151.418 0.463867 155 4.04559 155 8.46387V36.4639C155 40.8821 151.418 44.4639 147 44.4639C147 44.4639 147 42.673 147 40.4639V4.46387C147 2.25473 147 0.463867 147 0.463867Z" fill="#F291C6" mask="url(#path-1-inside-1_1025_13538)"/>
<mask id="mask0_1025_13538" style="mask-type:alpha" maskUnits="userSpaceOnUse" x="14" y="8" width="28" height="29">
<rect x="14" y="8.46387" width="28" height="28" fill="#D9D9D9"/>
</mask>
<g mask="url(#mask0_1025_13538)">
<path fill-rule="evenodd" clip-rule="evenodd" d="M17.6439 23.638C19.6296 26.0872 23.2968 29.7438 27.4924 29.7438L27.5365 29.748H28.4636L28.5077 29.7438C32.7032 29.7438 36.3704 26.0872 38.3561 23.638C39.4092 22.3392 39.5256 20.5517 38.6146 19.1495C36.7399 16.2638 33.0211 12.0387 28.5077 14.7444C28.1983 14.9428 27.8018 14.9428 27.4924 14.7444C22.9789 12.0387 19.2601 16.2638 17.3855 19.1495C16.4745 20.5517 16.5908 22.3392 17.6439 23.638ZM24.4139 23.1731C23.9526 22.8695 23.3324 22.9973 23.0288 23.4586C22.7251 23.9199 22.8529 24.54 23.3142 24.8437C26.1577 26.7155 29.8424 26.7155 32.6859 24.8437C33.1472 24.54 33.275 23.9199 32.9713 23.4586C32.6676 22.9973 32.0475 22.8695 31.5862 23.1731C29.41 24.6057 26.5901 24.6057 24.4139 23.1731Z" fill="#F291C6"/>
</g>
<path d="M46.738 28.1599H61.822V30.1219H46.738V28.1599ZM53.002 24.4519H55.378V28.6819H53.002V24.4519ZM52.912 16.3159H55V17.5219C55 21.0679 52.426 24.1999 48.07 24.9919L47.08 22.9939C50.878 22.3819 52.912 19.8259 52.912 17.5219V16.3159ZM53.38 16.3159H55.468V17.5219C55.468 19.8799 57.502 22.3819 61.318 22.9939L60.328 24.9919C55.954 24.1819 53.38 21.1219 53.38 17.5219V16.3159ZM63.2606 23.9839H78.3446V25.8559H63.2606V23.9839ZM69.5966 22.2019H71.9906V24.6679H69.5966V22.2019ZM65.1326 21.1579H76.7426V22.9759H65.1326V21.1579ZM65.1326 15.8119H76.6166V17.6299H67.5086V22.1839H65.1326V15.8119ZM66.8426 18.5119H76.2386V20.2579H66.8426V18.5119ZM70.7846 26.5939C74.4386 26.5939 76.5626 27.5659 76.5626 29.3299C76.5626 31.1119 74.4386 32.0659 70.7846 32.0659C67.1126 32.0659 64.9886 31.1119 64.9886 29.3299C64.9886 27.5659 67.1126 26.5939 70.7846 26.5939ZM70.7846 28.3579C68.4626 28.3579 67.4006 28.6459 67.4006 29.3299C67.4006 30.0319 68.4626 30.3199 70.7846 30.3199C73.0886 30.3199 74.1506 30.0319 74.1506 29.3299C74.1506 28.6459 73.0886 28.3579 70.7846 28.3579ZM81.7452 19.5379H93.2472V21.4459H81.7452V19.5379ZM81.7452 15.6679H84.1212V20.4019H81.7452V15.6679ZM79.8552 22.8679H94.9392V24.7759H79.8552V22.8679ZM87.3432 25.8379C90.9432 25.8379 93.1212 26.9539 93.1212 28.9339C93.1212 30.8959 90.9432 32.0299 87.3432 32.0299C83.7432 32.0299 81.5472 30.8959 81.5472 28.9339C81.5472 26.9539 83.7432 25.8379 87.3432 25.8379ZM87.3432 27.6739C85.1112 27.6739 83.9772 28.0699 83.9772 28.9339C83.9772 29.7799 85.1112 30.1939 87.3432 30.1939C89.5752 30.1939 90.7092 29.7799 90.7092 28.9339C90.7092 28.0699 89.5752 27.6739 87.3432 27.6739ZM97.0258 23.3359H98.3038C101.4 23.3359 103.02 23.2819 104.91 22.9399L105.144 24.8299C103.2 25.1899 101.49 25.2439 98.3038 25.2439H97.0258V23.3359ZM97.0078 16.3519H104.334V21.6079H99.4018V24.5959H97.0258V19.8259H101.958V18.2419H97.0078V16.3519ZM107.952 15.4159H110.346V25.6759H107.952V15.4159ZM105.288 17.7019H108.384V19.6099H105.288V17.7019ZM105.288 21.2479H108.384V23.1559H105.288V21.2479ZM98.9338 26.4319H110.346V32.0839H107.952V28.3399H98.9338V26.4319Z" fill="#F291C6"/>
<mask id="mask1_1025_13538" style="mask-type:alpha" maskUnits="userSpaceOnUse" x="113" y="10" width="24" height="25">
<rect x="113" y="10.4639" width="24" height="24" fill="#D9D9D9"/>
</mask>
<g mask="url(#mask1_1025_13538)">
<path d="M125 24.8637L120.1 29.7637C119.917 29.947 119.683 30.0387 119.4 30.0387C119.117 30.0387 118.883 29.947 118.7 29.7637C118.517 29.5803 118.425 29.347 118.425 29.0637C118.425 28.7803 118.517 28.547 118.7 28.3637L123.6 23.4637L118.7 18.5637C118.517 18.3803 118.425 18.147 118.425 17.8637C118.425 17.5803 118.517 17.347 118.7 17.1637C118.883 16.9803 119.117 16.8887 119.4 16.8887C119.683 16.8887 119.917 16.9803 120.1 17.1637L125 22.0637L129.9 17.1637C130.083 16.9803 130.317 16.8887 130.6 16.8887C130.883 16.8887 131.117 16.9803 131.3 17.1637C131.483 17.347 131.575 17.5803 131.575 17.8637C131.575 18.147 131.483 18.3803 131.3 18.5637L126.4 23.4637L131.3 28.3637C131.483 28.547 131.575 28.7803 131.575 29.0637C131.575 29.347 131.483 29.5803 131.3 29.7637C131.117 29.947 130.883 30.0387 130.6 30.0387C130.317 30.0387 130.083 29.947 129.9 29.7637L125 24.8637Z" fill="#F291C6"/>
</g>
</g>
<defs>
<filter id="filter0_b_1025_13538" x="-12" y="-11.5361" width="175" height="68" filterUnits="userSpaceOnUse" color-interpolation-filters="sRGB">
<feFlood flood-opacity="0" result="BackgroundImageFix"/>
<feGaussianBlur in="BackgroundImageFix" stdDeviation="6"/>
<feComposite in2="SourceAlpha" operator="in" result="effect1_backgroundBlur_1025_13538"/>
<feBlend mode="normal" in="SourceGraphic" in2="effect1_backgroundBlur_1025_13538" result="shape"/>
</filter>
</defs>
</svg>
