<svg width="28" height="28" viewBox="0 0 28 28" fill="none" xmlns="http://www.w3.org/2000/svg">
<mask id="mask0_97_1747" style="mask-type:alpha" maskUnits="userSpaceOnUse" x="0" y="0" width="28" height="28">
<rect width="28" height="28" fill="#D9D9D9"/>
</mask>
<g mask="url(#mask0_97_1747)">
<path fill-rule="evenodd" clip-rule="evenodd" d="M3.64587 15.1756C5.63157 17.6248 9.29879 21.2814 13.4944 21.2814L13.5384 21.2856H14.4655L14.5096 21.2814C18.7052 21.2814 22.3724 17.6248 24.3581 15.1756C25.4112 13.8768 25.5275 12.0893 24.6166 10.6871C22.7419 7.8014 19.0231 3.57626 14.5096 6.28204C14.2003 6.48039 13.8037 6.48039 13.4944 6.28204C8.98087 3.57626 5.26209 7.8014 3.38741 10.6871C2.47646 12.0893 2.5928 13.8768 3.64587 15.1756ZM10.4158 14.7107C9.95452 14.4071 9.33439 14.5349 9.03072 14.9962C8.72705 15.4575 8.85484 16.0776 9.31615 16.3813C12.1596 18.2531 15.8443 18.2531 18.6878 16.3813C19.1491 16.0776 19.2769 15.4575 18.9732 14.9962C18.6696 14.5349 18.0494 14.4071 17.5881 14.7107C15.412 16.1433 12.592 16.1433 10.4158 14.7107Z" fill="#F291C6"/>
</g>
</svg>
