<svg width="142" height="60" viewBox="0 0 142 60" fill="none" xmlns="http://www.w3.org/2000/svg">
<g filter="url(#filter0_bd_20_1140)">
<mask id="path-1-inside-1_20_1140" fill="white">
<path d="M8 8C8 5.79086 9.79086 4 12 4H130C132.209 4 134 5.79086 134 8V44C134 46.2091 132.209 48 130 48H12C9.79086 48 8 46.2091 8 44V8Z"/>
</mask>
<path d="M8 8C8 5.79086 9.79086 4 12 4H130C132.209 4 134 5.79086 134 8V44C134 46.2091 132.209 48 130 48H12C9.79086 48 8 46.2091 8 44V8Z" fill="#212121" fill-opacity="0.8" shape-rendering="crispEdges"/>
<path d="M8 4H134H8ZM134 48H8H134ZM8 48V4V48ZM130 4C134.418 4 138 7.58172 138 12V40C138 44.4183 134.418 48 130 48C130 48 130 46.2091 130 44V8C130 5.79086 130 4 130 4Z" fill="#6F6F6F" mask="url(#path-1-inside-1_20_1140)"/>
<mask id="mask0_20_1140" style="mask-type:alpha" maskUnits="userSpaceOnUse" x="20" y="12" width="28" height="28">
<rect x="20" y="12" width="28" height="28" fill="#D9D9D9"/>
</mask>
<g mask="url(#mask0_20_1140)">
<path d="M34.4176 32.2856H33.5864L33.5423 32.2814H33.4944C31.6869 32.2814 29.925 31.4906 28.3269 30.3363C26.7352 29.1866 25.3851 27.7329 24.4226 26.5458C23.6352 25.5746 23.5575 24.2608 24.226 23.2319C25.1365 21.8303 26.4386 20.1988 27.9808 19.2361C28.7405 18.7619 29.5273 18.4696 30.3345 18.4212C31.1282 18.3737 32.0052 18.5576 32.97 19.1337C33.6009 19.5298 34.4031 19.5298 35.0339 19.1337C35.9988 18.5576 36.8757 18.3737 37.6695 18.4212C38.4767 18.4696 39.2635 18.7619 40.0231 19.2361C41.5654 20.1988 42.8675 21.8303 43.778 23.2319C44.4464 24.2608 44.3688 25.5746 43.5813 26.5458C42.6189 27.7329 41.2687 29.1866 39.677 30.3363C38.079 31.4906 36.3171 32.2814 34.5096 32.2814H34.4616L34.4176 32.2856Z" stroke="#6F6F6F" stroke-width="2"/>
<path fill-rule="evenodd" clip-rule="evenodd" d="M29.032 26.9971C29.3357 26.5358 29.9558 26.408 30.4171 26.7117C32.5933 28.1442 35.4133 28.1443 37.5894 26.7117C38.0508 26.408 38.6709 26.5358 38.9746 26.9971C39.2782 27.4585 39.1504 28.0786 38.6891 28.3823C35.8456 30.2541 32.161 30.2541 29.3175 28.3823C28.8562 28.0786 28.7284 27.4585 29.032 26.9971Z" fill="#6F6F6F"/>
</g>
<path d="M67.282 26.53L66.31 28.492C63.394 27.97 61.27 26.422 60.19 24.37C59.11 26.404 57.004 27.97 54.106 28.492L53.134 26.53C56.878 25.918 58.93 23.38 58.93 21.076V19.888H61.468V21.076C61.468 23.434 63.502 25.918 67.282 26.53ZM61.396 31.678H67.786V33.586H52.774V31.678H59.02V27.97H61.396V31.678ZM76.6046 33.82C78.9086 33.82 79.9706 33.514 79.9706 32.83C79.9706 32.146 78.9086 31.858 76.6046 31.858C74.3186 31.858 73.2566 32.146 73.2566 32.83C73.2566 33.514 74.3186 33.82 76.6046 33.82ZM76.6046 30.112C80.2586 30.112 82.3646 31.048 82.3646 32.83C82.3646 34.594 80.2586 35.548 76.6046 35.548C72.9686 35.548 70.8626 34.594 70.8626 32.83C70.8626 31.048 72.9686 30.112 76.6046 30.112ZM77.8106 27.52H84.1286V29.374H69.1346V27.52H75.4346V26.494H71.0066V19.402H82.4186V21.202H73.3646V22.066H82.0406V23.794H73.3646V24.694H82.5446V26.494H77.8106V27.52ZM98.8692 23.092V24.982H87.4212V19.258H89.7972V23.092H98.8692ZM92.9832 33.694C95.1972 33.694 96.3312 33.298 96.3312 32.434C96.3312 31.57 95.1972 31.174 92.9832 31.174C90.7692 31.174 89.6352 31.57 89.6352 32.434C89.6352 33.298 90.7692 33.694 92.9832 33.694ZM92.9832 29.356C96.5652 29.356 98.7432 30.49 98.7432 32.434C98.7432 34.378 96.5652 35.512 92.9832 35.512C89.4012 35.512 87.2412 34.378 87.2412 32.434C87.2412 30.49 89.4012 29.356 92.9832 29.356ZM85.5492 26.386H100.543V28.276H85.5492V26.386ZM110.37 26.476L110.604 28.366C108.678 28.726 106.968 28.78 103.818 28.78H102.54V23.38H107.436V21.814H102.522V19.906H109.776V25.144H104.898V26.872C107.274 26.854 108.732 26.782 110.37 26.476ZM104.43 31.822V29.932H115.77V35.566H113.394V31.822H104.43ZM113.394 18.988L115.77 18.97V29.194H113.394V26.692H110.73V24.802H113.394V23.164H110.73V21.256H113.394V18.988Z" fill="#6F6F6F"/>
</g>
<defs>
<filter id="filter0_bd_20_1140" x="-8" y="-12" width="158" height="76" filterUnits="userSpaceOnUse" color-interpolation-filters="sRGB">
<feFlood flood-opacity="0" result="BackgroundImageFix"/>
<feGaussianBlur in="BackgroundImageFix" stdDeviation="8"/>
<feComposite in2="SourceAlpha" operator="in" result="effect1_backgroundBlur_20_1140"/>
<feColorMatrix in="SourceAlpha" type="matrix" values="0 0 0 0 0 0 0 0 0 0 0 0 0 0 0 0 0 0 127 0" result="hardAlpha"/>
<feOffset dy="4"/>
<feGaussianBlur stdDeviation="4"/>
<feComposite in2="hardAlpha" operator="out"/>
<feColorMatrix type="matrix" values="0 0 0 0 0 0 0 0 0 0 0 0 0 0 0 0 0 0 0.25 0"/>
<feBlend mode="normal" in2="effect1_backgroundBlur_20_1140" result="effect2_dropShadow_20_1140"/>
<feBlend mode="normal" in="SourceGraphic" in2="effect2_dropShadow_20_1140" result="shape"/>
</filter>
</defs>
</svg>
