<svg width="106" height="28" viewBox="0 0 106 28" fill="none" xmlns="http://www.w3.org/2000/svg">
<mask id="mask0_73_1198" style="mask-type:alpha" maskUnits="userSpaceOnUse" x="0" y="0" width="28" height="28">
<rect width="28" height="28" fill="#D9D9D9"/>
</mask>
<g mask="url(#mask0_73_1198)">
<path fill-rule="evenodd" clip-rule="evenodd" d="M3.64587 15.1756C5.63157 17.6248 9.29879 21.2814 13.4944 21.2814L13.5384 21.2856H14.4655L14.5096 21.2814C18.7052 21.2814 22.3724 17.6248 24.3581 15.1756C25.4112 13.8768 25.5275 12.0893 24.6166 10.6871C22.7419 7.8014 19.0231 3.57626 14.5096 6.28204C14.2003 6.48039 13.8037 6.48039 13.4944 6.28204C8.98087 3.57626 5.26209 7.8014 3.38741 10.6871C2.47646 12.0893 2.5928 13.8768 3.64587 15.1756ZM10.4158 14.7107C9.95452 14.4071 9.33439 14.5349 9.03072 14.9962C8.72705 15.4575 8.85484 16.0776 9.31615 16.3813C12.1596 18.2531 15.8443 18.2531 18.6878 16.3813C19.1491 16.0776 19.2769 15.4575 18.9732 14.9962C18.6696 14.5349 18.0494 14.4071 17.5881 14.7107C15.412 16.1433 12.592 16.1433 10.4158 14.7107Z" fill="#F291C6"/>
</g>
<path d="M48.98 14.7L47.9 16.88C44.66 16.3 42.3 14.58 41.1 12.3C39.9 14.56 37.56 16.3 34.34 16.88L33.26 14.7C37.42 14.02 39.7 11.2 39.7 8.64V7.32H42.52V8.64C42.52 11.26 44.78 14.02 48.98 14.7ZM42.44 20.42H49.54V22.54H32.86V20.42H39.8V16.3H42.44V20.42ZM59.5384 22.8C62.0984 22.8 63.2784 22.46 63.2784 21.7C63.2784 20.94 62.0984 20.62 59.5384 20.62C56.9984 20.62 55.8184 20.94 55.8184 21.7C55.8184 22.46 56.9984 22.8 59.5384 22.8ZM59.5384 18.68C63.5984 18.68 65.9384 19.72 65.9384 21.7C65.9384 23.66 63.5984 24.72 59.5384 24.72C55.4984 24.72 53.1584 23.66 53.1584 21.7C53.1584 19.72 55.4984 18.68 59.5384 18.68ZM60.8784 15.8H67.8984V17.86H51.2384V15.8H58.2384V14.66H53.3184V6.78H65.9984V8.78H55.9384V9.74H65.5784V11.66H55.9384V12.66H66.1384V14.66H60.8784V15.8ZM84.4769 10.88V12.98H71.7569V6.62H74.3969V10.88H84.4769ZM77.9369 22.66C80.3969 22.66 81.6569 22.22 81.6569 21.26C81.6569 20.3 80.3969 19.86 77.9369 19.86C75.4769 19.86 74.2169 20.3 74.2169 21.26C74.2169 22.22 75.4769 22.66 77.9369 22.66ZM77.9369 17.84C81.9169 17.84 84.3369 19.1 84.3369 21.26C84.3369 23.42 81.9169 24.68 77.9369 24.68C73.9569 24.68 71.5569 23.42 71.5569 21.26C71.5569 19.1 73.9569 17.84 77.9369 17.84ZM69.6769 14.54H86.3369V16.64H69.6769V14.54ZM97.4553 14.64L97.7153 16.74C95.5753 17.14 93.6753 17.2 90.1753 17.2H88.7553V11.2H94.1953V9.46H88.7353V7.34H96.7953V13.16H91.3753V15.08C94.0153 15.06 95.6353 14.98 97.4553 14.64ZM90.8553 20.58V18.48H103.455V24.74H100.815V20.58H90.8553ZM100.815 6.32L103.455 6.3V17.66H100.815V14.88H97.8553V12.78H100.815V10.96H97.8553V8.84H100.815V6.32Z" fill="#F291C6"/>
</svg>
