<svg width="262" height="96" viewBox="0 0 262 96" fill="none" xmlns="http://www.w3.org/2000/svg">
<g filter="url(#filter0_d_4_83)">
<rect x="16" y="12" width="230" height="64" rx="32" fill="#FFF374"/>
<mask id="mask0_4_83" style="mask-type:alpha" maskUnits="userSpaceOnUse" x="73" y="32" width="25" height="24">
<rect x="73.5" y="32" width="24" height="24" fill="#D9D9D9"/>
</mask>
<g mask="url(#mask0_4_83)">
<path d="M84.0829 45.4171H78.917C78.5233 45.4171 78.1887 45.2793 77.9132 45.0038C77.6377 44.7283 77.5 44.3937 77.5 44C77.5 43.6063 77.6377 43.2718 77.9132 42.9962C78.1887 42.7207 78.5233 42.583 78.917 42.583H84.0829V37.4171C84.0829 37.0234 84.2207 36.6888 84.4962 36.4133C84.7717 36.1378 85.1063 36 85.5 36C85.8937 36 86.2283 36.1378 86.5038 36.4133C86.7793 36.6888 86.9171 37.0234 86.9171 37.4171V42.583H92.083C92.4767 42.583 92.8113 42.7207 93.0868 42.9962C93.3623 43.2718 93.5 43.6063 93.5 44C93.5 44.3937 93.3623 44.7283 93.0868 45.0038C92.8113 45.2793 92.4767 45.4171 92.083 45.4171H86.9171V50.583C86.9171 50.9767 86.7793 51.3113 86.5038 51.5868C86.2283 51.8623 85.8937 52 85.5 52C85.1063 52 84.7717 51.8623 84.4962 51.5868C84.2207 51.3113 84.0829 50.9767 84.0829 50.583V45.4171Z" fill="#1C1B1F"/>
</g>
<path d="M113.732 36.934H116.144V45.466H113.732V36.934ZM105.02 46.132H116.144V50.614H107.396V52.36H105.056V48.94H113.768V47.95H105.02V46.132ZM105.056 51.658H116.558V53.494H105.056V51.658ZM106.334 38.518H108.278V39.166C108.278 42.118 106.712 44.746 103.454 45.664L102.356 43.792C105.128 43.018 106.334 41.074 106.334 39.166V38.518ZM106.856 38.518H108.782V39.166C108.782 40.93 109.97 42.748 112.688 43.486L111.59 45.322C108.386 44.458 106.856 41.956 106.856 39.166V38.518ZM102.986 37.69H112.058V39.58H102.986V37.69ZM118.843 45.16H133.927V47.068H118.843V45.16ZM125.377 46.366H127.789V49.876H125.377V46.366ZM120.697 37.636H132.019V43.828H120.697V37.636ZM129.661 39.508H123.037V41.956H129.661V39.508ZM120.589 51.406H132.271V53.314H120.589V51.406ZM120.589 48.472H122.965V52.036H120.589V48.472ZM139.416 39.562H141.324V41.434C141.324 45.286 139.758 49.048 136.626 50.47L135.276 48.58C138.066 47.338 139.416 44.26 139.416 41.434V39.562ZM139.956 39.562H141.846V41.434C141.846 44.134 143.178 47.014 145.968 48.166L144.672 50.056C141.504 48.688 139.956 45.142 139.956 41.434V39.562ZM135.942 38.536H145.284V40.498H135.942V38.536ZM146.832 36.934H149.244V53.602H146.832V36.934ZM159.044 37.942H160.916V39.868C160.916 42.694 159.782 45.52 157.064 46.672L155.804 44.818C158.126 43.792 159.044 41.74 159.044 39.868V37.942ZM159.476 37.942H161.348V39.868C161.348 41.65 162.248 43.45 164.444 44.314L163.166 46.132C160.574 45.106 159.476 42.586 159.476 39.868V37.942ZM167.972 36.952H170.24V47.122H167.972V36.952ZM165.974 40.984H168.62V42.91H165.974V40.984ZM164.444 37.258H166.676V46.6H164.444V37.258ZM164.588 47.356C168.08 47.356 170.33 48.526 170.33 50.488C170.33 52.432 168.08 53.602 164.588 53.602C161.078 53.602 158.864 52.432 158.864 50.488C158.864 48.526 161.078 47.356 164.588 47.356ZM164.588 49.156C162.446 49.156 161.24 49.606 161.24 50.488C161.24 51.37 162.446 51.802 164.588 51.802C166.73 51.802 167.918 51.37 167.918 50.488C167.918 49.606 166.73 49.156 164.588 49.156ZM176.467 37.798H178.465V39.292C178.465 42.64 176.971 45.574 173.695 46.672L172.453 44.746C175.297 43.828 176.467 41.578 176.467 39.292V37.798ZM176.971 37.798H178.897V39.184C178.897 41.398 179.977 43.45 182.623 44.296L181.381 46.168C178.303 45.106 176.971 42.424 176.971 39.184V37.798ZM184.153 36.934H186.547V46.69H184.153V36.934ZM180.895 47.122C184.423 47.122 186.601 48.328 186.601 50.362C186.601 52.414 184.423 53.602 180.895 53.602C177.367 53.602 175.189 52.414 175.189 50.362C175.189 48.328 177.367 47.122 180.895 47.122ZM180.895 48.976C178.735 48.976 177.583 49.426 177.583 50.362C177.583 51.298 178.735 51.766 180.895 51.766C183.073 51.766 184.225 51.298 184.225 50.362C184.225 49.426 183.073 48.976 180.895 48.976ZM181.111 39.958H184.495V41.902H181.111V39.958Z" fill="black"/>
</g>
<defs>
<filter id="filter0_d_4_83" x="0" y="0" width="262" height="96" filterUnits="userSpaceOnUse" color-interpolation-filters="sRGB">
<feFlood flood-opacity="0" result="BackgroundImageFix"/>
<feColorMatrix in="SourceAlpha" type="matrix" values="0 0 0 0 0 0 0 0 0 0 0 0 0 0 0 0 0 0 127 0" result="hardAlpha"/>
<feOffset dy="4"/>
<feGaussianBlur stdDeviation="8"/>
<feComposite in2="hardAlpha" operator="out"/>
<feColorMatrix type="matrix" values="0 0 0 0 1 0 0 0 0 0.952941 0 0 0 0 0.454902 0 0 0 0.11 0"/>
<feBlend mode="normal" in2="BackgroundImageFix" result="effect1_dropShadow_4_83"/>
<feBlend mode="normal" in="SourceGraphic" in2="effect1_dropShadow_4_83" result="shape"/>
</filter>
</defs>
</svg>
