<svg width="88" height="28" viewBox="0 0 88 28" fill="none" xmlns="http://www.w3.org/2000/svg">
<mask id="mask0_73_1201" style="mask-type:alpha" maskUnits="userSpaceOnUse" x="0" y="0" width="28" height="28">
<rect width="28" height="28" fill="#D9D9D9"/>
</mask>
<g mask="url(#mask0_73_1201)">
<path fill-rule="evenodd" clip-rule="evenodd" d="M11.8956 3C10.9568 3 10.1957 3.7611 10.1957 4.69996V12.6898C10.1957 12.9333 9.99829 13.1306 9.75482 13.1306C9.51136 13.1306 9.31399 12.9333 9.31399 12.6898V8.14871C9.31399 7.20985 8.55289 6.44875 7.61402 6.44875C6.67516 6.44875 5.91406 7.20985 5.91406 8.14871V17.4733C5.91406 17.4791 5.91878 17.4839 5.92459 17.4839C5.93012 17.4839 5.93471 17.4881 5.93511 17.4936C5.99745 18.3563 6.19786 19.2048 6.52983 20.0062C6.93636 20.9876 7.53221 21.8794 8.28338 22.6306C9.03455 23.3817 9.92631 23.9776 10.9078 24.3841C11.8892 24.7907 12.9411 24.9999 14.0034 24.9999C15.0657 24.9999 16.1176 24.7907 17.0991 24.3841C18.0805 23.9776 18.9723 23.3817 19.7235 22.6306C20.4746 21.8794 21.0705 20.9876 21.477 20.0062C21.8835 19.0248 22.0925 17.9726 22.0925 16.9104C22.0927 16.8996 22.0928 16.8888 22.0928 16.878V12.816C22.0928 11.8771 21.3317 11.116 20.3928 11.116C19.454 11.116 18.6929 11.8771 18.6929 12.816V14.4729C18.6929 14.5386 18.679 14.6011 18.6541 14.6576C18.5938 14.8189 18.4384 14.9337 18.2562 14.9337C17.4402 14.9337 16.4817 15.1685 15.7353 15.7921C15.0034 16.4035 14.4259 17.4293 14.4259 19.1191C14.4259 19.3536 14.2358 19.5437 14.0013 19.5437C13.7668 19.5437 13.5767 19.3536 13.5767 19.1191C13.5767 17.2145 14.2392 15.9353 15.1909 15.1403C15.9767 14.4839 16.9256 14.1859 17.7771 14.1069V6.38121C17.7771 5.44235 17.016 4.68125 16.0772 4.68125C15.1383 4.68125 14.3772 5.44235 14.3772 6.38121V11.9387C14.3772 12.1546 14.2022 12.3295 13.9864 12.3295C13.7706 12.3295 13.5956 12.1546 13.5956 11.9387V4.69996C13.5956 3.7611 12.8345 3 11.8956 3Z" fill="#85C940"/>
</g>
<path d="M48.14 6.32V15.6H45.5V6.32H48.14ZM44.16 13.32L42.9 15.38C40.8 14.76 39.38 13.48 38.56 11.88C37.72 13.62 36.22 15.02 34.06 15.68L32.78 13.62C35.84 12.68 37.18 10.36 37.18 8.12V6.74H39.86V8.12C39.86 10.3 41.18 12.44 44.16 13.32ZM38.52 22.54H48.62V24.58H35.9V19.52H45.54V18.44H35.88V16.42H48.16V21.4H38.52V22.54ZM63.0984 12.98V17.24H60.6384V6.64H63.0984V10.84H64.4584V6.3H66.9584V17.82H64.4584V12.98H63.0984ZM60.1184 8.18V10.22H51.1584V8.18H54.3384V6.5H56.9384V8.18H60.1184ZM54.0384 14.02C54.0384 14.88 54.6984 15.36 55.6784 15.36C56.6584 15.36 57.2984 14.88 57.2984 14.02C57.2984 13.16 56.6584 12.7 55.6784 12.7C54.6984 12.7 54.0384 13.16 54.0384 14.02ZM59.6384 14.02C59.6384 15.92 57.9984 17.24 55.6784 17.24C53.3384 17.24 51.6984 15.92 51.6984 14.02C51.6984 12.12 53.3384 10.82 55.6784 10.82C57.9984 10.82 59.6384 12.12 59.6384 14.02ZM60.7184 22.76C63.1784 22.76 64.4184 22.34 64.4184 21.38C64.4184 20.42 63.1784 20 60.7184 20C58.2584 20 57.0184 20.42 57.0184 21.38C57.0184 22.34 58.2584 22.76 60.7184 22.76ZM60.7184 18.02C64.6784 18.02 67.0584 19.24 67.0584 21.38C67.0584 23.52 64.6784 24.72 60.7184 24.72C56.7584 24.72 54.3784 23.52 54.3784 21.38C54.3784 19.24 56.7584 18.02 60.7184 18.02ZM79.0569 14.64L79.3169 16.74C77.1769 17.14 75.2769 17.2 71.7769 17.2H70.3569V11.2H75.7969V9.46H70.3369V7.34H78.3969V13.16H72.9769V15.08C75.6169 15.06 77.2369 14.98 79.0569 14.64ZM72.4569 20.58V18.48H85.0569V24.74H82.4169V20.58H72.4569ZM82.4169 6.32L85.0569 6.3V17.66H82.4169V14.88H79.4569V12.78H82.4169V10.96H79.4569V8.84H82.4169V6.32Z" fill="#85C940"/>
</svg>
