<svg width="134" height="44" viewBox="0 0 134 44" fill="none" xmlns="http://www.w3.org/2000/svg">
<g filter="url(#filter0_b_1025_13254)">
<mask id="path-1-inside-1_1025_13254" fill="white">
<path d="M0 4C0 1.79086 1.79086 0 4 0H130C132.209 0 134 1.79086 134 4V40C134 42.2091 132.209 44 130 44H4C1.79086 44 0 42.2091 0 40V4Z"/>
</mask>
<path d="M0 4C0 1.79086 1.79086 0 4 0H130C132.209 0 134 1.79086 134 4V40C134 42.2091 132.209 44 130 44H4C1.79086 44 0 42.2091 0 40V4Z" fill="#232620" fill-opacity="0.85"/>
<path d="M0 0H134H0ZM134 44H0H134ZM0 44V0V44ZM130 0C134.418 0 138 3.58172 138 8V36C138 40.4183 134.418 44 130 44C130 44 130 42.2091 130 40V4C130 1.79086 130 0 130 0Z" fill="#85C940" mask="url(#path-1-inside-1_1025_13254)"/>
<mask id="mask0_1025_13254" style="mask-type:alpha" maskUnits="userSpaceOnUse" x="14" y="8" width="28" height="28">
<rect x="14" y="8" width="28" height="28" fill="#D9D9D9"/>
</mask>
<g mask="url(#mask0_1025_13254)">
<path fill-rule="evenodd" clip-rule="evenodd" d="M25.8922 11C24.9533 11 24.1922 11.7611 24.1922 12.7V20.6898C24.1922 20.9333 23.9949 21.1306 23.7514 21.1306C23.5079 21.1306 23.3106 20.9333 23.3106 20.6898V16.1487C23.3106 15.2098 22.5495 14.4487 21.6106 14.4487C20.6717 14.4487 19.9106 15.2098 19.9106 16.1487V25.4733C19.9106 25.4791 19.9154 25.4839 19.9212 25.4839C19.9267 25.4839 19.9313 25.4881 19.9317 25.4936C19.994 26.3563 20.1944 27.2048 20.5264 28.0062C20.9329 28.9876 21.5288 29.8794 22.28 30.6306C23.0311 31.3817 23.9229 31.9776 24.9043 32.3841C25.8858 32.7907 26.9377 32.9999 28 32.9999C29.0623 32.9999 30.1142 32.7907 31.0957 32.3841C32.0771 31.9776 32.9689 31.3817 33.72 30.6306C34.4712 29.8794 35.0671 28.9876 35.4736 28.0062C35.8801 27.0248 36.089 25.9726 36.0891 24.9104C36.0893 24.8996 36.0894 24.8888 36.0894 24.878V20.816C36.0894 19.8771 35.3283 19.116 34.3894 19.116C33.4505 19.116 32.6894 19.8771 32.6894 20.816V22.4729C32.6894 22.5386 32.6756 22.6011 32.6506 22.6576C32.5904 22.8189 32.435 22.9337 32.2527 22.9337C31.4368 22.9337 30.4783 23.1685 29.7319 23.7921C28.9999 24.4035 28.4225 25.4293 28.4225 27.1191C28.4225 27.3536 28.2324 27.5437 27.9979 27.5437C27.7634 27.5437 27.5733 27.3536 27.5733 27.1191C27.5733 25.2145 28.2357 23.9353 29.1874 23.1403C29.9733 22.4839 30.9222 22.1859 31.7737 22.1069V14.3812C31.7737 13.4423 31.0126 12.6813 30.0738 12.6813C29.1349 12.6813 28.3738 13.4423 28.3738 14.3812V19.9387C28.3738 20.1546 28.1988 20.3295 27.983 20.3295C27.7671 20.3295 27.5922 20.1546 27.5922 19.9387V12.7C27.5922 11.7611 26.8311 11 25.8922 11Z" fill="#85C940"/>
</g>
<path d="M58.168 14.934H60.58V23.358H58.168V14.934ZM49.456 24.096H60.58V28.614H51.832V30.288H49.492V26.886H58.204V25.914H49.456V24.096ZM49.492 29.64H60.994V31.494H49.492V29.64ZM50.626 15.312H52.606V16.572C52.606 19.65 51.058 22.44 47.8 23.43L46.648 21.54C49.438 20.694 50.626 18.606 50.626 16.572V15.312ZM51.112 15.312H53.074V16.572C53.074 18.552 54.244 20.496 56.962 21.27L55.81 23.124C52.606 22.188 51.112 19.578 51.112 16.572V15.312ZM75.2126 14.934H77.4806V25.374H75.2126V14.934ZM73.1786 19.038H75.8426V20.982H73.1786V19.038ZM71.7566 15.258H73.9886V24.834H71.7566V15.258ZM63.2066 16.644H71.2886V18.48H63.2066V16.644ZM67.2746 19.02C69.3626 19.02 70.8746 20.208 70.8746 21.936C70.8746 23.664 69.3626 24.834 67.2746 24.834C65.1866 24.834 63.6746 23.664 63.6746 21.936C63.6746 20.208 65.1866 19.02 67.2746 19.02ZM67.2746 20.73C66.3926 20.73 65.7986 21.162 65.7986 21.936C65.7986 22.71 66.3926 23.142 67.2746 23.142C68.1386 23.142 68.7326 22.71 68.7326 21.936C68.7326 21.162 68.1386 20.73 67.2746 20.73ZM66.0686 15.096H68.4266V17.904H66.0686V15.096ZM71.8466 25.554C75.4106 25.554 77.5706 26.634 77.5706 28.578C77.5706 30.504 75.4106 31.602 71.8466 31.602C68.2646 31.602 66.1046 30.504 66.1046 28.578C66.1046 26.634 68.2646 25.554 71.8466 25.554ZM71.8466 27.336C69.6146 27.336 68.4986 27.714 68.4986 28.578C68.4986 29.424 69.6146 29.82 71.8466 29.82C74.0606 29.82 75.1766 29.424 75.1766 28.578C75.1766 27.714 74.0606 27.336 71.8466 27.336ZM80.4672 22.872H81.7452C84.8412 22.872 86.4612 22.818 88.3512 22.476L88.5852 24.366C86.6412 24.726 84.9312 24.78 81.7452 24.78H80.4672V22.872ZM80.4492 15.888H87.7752V21.144H82.8432V24.132H80.4672V19.362H85.3992V17.778H80.4492V15.888ZM91.3932 14.952H93.7872V25.212H91.3932V14.952ZM88.7292 17.238H91.8252V19.146H88.7292V17.238ZM88.7292 20.784H91.8252V22.692H88.7292V20.784ZM82.3752 25.968H93.7872V31.62H91.3932V27.876H82.3752V25.968Z" fill="#85C940"/>
<mask id="mask1_1025_13254" style="mask-type:alpha" maskUnits="userSpaceOnUse" x="96" y="10" width="24" height="24">
<rect x="96" y="10" width="24" height="24" fill="#D9D9D9"/>
</mask>
<g mask="url(#mask1_1025_13254)">
<path d="M108 24.3998L103.1 29.2998C102.917 29.4831 102.683 29.5748 102.4 29.5748C102.117 29.5748 101.883 29.4831 101.7 29.2998C101.517 29.1165 101.425 28.8831 101.425 28.5998C101.425 28.3165 101.517 28.0831 101.7 27.8998L106.6 22.9998L101.7 18.0998C101.517 17.9165 101.425 17.6831 101.425 17.3998C101.425 17.1165 101.517 16.8831 101.7 16.6998C101.883 16.5165 102.117 16.4248 102.4 16.4248C102.683 16.4248 102.917 16.5165 103.1 16.6998L108 21.5998L112.9 16.6998C113.083 16.5165 113.317 16.4248 113.6 16.4248C113.883 16.4248 114.117 16.5165 114.3 16.6998C114.483 16.8831 114.575 17.1165 114.575 17.3998C114.575 17.6831 114.483 17.9165 114.3 18.0998L109.4 22.9998L114.3 27.8998C114.483 28.0831 114.575 28.3165 114.575 28.5998C114.575 28.8831 114.483 29.1165 114.3 29.2998C114.117 29.4831 113.883 29.5748 113.6 29.5748C113.317 29.5748 113.083 29.4831 112.9 29.2998L108 24.3998Z" fill="#85C940"/>
</g>
</g>
<defs>
<filter id="filter0_b_1025_13254" x="-12" y="-12" width="158" height="68" filterUnits="userSpaceOnUse" color-interpolation-filters="sRGB">
<feFlood flood-opacity="0" result="BackgroundImageFix"/>
<feGaussianBlur in="BackgroundImageFix" stdDeviation="6"/>
<feComposite in2="SourceAlpha" operator="in" result="effect1_backgroundBlur_1025_13254"/>
<feBlend mode="normal" in="SourceGraphic" in2="effect1_backgroundBlur_1025_13254" result="shape"/>
</filter>
</defs>
</svg>
