<svg width="126" height="60" viewBox="0 0 126 60" fill="none" xmlns="http://www.w3.org/2000/svg">
<g filter="url(#filter0_bd_20_1177)">
<mask id="path-1-inside-1_20_1177" fill="white">
<path d="M8 8C8 5.79086 9.79086 4 12 4H114C116.209 4 118 5.79086 118 8V44C118 46.2091 116.209 48 114 48H12C9.79086 48 8 46.2091 8 44V8Z"/>
</mask>
<path d="M8 8C8 5.79086 9.79086 4 12 4H114C116.209 4 118 5.79086 118 8V44C118 46.2091 116.209 48 114 48H12C9.79086 48 8 46.2091 8 44V8Z" fill="#212121" fill-opacity="0.8" shape-rendering="crispEdges"/>
<path d="M8 4H118H8ZM118 48H8H118ZM8 48V4V48ZM114 4C118.418 4 122 7.58172 122 12V40C122 44.4183 118.418 48 114 48C114 48 114 46.2091 114 44V8C114 5.79086 114 4 114 4Z" fill="#6F6F6F" mask="url(#path-1-inside-1_20_1177)"/>
<mask id="mask0_20_1177" style="mask-type:alpha" maskUnits="userSpaceOnUse" x="20" y="12" width="28" height="28">
<rect x="20" y="12" width="28" height="28" fill="#D9D9D9"/>
</mask>
<g mask="url(#mask0_20_1177)">
<path d="M38.4331 22.7831V19.0738C38.4331 17.668 37.2935 16.5284 35.8877 16.5284C35.3974 16.5284 34.9395 16.667 34.551 16.9072C34.2678 15.8103 33.2716 15 32.0862 15C30.6804 15 29.5408 16.1396 29.5408 17.5454V18.5204C29.1501 18.2763 28.6885 18.1352 28.1939 18.1352C26.7881 18.1352 25.6484 19.2749 25.6484 20.6807V29.1576C25.6484 29.2514 25.6612 29.3422 25.6852 29.4284C25.7631 30.2572 25.9647 31.0712 26.2843 31.8429L27.2026 31.4626L26.2843 31.8429C26.7042 32.8565 27.3195 33.7774 28.0953 34.5532C28.871 35.3289 29.7919 35.9443 30.8055 36.3641C31.8191 36.7839 32.9054 37 34.0024 37C35.0995 37 36.1858 36.7839 37.1994 36.3641C38.2129 35.9443 39.1339 35.3289 39.9096 34.5532C40.6853 33.7774 41.3007 32.8565 41.7205 31.8429C42.1397 30.831 42.3554 29.7464 42.3562 28.6515L42.3564 28.6368L42.3564 28.6164V24.9236C42.3564 23.5178 41.2168 22.3782 39.811 22.3782C39.3033 22.3782 38.8302 22.5269 38.4331 22.7831Z" stroke="#6F6F6F" stroke-width="2"/>
</g>
<path d="M66.526 18.988V27.34H64.15V18.988H66.526ZM62.944 25.288L61.81 27.142C59.92 26.584 58.642 25.432 57.904 23.992C57.148 25.558 55.798 26.818 53.854 27.412L52.702 25.558C55.456 24.712 56.662 22.624 56.662 20.608V19.366H59.074V20.608C59.074 22.57 60.262 24.496 62.944 25.288ZM57.868 33.586H66.958V35.422H55.51V30.868H64.186V29.896H55.492V28.078H66.544V32.56H57.868V33.586ZM79.8086 24.982V28.816H77.5946V19.276H79.8086V23.056H81.0326V18.97H83.2826V29.338H81.0326V24.982H79.8086ZM77.1266 20.662V22.498H69.0626V20.662H71.9246V19.15H74.2646V20.662H77.1266ZM71.6546 25.918C71.6546 26.692 72.2486 27.124 73.1306 27.124C74.0126 27.124 74.5886 26.692 74.5886 25.918C74.5886 25.144 74.0126 24.73 73.1306 24.73C72.2486 24.73 71.6546 25.144 71.6546 25.918ZM76.6946 25.918C76.6946 27.628 75.2186 28.816 73.1306 28.816C71.0246 28.816 69.5486 27.628 69.5486 25.918C69.5486 24.208 71.0246 23.038 73.1306 23.038C75.2186 23.038 76.6946 24.208 76.6946 25.918ZM77.6666 33.784C79.8806 33.784 80.9966 33.406 80.9966 32.542C80.9966 31.678 79.8806 31.3 77.6666 31.3C75.4526 31.3 74.3366 31.678 74.3366 32.542C74.3366 33.406 75.4526 33.784 77.6666 33.784ZM77.6666 29.518C81.2306 29.518 83.3726 30.616 83.3726 32.542C83.3726 34.468 81.2306 35.548 77.6666 35.548C74.1026 35.548 71.9606 34.468 71.9606 32.542C71.9606 30.616 74.1026 29.518 77.6666 29.518ZM93.9912 26.476L94.2252 28.366C92.2992 28.726 90.5892 28.78 87.4392 28.78H86.1612V23.38H91.0572V21.814H86.1432V19.906H93.3972V25.144H88.5192V26.872C90.8952 26.854 92.3532 26.782 93.9912 26.476ZM88.0512 31.822V29.932H99.3912V35.566H97.0152V31.822H88.0512ZM97.0152 18.988L99.3912 18.97V29.194H97.0152V26.692H94.3512V24.802H97.0152V23.164H94.3512V21.256H97.0152V18.988Z" fill="#6F6F6F"/>
</g>
<defs>
<filter id="filter0_bd_20_1177" x="-8" y="-12" width="142" height="76" filterUnits="userSpaceOnUse" color-interpolation-filters="sRGB">
<feFlood flood-opacity="0" result="BackgroundImageFix"/>
<feGaussianBlur in="BackgroundImageFix" stdDeviation="8"/>
<feComposite in2="SourceAlpha" operator="in" result="effect1_backgroundBlur_20_1177"/>
<feColorMatrix in="SourceAlpha" type="matrix" values="0 0 0 0 0 0 0 0 0 0 0 0 0 0 0 0 0 0 127 0" result="hardAlpha"/>
<feOffset dy="4"/>
<feGaussianBlur stdDeviation="4"/>
<feComposite in2="hardAlpha" operator="out"/>
<feColorMatrix type="matrix" values="0 0 0 0 0 0 0 0 0 0 0 0 0 0 0 0 0 0 0.25 0"/>
<feBlend mode="normal" in2="effect1_backgroundBlur_20_1177" result="effect2_dropShadow_20_1177"/>
<feBlend mode="normal" in="SourceGraphic" in2="effect2_dropShadow_20_1177" result="shape"/>
</filter>
</defs>
</svg>
