<svg width="28" height="28" viewBox="0 0 28 28" fill="none" xmlns="http://www.w3.org/2000/svg">
<mask id="mask0_97_1769" style="mask-type:alpha" maskUnits="userSpaceOnUse" x="0" y="0" width="28" height="28">
<rect width="28" height="28" fill="#D9D9D9"/>
</mask>
<g mask="url(#mask0_97_1769)">
<path fill-rule="evenodd" clip-rule="evenodd" d="M11.8956 3C10.9568 3 10.1957 3.7611 10.1957 4.69996V12.6898C10.1957 12.9333 9.99829 13.1306 9.75482 13.1306C9.51136 13.1306 9.31399 12.9333 9.31399 12.6898V8.14871C9.31399 7.20985 8.55289 6.44875 7.61402 6.44875C6.67516 6.44875 5.91406 7.20985 5.91406 8.14871V17.4733C5.91406 17.4791 5.91878 17.4839 5.92459 17.4839C5.93012 17.4839 5.93471 17.4881 5.93511 17.4936C5.99745 18.3563 6.19786 19.2048 6.52983 20.0062C6.93636 20.9876 7.53221 21.8794 8.28338 22.6306C9.03455 23.3817 9.92631 23.9776 10.9078 24.3841C11.8892 24.7907 12.9411 24.9999 14.0034 24.9999C15.0657 24.9999 16.1176 24.7907 17.0991 24.3841C18.0805 23.9776 18.9723 23.3817 19.7235 22.6306C20.4746 21.8794 21.0705 20.9876 21.477 20.0062C21.8835 19.0248 22.0925 17.9726 22.0925 16.9104C22.0927 16.8996 22.0928 16.8888 22.0928 16.878V12.816C22.0928 11.8771 21.3317 11.116 20.3928 11.116C19.454 11.116 18.6929 11.8771 18.6929 12.816V14.4729C18.6929 14.5386 18.679 14.6011 18.6541 14.6576C18.5938 14.8189 18.4384 14.9337 18.2562 14.9337C17.4402 14.9337 16.4817 15.1685 15.7353 15.7921C15.0034 16.4035 14.4259 17.4293 14.4259 19.1191C14.4259 19.3536 14.2358 19.5437 14.0013 19.5437C13.7668 19.5437 13.5767 19.3536 13.5767 19.1191C13.5767 17.2145 14.2392 15.9353 15.1909 15.1403C15.9767 14.4839 16.9256 14.1859 17.7771 14.1069V6.38121C17.7771 5.44235 17.016 4.68125 16.0772 4.68125C15.1383 4.68125 14.3772 5.44235 14.3772 6.38121V11.9387C14.3772 12.1546 14.2022 12.3295 13.9864 12.3295C13.7706 12.3295 13.5956 12.1546 13.5956 11.9387V4.69996C13.5956 3.7611 12.8345 3 11.8956 3Z" fill="#85C940"/>
</g>
</svg>
