<svg width="110" height="44" viewBox="0 0 110 44" fill="none" xmlns="http://www.w3.org/2000/svg">
<mask id="path-1-inside-1_20_1177" fill="white">
<path d="M0 4C0 1.79086 1.79086 0 4 0H106C108.209 0 110 1.79086 110 4V40C110 42.2091 108.209 44 106 44H4C1.79086 44 0 42.2091 0 40V4Z"/>
</mask>
<path d="M0 4C0 1.79086 1.79086 0 4 0H106C108.209 0 110 1.79086 110 4V40C110 42.2091 108.209 44 106 44H4C1.79086 44 0 42.2091 0 40V4Z" fill="#212121" fill-opacity="0.8"/>
<path d="M0 0H110H0ZM110 44H0H110ZM0 44V0V44ZM106 0C110.418 0 114 3.58172 114 8V36C114 40.4183 110.418 44 106 44C106 44 106 42.2091 106 40V4C106 1.79086 106 0 106 0Z" fill="#6F6F6F" mask="url(#path-1-inside-1_20_1177)"/>
<mask id="mask0_20_1177" style="mask-type:alpha" maskUnits="userSpaceOnUse" x="12" y="8" width="28" height="28">
<rect x="12" y="8" width="28" height="28" fill="#D9D9D9"/>
</mask>
<g mask="url(#mask0_20_1177)">
<path d="M30.4331 18.7831V15.0738C30.4331 13.668 29.2935 12.5284 27.8877 12.5284C27.3974 12.5284 26.9395 12.667 26.551 12.9072C26.2678 11.8103 25.2716 11 24.0862 11C22.6804 11 21.5408 12.1396 21.5408 13.5454V14.5204C21.1501 14.2763 20.6885 14.1352 20.1939 14.1352C18.7881 14.1352 17.6484 15.2749 17.6484 16.6807V25.1576C17.6484 25.2514 17.6612 25.3422 17.6852 25.4284C17.7631 26.2572 17.9647 27.0712 18.2843 27.8429L19.2026 27.4626L18.2843 27.8429C18.7042 28.8565 19.3195 29.7774 20.0953 30.5532C20.871 31.3289 21.7919 31.9443 22.8055 32.3641C23.8191 32.7839 24.9054 33 26.0024 33C27.0995 33 28.1858 32.7839 29.1994 32.3641C30.2129 31.9443 31.1339 31.3289 31.9096 30.5532C32.6853 29.7774 33.3007 28.8565 33.7205 27.8429C34.1397 26.831 34.3554 25.7464 34.3562 24.6515L34.3564 24.6368L34.3564 24.6164V20.9236C34.3564 19.5178 33.2168 18.3782 31.811 18.3782C31.3033 18.3782 30.8302 18.5269 30.4331 18.7831Z" stroke="#6F6F6F" stroke-width="2"/>
</g>
<path d="M58.526 14.988V23.34H56.15V14.988H58.526ZM54.944 21.288L53.81 23.142C51.92 22.584 50.642 21.432 49.904 19.992C49.148 21.558 47.798 22.818 45.854 23.412L44.702 21.558C47.456 20.712 48.662 18.624 48.662 16.608V15.366H51.074V16.608C51.074 18.57 52.262 20.496 54.944 21.288ZM49.868 29.586H58.958V31.422H47.51V26.868H56.186V25.896H47.492V24.078H58.544V28.56H49.868V29.586ZM71.8086 20.982V24.816H69.5946V15.276H71.8086V19.056H73.0326V14.97H75.2826V25.338H73.0326V20.982H71.8086ZM69.1266 16.662V18.498H61.0626V16.662H63.9246V15.15H66.2646V16.662H69.1266ZM63.6546 21.918C63.6546 22.692 64.2486 23.124 65.1306 23.124C66.0126 23.124 66.5886 22.692 66.5886 21.918C66.5886 21.144 66.0126 20.73 65.1306 20.73C64.2486 20.73 63.6546 21.144 63.6546 21.918ZM68.6946 21.918C68.6946 23.628 67.2186 24.816 65.1306 24.816C63.0246 24.816 61.5486 23.628 61.5486 21.918C61.5486 20.208 63.0246 19.038 65.1306 19.038C67.2186 19.038 68.6946 20.208 68.6946 21.918ZM69.6666 29.784C71.8806 29.784 72.9966 29.406 72.9966 28.542C72.9966 27.678 71.8806 27.3 69.6666 27.3C67.4526 27.3 66.3366 27.678 66.3366 28.542C66.3366 29.406 67.4526 29.784 69.6666 29.784ZM69.6666 25.518C73.2306 25.518 75.3726 26.616 75.3726 28.542C75.3726 30.468 73.2306 31.548 69.6666 31.548C66.1026 31.548 63.9606 30.468 63.9606 28.542C63.9606 26.616 66.1026 25.518 69.6666 25.518ZM85.9912 22.476L86.2252 24.366C84.2992 24.726 82.5892 24.78 79.4392 24.78H78.1612V19.38H83.0572V17.814H78.1432V15.906H85.3972V21.144H80.5192V22.872C82.8952 22.854 84.3532 22.782 85.9912 22.476ZM80.0512 27.822V25.932H91.3912V31.566H89.0152V27.822H80.0512ZM89.0152 14.988L91.3912 14.97V25.194H89.0152V22.692H86.3512V20.802H89.0152V19.164H86.3512V17.256H89.0152V14.988Z" fill="#6F6F6F"/>
</svg>
