<svg width="110" height="44" viewBox="0 0 110 44" fill="none" xmlns="http://www.w3.org/2000/svg">
<mask id="path-1-inside-1_98_1820" fill="white">
<path d="M0 4C0 1.79086 1.79086 0 4 0H106C108.209 0 110 1.79086 110 4V40C110 42.2091 108.209 44 106 44H4C1.79086 44 0 42.2091 0 40V4Z"/>
</mask>
<path d="M0 4C0 1.79086 1.79086 0 4 0H106C108.209 0 110 1.79086 110 4V40C110 42.2091 108.209 44 106 44H4C1.79086 44 0 42.2091 0 40V4Z" fill="#212121" fill-opacity="0.8"/>
<path d="M0 0H110H0ZM110 44H0H110ZM0 44V0V44ZM106 0C110.418 0 114 3.58172 114 8V36C114 40.4183 110.418 44 106 44C106 44 106 42.2091 106 40V4C106 1.79086 106 0 106 0Z" fill="#6F6F6F" mask="url(#path-1-inside-1_98_1820)"/>
<mask id="mask0_98_1820" style="mask-type:alpha" maskUnits="userSpaceOnUse" x="14" y="8" width="28" height="28">
<rect x="14" y="8" width="28" height="28" fill="#D9D9D9"/>
</mask>
<g mask="url(#mask0_98_1820)">
<path d="M32.4331 18.7831V15.0738C32.4331 13.668 31.2935 12.5284 29.8877 12.5284C29.3974 12.5284 28.9395 12.667 28.551 12.9072C28.2678 11.8103 27.2716 11 26.0862 11C24.6804 11 23.5408 12.1396 23.5408 13.5454V14.5204C23.1501 14.2763 22.6885 14.1352 22.1939 14.1352C20.7881 14.1352 19.6484 15.2749 19.6484 16.6807V25.1576C19.6484 25.2514 19.6612 25.3422 19.6852 25.4284C19.7631 26.2572 19.9647 27.0712 20.2843 27.8429L21.2026 27.4626L20.2843 27.8429C20.7042 28.8565 21.3195 29.7774 22.0953 30.5532C22.871 31.3289 23.7919 31.9443 24.8055 32.3641C25.8191 32.7839 26.9054 33 28.0024 33C29.0995 33 30.1858 32.7839 31.1994 32.3641C32.2129 31.9443 33.1339 31.3289 33.9096 30.5532C34.6853 29.7774 35.3007 28.8565 35.7205 27.8429C36.1397 26.831 36.3554 25.7464 36.3562 24.6515L36.3564 24.6368L36.3564 24.6164V20.9236C36.3564 19.5178 35.2168 18.3782 33.811 18.3782C33.3033 18.3782 32.8302 18.5269 32.4331 18.7831Z" stroke="#6F6F6F" stroke-width="2"/>
</g>
<path d="M58.168 14.934H60.58V23.358H58.168V14.934ZM49.456 24.096H60.58V28.614H51.832V30.288H49.492V26.886H58.204V25.914H49.456V24.096ZM49.492 29.64H60.994V31.494H49.492V29.64ZM50.626 15.312H52.606V16.572C52.606 19.65 51.058 22.44 47.8 23.43L46.648 21.54C49.438 20.694 50.626 18.606 50.626 16.572V15.312ZM51.112 15.312H53.074V16.572C53.074 18.552 54.244 20.496 56.962 21.27L55.81 23.124C52.606 22.188 51.112 19.578 51.112 16.572V15.312ZM75.2126 14.934H77.4806V25.374H75.2126V14.934ZM73.1786 19.038H75.8426V20.982H73.1786V19.038ZM71.7566 15.258H73.9886V24.834H71.7566V15.258ZM63.2066 16.644H71.2886V18.48H63.2066V16.644ZM67.2746 19.02C69.3626 19.02 70.8746 20.208 70.8746 21.936C70.8746 23.664 69.3626 24.834 67.2746 24.834C65.1866 24.834 63.6746 23.664 63.6746 21.936C63.6746 20.208 65.1866 19.02 67.2746 19.02ZM67.2746 20.73C66.3926 20.73 65.7986 21.162 65.7986 21.936C65.7986 22.71 66.3926 23.142 67.2746 23.142C68.1386 23.142 68.7326 22.71 68.7326 21.936C68.7326 21.162 68.1386 20.73 67.2746 20.73ZM66.0686 15.096H68.4266V17.904H66.0686V15.096ZM71.8466 25.554C75.4106 25.554 77.5706 26.634 77.5706 28.578C77.5706 30.504 75.4106 31.602 71.8466 31.602C68.2646 31.602 66.1046 30.504 66.1046 28.578C66.1046 26.634 68.2646 25.554 71.8466 25.554ZM71.8466 27.336C69.6146 27.336 68.4986 27.714 68.4986 28.578C68.4986 29.424 69.6146 29.82 71.8466 29.82C74.0606 29.82 75.1766 29.424 75.1766 28.578C75.1766 27.714 74.0606 27.336 71.8466 27.336ZM80.4672 22.872H81.7452C84.8412 22.872 86.4612 22.818 88.3512 22.476L88.5852 24.366C86.6412 24.726 84.9312 24.78 81.7452 24.78H80.4672V22.872ZM80.4492 15.888H87.7752V21.144H82.8432V24.132H80.4672V19.362H85.3992V17.778H80.4492V15.888ZM91.3932 14.952H93.7872V25.212H91.3932V14.952ZM88.7292 17.238H91.8252V19.146H88.7292V17.238ZM88.7292 20.784H91.8252V22.692H88.7292V20.784ZM82.3752 25.968H93.7872V31.62H91.3932V27.876H82.3752V25.968Z" fill="#6F6F6F"/>
</svg>
