<svg width="134" height="44" viewBox="0 0 134 44" fill="none" xmlns="http://www.w3.org/2000/svg">
<g filter="url(#filter0_b_1025_13518)">
<mask id="path-1-inside-1_1025_13518" fill="white">
<path d="M0 4C0 1.79086 1.79086 0 4 0H130C132.209 0 134 1.79086 134 4V40C134 42.2091 132.209 44 130 44H4C1.79086 44 0 42.2091 0 40V4Z"/>
</mask>
<path d="M0 4C0 1.79086 1.79086 0 4 0H130C132.209 0 134 1.79086 134 4V40C134 42.2091 132.209 44 130 44H4C1.79086 44 0 42.2091 0 40V4Z" fill="#262121" fill-opacity="0.85"/>
<path d="M0 0H134H0ZM134 44H0H134ZM0 44V0V44ZM130 0C134.418 0 138 3.58172 138 8V36C138 40.4183 134.418 44 130 44C130 44 130 42.2091 130 40V4C130 1.79086 130 0 130 0Z" fill="#F0485A" mask="url(#path-1-inside-1_1025_13518)"/>
<mask id="mask0_1025_13518" style="mask-type:alpha" maskUnits="userSpaceOnUse" x="14" y="8" width="28" height="28">
<rect x="14" y="8" width="28" height="28" fill="#D9D9D9"/>
</mask>
<g mask="url(#mask0_1025_13518)">
<path d="M28 31.7126C27.7278 31.7126 27.4507 31.664 27.1688 31.5668C26.8868 31.4696 26.6389 31.314 26.425 31.1001L24.4125 29.2626C22.3514 27.3765 20.4896 25.505 18.8271 23.648C17.1646 21.7911 16.3334 19.7446 16.3334 17.5085C16.3334 15.6807 16.9459 14.1543 18.1709 12.9293C19.3959 11.7043 20.9223 11.0918 22.75 11.0918C23.7806 11.0918 24.7528 11.3105 25.6667 11.748C26.5806 12.1855 27.3584 12.7835 28 13.5418C28.6417 12.7835 29.4195 12.1855 30.3334 11.748C31.2473 11.3105 32.2195 11.0918 33.25 11.0918C35.0778 11.0918 36.6042 11.7043 37.8292 12.9293C39.0542 14.1543 39.6667 15.6807 39.6667 17.5085C39.6667 19.7446 38.8403 21.796 37.1875 23.6626C35.5348 25.5293 33.6584 27.4057 31.5584 29.2918L29.575 31.1001C29.3612 31.314 29.1132 31.4696 28.8313 31.5668C28.5493 31.664 28.2723 31.7126 28 31.7126Z" fill="#F0485A"/>
</g>
<path d="M58.168 14.952H60.58V27.138H58.168V14.952ZM49.474 29.406H60.994V31.314H49.474V29.406ZM49.474 26.058H51.868V30.522H49.474V26.058ZM50.788 18.228H52.75V18.822C52.75 21.81 51.22 24.456 47.998 25.392L46.864 23.52C49.6 22.728 50.788 20.766 50.788 18.822V18.228ZM51.238 18.228H53.182V18.822C53.182 20.64 54.388 22.494 57.124 23.25L56.008 25.122C52.768 24.222 51.238 21.684 51.238 18.822V18.228ZM47.422 16.86H56.53V18.732H47.422V16.86ZM50.788 15.024H53.182V17.634H50.788V15.024ZM67.1306 24.798H69.5246V27.498H67.1306V24.798ZM74.1326 14.934H76.5446V31.602H74.1326V14.934ZM75.6986 21.702H78.6326V23.682H75.6986V21.702ZM63.3866 28.83L63.0986 26.904C65.9786 26.904 69.9386 26.886 73.3046 26.418L73.4846 28.146C69.9746 28.83 66.1946 28.83 63.3866 28.83ZM63.4046 16.77H73.2146V18.642H63.4046V16.77ZM68.3366 19.308C70.7126 19.308 72.4046 20.568 72.4046 22.422C72.4046 24.294 70.7126 25.554 68.3366 25.554C65.9426 25.554 64.2686 24.294 64.2686 22.422C64.2686 20.568 65.9426 19.308 68.3366 19.308ZM68.3366 21.108C67.2386 21.108 66.5366 21.576 66.5366 22.422C66.5366 23.286 67.2386 23.754 68.3366 23.754C69.4166 23.754 70.1366 23.286 70.1366 22.422C70.1366 21.576 69.4166 21.108 68.3366 21.108ZM67.1306 15.024H69.5246V18.174H67.1306V15.024ZM80.4672 22.872H81.7452C84.8412 22.872 86.4612 22.818 88.3512 22.476L88.5852 24.366C86.6412 24.726 84.9312 24.78 81.7452 24.78H80.4672V22.872ZM80.4492 15.888H87.7752V21.144H82.8432V24.132H80.4672V19.362H85.3992V17.778H80.4492V15.888ZM91.3932 14.952H93.7872V25.212H91.3932V14.952ZM88.7292 17.238H91.8252V19.146H88.7292V17.238ZM88.7292 20.784H91.8252V22.692H88.7292V20.784ZM82.3752 25.968H93.7872V31.62H91.3932V27.876H82.3752V25.968Z" fill="#F0485A"/>
<mask id="mask1_1025_13518" style="mask-type:alpha" maskUnits="userSpaceOnUse" x="96" y="10" width="24" height="24">
<rect x="96" y="10" width="24" height="24" fill="#D9D9D9"/>
</mask>
<g mask="url(#mask1_1025_13518)">
<path d="M108 24.3998L103.1 29.2998C102.917 29.4831 102.683 29.5748 102.4 29.5748C102.117 29.5748 101.883 29.4831 101.7 29.2998C101.517 29.1165 101.425 28.8831 101.425 28.5998C101.425 28.3165 101.517 28.0831 101.7 27.8998L106.6 22.9998L101.7 18.0998C101.517 17.9165 101.425 17.6831 101.425 17.3998C101.425 17.1165 101.517 16.8831 101.7 16.6998C101.883 16.5165 102.117 16.4248 102.4 16.4248C102.683 16.4248 102.917 16.5165 103.1 16.6998L108 21.5998L112.9 16.6998C113.083 16.5165 113.317 16.4248 113.6 16.4248C113.883 16.4248 114.117 16.5165 114.3 16.6998C114.483 16.8831 114.575 17.1165 114.575 17.3998C114.575 17.6831 114.483 17.9165 114.3 18.0998L109.4 22.9998L114.3 27.8998C114.483 28.0831 114.575 28.3165 114.575 28.5998C114.575 28.8831 114.483 29.1165 114.3 29.2998C114.117 29.4831 113.883 29.5748 113.6 29.5748C113.317 29.5748 113.083 29.4831 112.9 29.2998L108 24.3998Z" fill="#F0485A"/>
</g>
</g>
<defs>
<filter id="filter0_b_1025_13518" x="-12" y="-12" width="158" height="68" filterUnits="userSpaceOnUse" color-interpolation-filters="sRGB">
<feFlood flood-opacity="0" result="BackgroundImageFix"/>
<feGaussianBlur in="BackgroundImageFix" stdDeviation="6"/>
<feComposite in2="SourceAlpha" operator="in" result="effect1_backgroundBlur_1025_13518"/>
<feBlend mode="normal" in="SourceGraphic" in2="effect1_backgroundBlur_1025_13518" result="shape"/>
</filter>
</defs>
</svg>
