<svg width="126" height="60" viewBox="0 0 126 60" fill="none" xmlns="http://www.w3.org/2000/svg">
<g filter="url(#filter0_bd_20_1184)">
<mask id="path-1-inside-1_20_1184" fill="white">
<path d="M8 8C8 5.79086 9.79086 4 12 4H114C116.209 4 118 5.79086 118 8V44C118 46.2091 116.209 48 114 48H12C9.79086 48 8 46.2091 8 44V8Z"/>
</mask>
<path d="M8 8C8 5.79086 9.79086 4 12 4H114C116.209 4 118 5.79086 118 8V44C118 46.2091 116.209 48 114 48H12C9.79086 48 8 46.2091 8 44V8Z" fill="#212121" fill-opacity="0.8" shape-rendering="crispEdges"/>
<path d="M8 4H118H8ZM118 48H8H118ZM8 48V4V48ZM114 4C118.418 4 122 7.58172 122 12V40C122 44.4183 118.418 48 114 48C114 48 114 46.2091 114 44V8C114 5.79086 114 4 114 4Z" fill="#6F6F6F" mask="url(#path-1-inside-1_20_1184)"/>
<mask id="mask0_20_1184" style="mask-type:alpha" maskUnits="userSpaceOnUse" x="20" y="12" width="28" height="28">
<rect x="20" y="12" width="28" height="28" fill="#D9D9D9"/>
</mask>
<g mask="url(#mask0_20_1184)">
<path d="M34.0026 35.7146C33.7304 35.7146 33.4533 35.666 33.1714 35.5688C32.8894 35.4715 32.6415 35.316 32.4276 35.1021L30.4151 33.2646C28.354 31.3785 26.4922 29.5069 24.8297 27.65C23.1672 25.7931 22.3359 23.7465 22.3359 21.5104C22.3359 19.6826 22.9484 18.1563 24.1734 16.9313C25.3984 15.7063 26.9248 15.0938 28.7526 15.0938C29.7832 15.0938 30.7554 15.3125 31.6693 15.75C32.5832 16.1875 33.3609 16.7854 34.0026 17.5438C34.6443 16.7854 35.422 16.1875 36.3359 15.75C37.2498 15.3125 38.222 15.0938 39.2526 15.0938C41.0804 15.0938 42.6068 15.7063 43.8318 16.9313C45.0568 18.1563 45.6693 19.6826 45.6693 21.5104C45.6693 23.7465 44.8429 25.7979 43.1901 27.6646C41.5373 29.5313 39.6609 31.4076 37.5609 33.2938L35.5776 35.1021C35.3637 35.316 35.1158 35.4715 34.8339 35.5688C34.5519 35.666 34.2748 35.7146 34.0026 35.7146ZM32.8943 19.8771C32.3304 19.0799 31.7276 18.4722 31.0859 18.0542C30.4443 17.6361 29.6665 17.4271 28.7526 17.4271C27.5859 17.4271 26.6137 17.816 25.8359 18.5938C25.0582 19.3715 24.6693 20.3438 24.6693 21.5104C24.6693 22.5215 25.029 23.5958 25.7484 24.7333C26.4679 25.8708 27.3283 26.9743 28.3297 28.0438C29.3311 29.1132 30.3616 30.1146 31.4214 31.0479C32.4811 31.9813 33.3415 32.7493 34.0026 33.3521C34.6637 32.7493 35.5241 31.9813 36.5839 31.0479C37.6436 30.1146 38.6741 29.1132 39.6755 28.0438C40.6769 26.9743 41.5373 25.8708 42.2568 24.7333C42.9762 23.5958 43.3359 22.5215 43.3359 21.5104C43.3359 20.3438 42.9471 19.3715 42.1693 18.5938C41.3915 17.816 40.4193 17.4271 39.2526 17.4271C38.3387 17.4271 37.5609 17.6361 36.9193 18.0542C36.2776 18.4722 35.6748 19.0799 35.1109 19.8771C34.9748 20.0715 34.8096 20.2174 34.6151 20.3146C34.4207 20.4118 34.2165 20.4604 34.0026 20.4604C33.7887 20.4604 33.5845 20.4118 33.3901 20.3146C33.1957 20.2174 33.0304 20.0715 32.8943 19.8771Z" fill="#6F6F6F"/>
</g>
<path d="M66.544 18.97V31.102H64.15V18.97H66.544ZM63.106 27.25L62.008 29.104C60.118 28.582 58.822 27.484 58.048 26.098C57.31 27.61 55.978 28.816 54.052 29.374L52.936 27.52C55.636 26.728 56.824 24.784 56.824 22.84V22.75H53.476V20.878H56.824V19.06H59.2V20.878H62.53V22.75H59.2V22.84C59.2 24.658 60.406 26.512 63.106 27.25ZM57.886 33.37H66.958V35.26H55.51V30.04H57.886V33.37ZM79.0346 20.788V22.66H69.2786V20.788H72.9866V19.042H75.3626V20.788H79.0346ZM72.3746 26.422C72.3746 27.304 73.0946 27.772 74.1746 27.772C75.2546 27.772 75.9746 27.304 75.9746 26.422C75.9746 25.576 75.2546 25.108 74.1746 25.108C73.0946 25.108 72.3746 25.576 72.3746 26.422ZM75.3626 29.428V30.742C76.6406 30.67 77.9186 30.58 79.1066 30.4L79.2866 32.11C75.7946 32.794 72.0686 32.794 69.2606 32.794L68.9726 30.868C70.1606 30.868 71.5286 30.868 72.9866 30.832V29.428C71.2586 29.068 70.1246 27.952 70.1246 26.422C70.1246 24.568 71.7986 23.308 74.1746 23.308C76.5506 23.308 78.2246 24.568 78.2246 26.422C78.2246 27.952 77.0906 29.068 75.3626 29.428ZM84.3986 25.72V27.682H82.3286V35.548H79.9526V18.97H82.3286V25.72H84.3986ZM93.9912 26.476L94.2252 28.366C92.2992 28.726 90.5892 28.78 87.4392 28.78H86.1612V23.38H91.0572V21.814H86.1432V19.906H93.3972V25.144H88.5192V26.872C90.8952 26.854 92.3532 26.782 93.9912 26.476ZM88.0512 31.822V29.932H99.3912V35.566H97.0152V31.822H88.0512ZM97.0152 18.988L99.3912 18.97V29.194H97.0152V26.692H94.3512V24.802H97.0152V23.164H94.3512V21.256H97.0152V18.988Z" fill="#6F6F6F"/>
</g>
<defs>
<filter id="filter0_bd_20_1184" x="-8" y="-12" width="142" height="76" filterUnits="userSpaceOnUse" color-interpolation-filters="sRGB">
<feFlood flood-opacity="0" result="BackgroundImageFix"/>
<feGaussianBlur in="BackgroundImageFix" stdDeviation="8"/>
<feComposite in2="SourceAlpha" operator="in" result="effect1_backgroundBlur_20_1184"/>
<feColorMatrix in="SourceAlpha" type="matrix" values="0 0 0 0 0 0 0 0 0 0 0 0 0 0 0 0 0 0 127 0" result="hardAlpha"/>
<feOffset dy="4"/>
<feGaussianBlur stdDeviation="4"/>
<feComposite in2="hardAlpha" operator="out"/>
<feColorMatrix type="matrix" values="0 0 0 0 0 0 0 0 0 0 0 0 0 0 0 0 0 0 0.25 0"/>
<feBlend mode="normal" in2="effect1_backgroundBlur_20_1184" result="effect2_dropShadow_20_1184"/>
<feBlend mode="normal" in="SourceGraphic" in2="effect2_dropShadow_20_1184" result="shape"/>
</filter>
</defs>
</svg>
