<svg width="110" height="44" viewBox="0 0 110 44" fill="none" xmlns="http://www.w3.org/2000/svg">
<mask id="path-1-inside-1_20_1184" fill="white">
<path d="M0 4C0 1.79086 1.79086 0 4 0H106C108.209 0 110 1.79086 110 4V40C110 42.2091 108.209 44 106 44H4C1.79086 44 0 42.2091 0 40V4Z"/>
</mask>
<path d="M0 4C0 1.79086 1.79086 0 4 0H106C108.209 0 110 1.79086 110 4V40C110 42.2091 108.209 44 106 44H4C1.79086 44 0 42.2091 0 40V4Z" fill="#212121" fill-opacity="0.8"/>
<path d="M0 0H110H0ZM110 44H0H110ZM0 44V0V44ZM106 0C110.418 0 114 3.58172 114 8V36C114 40.4183 110.418 44 106 44C106 44 106 42.2091 106 40V4C106 1.79086 106 0 106 0Z" fill="#6F6F6F" mask="url(#path-1-inside-1_20_1184)"/>
<mask id="mask0_20_1184" style="mask-type:alpha" maskUnits="userSpaceOnUse" x="12" y="8" width="28" height="28">
<rect x="12" y="8" width="28" height="28" fill="#D9D9D9"/>
</mask>
<g mask="url(#mask0_20_1184)">
<path d="M26.0026 31.7146C25.7304 31.7146 25.4533 31.666 25.1714 31.5688C24.8894 31.4715 24.6415 31.316 24.4276 31.1021L22.4151 29.2646C20.354 27.3785 18.4922 25.5069 16.8297 23.65C15.1672 21.7931 14.3359 19.7465 14.3359 17.5104C14.3359 15.6826 14.9484 14.1563 16.1734 12.9313C17.3984 11.7063 18.9248 11.0938 20.7526 11.0938C21.7832 11.0938 22.7554 11.3125 23.6693 11.75C24.5832 12.1875 25.3609 12.7854 26.0026 13.5438C26.6443 12.7854 27.422 12.1875 28.3359 11.75C29.2498 11.3125 30.222 11.0938 31.2526 11.0938C33.0804 11.0938 34.6068 11.7063 35.8318 12.9313C37.0568 14.1563 37.6693 15.6826 37.6693 17.5104C37.6693 19.7465 36.8429 21.7979 35.1901 23.6646C33.5373 25.5313 31.6609 27.4076 29.5609 29.2938L27.5776 31.1021C27.3637 31.316 27.1158 31.4715 26.8339 31.5688C26.5519 31.666 26.2748 31.7146 26.0026 31.7146ZM24.8943 15.8771C24.3304 15.0799 23.7276 14.4722 23.0859 14.0542C22.4443 13.6361 21.6665 13.4271 20.7526 13.4271C19.5859 13.4271 18.6137 13.816 17.8359 14.5938C17.0582 15.3715 16.6693 16.3438 16.6693 17.5104C16.6693 18.5215 17.029 19.5958 17.7484 20.7333C18.4679 21.8708 19.3283 22.9743 20.3297 24.0438C21.3311 25.1132 22.3616 26.1146 23.4214 27.0479C24.4811 27.9813 25.3415 28.7493 26.0026 29.3521C26.6637 28.7493 27.5241 27.9813 28.5839 27.0479C29.6436 26.1146 30.6741 25.1132 31.6755 24.0438C32.6769 22.9743 33.5373 21.8708 34.2568 20.7333C34.9762 19.5958 35.3359 18.5215 35.3359 17.5104C35.3359 16.3438 34.9471 15.3715 34.1693 14.5938C33.3915 13.816 32.4193 13.4271 31.2526 13.4271C30.3387 13.4271 29.5609 13.6361 28.9193 14.0542C28.2776 14.4722 27.6748 15.0799 27.1109 15.8771C26.9748 16.0715 26.8096 16.2174 26.6151 16.3146C26.4207 16.4118 26.2165 16.4604 26.0026 16.4604C25.7887 16.4604 25.5845 16.4118 25.3901 16.3146C25.1957 16.2174 25.0304 16.0715 24.8943 15.8771Z" fill="#6F6F6F"/>
</g>
<path d="M58.544 14.97V27.102H56.15V14.97H58.544ZM55.106 23.25L54.008 25.104C52.118 24.582 50.822 23.484 50.048 22.098C49.31 23.61 47.978 24.816 46.052 25.374L44.936 23.52C47.636 22.728 48.824 20.784 48.824 18.84V18.75H45.476V16.878H48.824V15.06H51.2V16.878H54.53V18.75H51.2V18.84C51.2 20.658 52.406 22.512 55.106 23.25ZM49.886 29.37H58.958V31.26H47.51V26.04H49.886V29.37ZM71.0346 16.788V18.66H61.2786V16.788H64.9866V15.042H67.3626V16.788H71.0346ZM64.3746 22.422C64.3746 23.304 65.0946 23.772 66.1746 23.772C67.2546 23.772 67.9746 23.304 67.9746 22.422C67.9746 21.576 67.2546 21.108 66.1746 21.108C65.0946 21.108 64.3746 21.576 64.3746 22.422ZM67.3626 25.428V26.742C68.6406 26.67 69.9186 26.58 71.1066 26.4L71.2866 28.11C67.7946 28.794 64.0686 28.794 61.2606 28.794L60.9726 26.868C62.1606 26.868 63.5286 26.868 64.9866 26.832V25.428C63.2586 25.068 62.1246 23.952 62.1246 22.422C62.1246 20.568 63.7986 19.308 66.1746 19.308C68.5506 19.308 70.2246 20.568 70.2246 22.422C70.2246 23.952 69.0906 25.068 67.3626 25.428ZM76.3986 21.72V23.682H74.3286V31.548H71.9526V14.97H74.3286V21.72H76.3986ZM85.9912 22.476L86.2252 24.366C84.2992 24.726 82.5892 24.78 79.4392 24.78H78.1612V19.38H83.0572V17.814H78.1432V15.906H85.3972V21.144H80.5192V22.872C82.8952 22.854 84.3532 22.782 85.9912 22.476ZM80.0512 27.822V25.932H91.3912V31.566H89.0152V27.822H80.0512ZM89.0152 14.988L91.3912 14.97V25.194H89.0152V22.692H86.3512V20.802H89.0152V19.164H86.3512V17.256H89.0152V14.988Z" fill="#6F6F6F"/>
</svg>

