<svg width="88" height="28" viewBox="0 0 88 28" fill="none" xmlns="http://www.w3.org/2000/svg">
<mask id="mask0_73_1196" style="mask-type:alpha" maskUnits="userSpaceOnUse" x="0" y="0" width="28" height="28">
<rect width="28" height="28" fill="#D9D9D9"/>
</mask>
<g mask="url(#mask0_73_1196)">
<path d="M14.0026 23.7146C13.7304 23.7146 13.4533 23.666 13.1714 23.5688C12.8894 23.4715 12.6415 23.316 12.4276 23.1021L10.4151 21.2646C8.35399 19.3785 6.49219 17.5069 4.82969 15.65C3.16719 13.7931 2.33594 11.7465 2.33594 9.51042C2.33594 7.68264 2.94844 6.15625 4.17344 4.93125C5.39844 3.70625 6.92483 3.09375 8.7526 3.09375C9.78316 3.09375 10.7554 3.3125 11.6693 3.75C12.5832 4.1875 13.3609 4.78542 14.0026 5.54375C14.6443 4.78542 15.422 4.1875 16.3359 3.75C17.2498 3.3125 18.222 3.09375 19.2526 3.09375C21.0804 3.09375 22.6068 3.70625 23.8318 4.93125C25.0568 6.15625 25.6693 7.68264 25.6693 9.51042C25.6693 11.7465 24.8429 13.7979 23.1901 15.6646C21.5373 17.5313 19.6609 19.4076 17.5609 21.2938L15.5776 23.1021C15.3637 23.316 15.1158 23.4715 14.8339 23.5688C14.5519 23.666 14.2748 23.7146 14.0026 23.7146Z" fill="#F0485A"/>
</g>
<path d="M48.16 6.3V19.78H45.5V6.3H48.16ZM44.34 15.5L43.12 17.56C41.02 16.98 39.58 15.76 38.72 14.22C37.9 15.9 36.42 17.24 34.28 17.86L33.04 15.8C36.04 14.92 37.36 12.76 37.36 10.6V10.5H33.64V8.42H37.36V6.4H40V8.42H43.7V10.5H40V10.6C40 12.62 41.34 14.68 44.34 15.5ZM38.54 22.3H48.62V24.4H35.9V18.6H38.54V22.3ZM62.2384 8.32V10.4H51.3984V8.32H55.5184V6.38H58.1584V8.32H62.2384ZM54.8384 14.58C54.8384 15.56 55.6384 16.08 56.8384 16.08C58.0384 16.08 58.8384 15.56 58.8384 14.58C58.8384 13.64 58.0384 13.12 56.8384 13.12C55.6384 13.12 54.8384 13.64 54.8384 14.58ZM58.1584 17.92V19.38C59.5784 19.3 60.9984 19.2 62.3184 19L62.5184 20.9C58.6384 21.66 54.4984 21.66 51.3784 21.66L51.0584 19.52C52.3784 19.52 53.8984 19.52 55.5184 19.48V17.92C53.5984 17.52 52.3384 16.28 52.3384 14.58C52.3384 12.52 54.1984 11.12 56.8384 11.12C59.4784 11.12 61.3384 12.52 61.3384 14.58C61.3384 16.28 60.0784 17.52 58.1584 17.92ZM68.1984 13.8V15.98H65.8984V24.72H63.2584V6.3H65.8984V13.8H68.1984ZM79.0569 14.64L79.3169 16.74C77.1769 17.14 75.2769 17.2 71.7769 17.2H70.3569V11.2H75.7969V9.46H70.3369V7.34H78.3969V13.16H72.9769V15.08C75.6169 15.06 77.2369 14.98 79.0569 14.64ZM72.4569 20.58V18.48H85.0569V24.74H82.4169V20.58H72.4569ZM82.4169 6.32L85.0569 6.3V17.66H82.4169V14.88H79.4569V12.78H82.4169V10.96H79.4569V8.84H82.4169V6.32Z" fill="#F0485A"/>
</svg>
