<svg width="28" height="28" viewBox="0 0 28 28" fill="none" xmlns="http://www.w3.org/2000/svg">
<mask id="mask0_97_1744" style="mask-type:alpha" maskUnits="userSpaceOnUse" x="0" y="0" width="28" height="28">
<rect width="28" height="28" fill="#D9D9D9"/>
</mask>
<g mask="url(#mask0_97_1744)">
<path d="M14.0026 23.7146C13.7304 23.7146 13.4533 23.666 13.1714 23.5688C12.8894 23.4715 12.6415 23.316 12.4276 23.1021L10.4151 21.2646C8.35399 19.3785 6.49219 17.5069 4.82969 15.65C3.16719 13.7931 2.33594 11.7465 2.33594 9.51042C2.33594 7.68264 2.94844 6.15625 4.17344 4.93125C5.39844 3.70625 6.92483 3.09375 8.7526 3.09375C9.78316 3.09375 10.7554 3.3125 11.6693 3.75C12.5832 4.1875 13.3609 4.78542 14.0026 5.54375C14.6443 4.78542 15.422 4.1875 16.3359 3.75C17.2498 3.3125 18.222 3.09375 19.2526 3.09375C21.0804 3.09375 22.6068 3.70625 23.8318 4.93125C25.0568 6.15625 25.6693 7.68264 25.6693 9.51042C25.6693 11.7465 24.8429 13.7979 23.1901 15.6646C21.5373 17.5313 19.6609 19.4076 17.5609 21.2938L15.5776 23.1021C15.3637 23.316 15.1158 23.4715 14.8339 23.5688C14.5519 23.666 14.2748 23.7146 14.0026 23.7146Z" fill="#F0485A"/>
</g>
</svg>
