<svg width="460" height="56" viewBox="0 0 460 56" fill="none" xmlns="http://www.w3.org/2000/svg">
<rect width="460" height="56" rx="12" fill="#131314"/>
<path d="M189.448 21.906H199.906V23.796H189.448V21.906ZM187.738 28.998H202.804V30.924H187.738V28.998ZM193.984 30.348H196.396V37.62H193.984V30.348ZM198.682 21.906H201.04V23.382C201.04 25.182 201.04 27.198 200.392 30.15L198.034 29.88C198.682 27.09 198.682 25.11 198.682 23.382V21.906ZM206.133 21.6H216.699V23.49H206.133V21.6ZM204.297 26.802H219.381V28.692H204.297V26.802ZM215.259 21.6H217.617V22.734C217.617 23.922 217.617 25.434 217.185 27.36L214.827 27.144C215.259 25.254 215.259 23.904 215.259 22.734V21.6ZM205.971 29.826H217.563V34.524H208.383V36.216H205.989V32.76H215.187V31.68H205.971V29.826ZM205.989 35.64H217.995V37.494H205.989V35.64ZM220.855 33.822H235.939V35.766H220.855V33.822ZM227.173 30.672H229.567V34.614H227.173V30.672ZM222.547 22.014H234.247V27.558H224.959V30.366H222.583V25.686H231.871V23.904H222.547V22.014ZM222.583 29.412H234.625V31.338H222.583V29.412ZM241.492 33.822H256.576V35.766H241.492V33.822ZM247.81 30.672H250.204V34.614H247.81V30.672ZM243.184 22.014H254.884V27.558H245.596V30.366H243.22V25.686H252.508V23.904H243.184V22.014ZM243.22 29.412H255.262V31.338H243.22V29.412ZM259.581 22.464H270.147V24.354H259.581V22.464ZM258.051 33.48H273.117V35.424H258.051V33.48ZM268.887 22.464H271.263V24.444C271.263 26.784 271.263 29.052 270.669 32.472L268.275 32.274C268.887 29.07 268.887 26.694 268.887 24.444V22.464ZM286.039 20.952H288.451V32.922H286.039V20.952ZM277.345 35.406H288.865V37.314H277.345V35.406ZM277.345 31.716H279.739V36.18H277.345V31.716ZM279.379 21.996C281.935 21.996 283.897 23.76 283.897 26.226C283.897 28.674 281.935 30.456 279.379 30.456C276.823 30.456 274.843 28.674 274.843 26.226C274.843 23.76 276.823 21.996 279.379 21.996ZM279.379 24.066C278.137 24.066 277.183 24.858 277.183 26.226C277.183 27.576 278.137 28.368 279.379 28.368C280.603 28.368 281.557 27.576 281.557 26.226C281.557 24.858 280.603 24.066 279.379 24.066Z" fill="#E3E3E3"/>
<mask id="mask0_2_76" style="mask-type:luminance" maskUnits="userSpaceOnUse" x="16" y="18" width="20" height="20">
<path d="M36 18H16V38H36V18Z" fill="white"/>
</mask>
<g mask="url(#mask0_2_76)">
<path d="M35.6 28.2273C35.6 27.5182 35.5364 26.8364 35.4182 26.1818H26V30.05H31.3818C31.15 31.3 30.4455 32.3591 29.3864 33.0682V35.5773H32.6182C34.5091 33.8364 35.6 31.2727 35.6 28.2273Z" fill="#4285F4"/>
<path d="M26.0009 38.0004C28.7009 38.0004 30.9645 37.1049 32.619 35.5777L29.3872 33.0686C28.4918 33.6686 27.3463 34.0231 26.0009 34.0231C23.3963 34.0231 21.1918 32.264 20.4054 29.9004H17.0645V32.4913C18.71 35.7595 22.0918 38.0004 26.0009 38.0004Z" fill="#34A853"/>
<path d="M20.4045 29.8997C20.2045 29.2997 20.0909 28.6588 20.0909 27.9997C20.0909 27.3406 20.2045 26.6997 20.4045 26.0997V23.5088H17.0636C16.3864 24.8588 16 26.3861 16 27.9997C16 29.6133 16.3864 31.1406 17.0636 32.4906L20.4045 29.8997Z" fill="#FBBC04"/>
<path d="M26.0009 21.9773C27.469 21.9773 28.7872 22.4818 29.8236 23.4727L32.6918 20.6045C30.96 18.9909 28.6963 18 26.0009 18C22.0918 18 18.71 20.2409 17.0645 23.5091L20.4054 26.1C21.1918 23.7364 23.3963 21.9773 26.0009 21.9773Z" fill="#E94235"/>
</g>
</svg>
