<svg width="460" height="82" viewBox="0 0 460 82" fill="none" xmlns="http://www.w3.org/2000/svg">
<rect width="460" height="82" rx="12" fill="#212121"/>
<path d="M26.816 21.608H28.96V29.192H26.816V21.608ZM19.072 29.784H28.96V33.768H21.184V35.32H19.104V32.28H26.848V31.4H19.072V29.784ZM19.104 34.696H29.328V36.328H19.104V34.696ZM20.24 23.016H21.968V23.592C21.968 26.216 20.576 28.552 17.68 29.368L16.704 27.704C19.168 27.016 20.24 25.288 20.24 23.592V23.016ZM20.704 23.016H22.416V23.592C22.416 25.16 23.472 26.776 25.888 27.432L24.912 29.064C22.064 28.296 20.704 26.072 20.704 23.592V23.016ZM17.264 22.28H25.328V23.96H17.264V22.28ZM31.3588 28.92H44.7668V30.616H31.3588V28.92ZM37.1668 29.992H39.3108V33.112H37.1668V29.992ZM33.0068 22.232H43.0708V27.736H33.0068V22.232ZM40.9748 23.896H35.0868V26.072H40.9748V23.896ZM32.9108 34.472H43.2948V36.168H32.9108V34.472ZM32.9108 31.864H35.0228V35.032H32.9108V31.864ZM49.6455 23.944H51.3415V25.608C51.3415 29.032 49.9495 32.376 47.1655 33.64L45.9655 31.96C48.4455 30.856 49.6455 28.12 49.6455 25.608V23.944ZM50.1255 23.944H51.8055V25.608C51.8055 28.008 52.9895 30.568 55.4695 31.592L54.3175 33.272C51.5015 32.056 50.1255 28.904 50.1255 25.608V23.944ZM46.5575 23.032H54.8615V24.776H46.5575V23.032ZM56.2375 21.608H58.3815V36.424H56.2375V21.608ZM60.7963 28.248H74.2203V29.8H60.7963V28.248ZM62.3003 30.536H72.6203V34.056H64.4443V35.32H62.3323V32.712H70.5243V31.976H62.3003V30.536ZM62.3323 34.872H73.0363V36.312H62.3323V34.872ZM62.4443 21.864H72.5883V25.352H64.5723V26.568H62.4603V24.024H70.4923V23.288H62.4443V21.864ZM62.4603 26.12H72.8603V27.56H62.4603V26.12ZM81.812 22.504H83.476V24.216C83.476 26.728 82.468 29.24 80.052 30.264L78.932 28.616C80.996 27.704 81.812 25.88 81.812 24.216V22.504ZM82.196 22.504H83.86V24.216C83.86 25.8 84.66 27.4 86.612 28.168L85.476 29.784C83.172 28.872 82.196 26.632 82.196 24.216V22.504ZM89.748 21.624H91.764V30.664H89.748V21.624ZM87.972 25.208H90.324V26.92H87.972V25.208ZM86.612 21.896H88.596V30.2H86.612V21.896ZM86.74 30.872C89.844 30.872 91.844 31.912 91.844 33.656C91.844 35.384 89.844 36.424 86.74 36.424C83.62 36.424 81.652 35.384 81.652 33.656C81.652 31.912 83.62 30.872 86.74 30.872ZM86.74 32.472C84.836 32.472 83.764 32.872 83.764 33.656C83.764 34.44 84.836 34.824 86.74 34.824C88.644 34.824 89.7 34.44 89.7 33.656C89.7 32.872 88.644 32.472 86.74 32.472ZM97.2988 22.376H99.0748V23.704C99.0748 26.68 97.7468 29.288 94.8348 30.264L93.7308 28.552C96.2588 27.736 97.2988 25.736 97.2988 23.704V22.376ZM97.7468 22.376H99.4588V23.608C99.4588 25.576 100.419 27.4 102.771 28.152L101.667 29.816C98.9308 28.872 97.7468 26.488 97.7468 23.608V22.376ZM104.131 21.608H106.259V30.28H104.131V21.608ZM101.235 30.664C104.371 30.664 106.307 31.736 106.307 33.544C106.307 35.368 104.371 36.424 101.235 36.424C98.0988 36.424 96.1628 35.368 96.1628 33.544C96.1628 31.736 98.0988 30.664 101.235 30.664ZM101.235 32.312C99.3148 32.312 98.2908 32.712 98.2908 33.544C98.2908 34.376 99.3148 34.792 101.235 34.792C103.171 34.792 104.195 34.376 104.195 33.544C104.195 32.712 103.171 32.312 101.235 32.312ZM101.427 24.296H104.435V26.024H101.427V24.296ZM118.082 21.608H120.194V36.424H118.082V21.608ZM119.714 27.384H122.338V29.16H119.714V27.384ZM108.514 23.8H117.138V25.496H108.514V23.8ZM112.85 26.328C115.01 26.328 116.61 27.8 116.61 29.864C116.61 31.928 115.01 33.4 112.85 33.4C110.69 33.4 109.09 31.928 109.09 29.864C109.09 27.8 110.69 26.328 112.85 26.328ZM112.85 28.056C111.842 28.056 111.122 28.728 111.122 29.864C111.122 31 111.842 31.672 112.85 31.672C113.858 31.672 114.578 31 114.578 29.864C114.578 28.728 113.858 28.056 112.85 28.056ZM111.778 21.848H113.906V24.44H111.778V21.848ZM124.672 22.856H134.064V24.568H124.672V22.856ZM123.312 32.92H136.704V34.648H123.312V32.92ZM128.048 27.832H130.176V33.768H128.048V27.832ZM133.296 22.856H135.424V24.28C135.424 26.136 135.424 28.216 134.832 31.384L132.704 31.144C133.296 28.2 133.296 26.056 133.296 24.28V22.856ZM151.848 21.592H153.976V36.456H151.848V21.592ZM142.44 31.272H143.752C146.376 31.272 148.472 31.176 150.824 30.776L151.032 32.488C148.632 32.92 146.456 33 143.752 33H142.44V31.272ZM142.424 22.856H149.416V28.584H144.6V31.912H142.44V26.904H147.24V24.552H142.424V22.856ZM159.351 30.264H161.495V36.424H159.351V30.264ZM164.647 30.264H166.791V36.424H164.647V30.264ZM156.359 30.008H169.783V31.704H156.359V30.008ZM157.895 22.152H160.007V23.768H166.087V22.152H168.199V28.616H157.895V22.152ZM160.007 25.448V26.904H166.087V25.448H160.007ZM171.078 28.248H184.502V29.8H171.078V28.248ZM172.582 30.536H182.902V34.056H174.726V35.32H172.614V32.712H180.806V31.976H172.582V30.536ZM172.614 34.872H183.318V36.312H172.614V34.872ZM172.726 21.864H182.87V25.352H174.854V26.568H172.742V24.024H180.774V23.288H172.726V21.864ZM172.742 26.12H183.142V27.56H172.742V26.12ZM198.957 21.608H201.085V30.248H198.957V21.608ZM200.493 24.968H203.053V26.712H200.493V24.968ZM189.853 22.472H191.965V24.344H194.861V22.472H196.973V29.528H189.853V22.472ZM191.965 25.976V27.864H194.861V25.976H191.965ZM191.453 30.904H201.165V32.584H193.581V35.768H191.453V30.904ZM191.453 34.568H201.453V36.248H191.453V34.568ZM208.108 22.632C210.364 22.632 211.996 24.68 211.996 27.912C211.996 31.176 210.364 33.224 208.108 33.224C205.852 33.224 204.22 31.176 204.22 27.912C204.22 24.68 205.852 22.632 208.108 22.632ZM208.108 24.568C207.004 24.568 206.268 25.736 206.268 27.912C206.268 30.12 207.004 31.304 208.108 31.304C209.212 31.304 209.964 30.12 209.964 27.912C209.964 25.736 209.212 24.568 208.108 24.568ZM213.612 21.608H215.756V36.424H213.612V21.608ZM215.276 27.192H217.9V28.952H215.276V27.192ZM219.563 22.792H221.675V24.6H224.923V22.792H227.035V29.608H219.563V22.792ZM221.675 26.232V27.928H224.923V26.232H221.675ZM222.251 29.144H224.379V32.344H222.251V29.144ZM228.427 21.608H230.555V36.424H228.427V21.608ZM229.899 27.528H232.507V29.288H229.899V27.528ZM218.955 33.656L218.699 31.928C221.259 31.928 224.715 31.944 227.659 31.544L227.819 33.08C224.747 33.656 221.451 33.672 218.955 33.656ZM236.538 29.128H238.65V33.288H236.538V29.128ZM241.914 29.128H244.042V33.288H241.914V29.128ZM233.594 32.984H247.002V34.712H233.594V32.984ZM240.282 22.328C243.466 22.328 245.818 23.896 245.818 26.312C245.818 28.728 243.466 30.28 240.282 30.28C237.082 30.28 234.746 28.728 234.746 26.312C234.746 23.896 237.082 22.328 240.282 22.328ZM240.282 23.992C238.218 23.992 236.842 24.84 236.842 26.312C236.842 27.768 238.218 28.632 240.282 28.632C242.345 28.632 243.722 27.768 243.722 26.312C243.722 24.84 242.345 23.992 240.282 23.992ZM253.873 29.16C253.025 29.16 252.417 28.504 252.417 27.624C252.417 26.76 253.025 26.104 253.873 26.104C254.705 26.104 255.345 26.76 255.345 27.624C255.345 28.504 254.705 29.16 253.873 29.16ZM253.873 35.224C253.025 35.224 252.417 34.568 252.417 33.688C252.417 32.808 253.025 32.168 253.873 32.168C254.705 32.168 255.345 32.808 255.345 33.688C255.345 34.568 254.705 35.224 253.873 35.224ZM258.772 38.232L257.3 37.624C258.644 35.288 259.268 32.584 259.268 29.96C259.268 27.352 258.644 24.648 257.3 22.312L258.772 21.688C260.276 24.152 261.156 26.776 261.156 29.96C261.156 33.16 260.276 35.768 258.772 38.232Z" fill="#F7F7F7"/>
<path d="M27.312 46.784H28.64V54.272H27.312V46.784ZM19.296 54.976H28.656V58.448H20.624V60.512H19.328V57.488H27.344V56.032H19.296V54.976ZM19.328 60.032H29.136V61.088H19.328V60.032ZM20.64 48.064H21.728V48.816C21.728 51.376 20.064 53.488 17.616 54.304L16.992 53.264C19.152 52.56 20.64 50.784 20.64 48.816V48.064ZM20.912 48.064H22V48.816C22 50.656 23.504 52.32 25.648 52.976L25.024 54C22.592 53.248 20.912 51.248 20.912 48.816V48.064ZM17.344 47.6H25.264V48.672H17.344V47.6ZM31.5028 54.176H44.6068V55.264H31.5028V54.176ZM37.4868 54.848H38.8148V58.176H37.4868V54.848ZM33.1828 47.456H42.9108V52.544H33.1828V47.456ZM41.5988 48.528H34.4788V51.472H41.5988V48.528ZM33.1668 59.84H43.1508V60.928H33.1668V59.84ZM33.1668 56.784H34.4788V60.224H33.1668V56.784ZM50.0615 48.848H51.1335V51.2C51.1335 54.256 49.2935 57.328 46.9895 58.464L46.2215 57.408C48.3175 56.416 50.0615 53.696 50.0615 51.2V48.848ZM50.3175 48.848H51.3895V51.2C51.3895 53.648 53.1335 56.144 55.2615 57.056L54.5095 58.112C52.1735 57.024 50.3175 54.208 50.3175 51.2V48.848ZM46.7015 48.256H54.7815V49.376H46.7015V48.256ZM56.7335 46.784H58.0615V61.248H56.7335V46.784ZM75.0944 46.784H76.4224V54.16H75.0944V46.784ZM70.5184 47.488H71.9584C71.9584 51.136 69.4464 53.472 65.2224 54.496L64.7584 53.408C68.5024 52.544 70.5184 50.64 70.5184 48.144V47.488ZM65.5104 47.488H71.1264V48.576H65.5104V47.488ZM71.4464 48.864H75.3184V49.92H71.4464V48.864ZM71.3184 51.632H75.2384V52.672H71.3184V51.632ZM67.1104 54.832H76.4224V58.384H68.4704V60.688H67.1584V57.36H75.1104V55.904H67.1104V54.832ZM67.1584 60.048H76.9024V61.104H67.1584V60.048ZM79.8931 48.368H86.4371V49.44H79.8931V48.368ZM82.1491 52.496H83.4611V57.392H82.1491V52.496ZM85.8931 48.368H87.1891V49.136C87.1891 50.32 87.1891 52.208 86.7731 54.896L85.4611 54.768C85.8931 52.16 85.8931 50.304 85.8931 49.136V48.368ZM89.0131 46.784H90.3251V61.248H89.0131V46.784ZM89.9731 52.832H92.6451V53.952H89.9731V52.832ZM79.2531 58.096L79.0931 56.976C81.7171 56.976 85.2051 56.928 88.1331 56.56L88.1971 57.536C85.2051 58.016 81.8131 58.08 79.2531 58.096ZM99.8279 52.4H102.564V53.504H99.8279V52.4ZM104.98 46.784H106.26V61.248H104.98V46.784ZM102.116 47.088H103.38V60.528H102.116V47.088ZM97.2199 47.984C99.0919 47.984 100.308 49.92 100.308 53.024C100.308 56.128 99.0919 58.064 97.2199 58.064C95.3479 58.064 94.1479 56.128 94.1479 53.024C94.1479 49.92 95.3479 47.984 97.2199 47.984ZM97.2199 49.216C96.0839 49.216 95.3639 50.688 95.3639 53.024C95.3639 55.36 96.0839 56.832 97.2199 56.832C98.3719 56.832 99.0919 55.36 99.0919 53.024C99.0919 50.688 98.3719 49.216 97.2199 49.216ZM122.285 46.768H123.613V61.264H122.285V46.768ZM123.021 52.464H125.693V53.568H123.021V52.464ZM112.685 56.352H113.325C114.141 56.352 115.229 56.336 116.477 56.048L116.605 57.152C115.277 57.456 114.205 57.472 113.325 57.472H112.685V56.352ZM112.685 48.304H116.333V49.376H113.997V56.896H112.685V48.304ZM117.149 56.352H117.853C119.261 56.352 120.269 56.32 121.437 56.016L121.565 57.12C120.333 57.424 119.341 57.472 117.853 57.472H117.149V56.352ZM117.149 48.304H120.989V49.376H118.461V56.912H117.149V48.304ZM136.78 46.768H138.108V61.264H136.78V46.768ZM137.788 52.528H140.476V53.648H137.788V52.528ZM127.564 56.672H128.716C131.436 56.672 133.324 56.576 135.516 56.16L135.66 57.264C133.404 57.664 131.484 57.776 128.716 57.776H127.564V56.672ZM127.532 48.128H134.076V53.312H128.876V57.12H127.564V52.224H132.764V49.216H127.532V48.128ZM148.922 51.68H152.954V52.768H148.922V51.68ZM145.434 48.032H146.522V50.608C146.522 53.856 144.81 56.96 142.522 58.192L141.674 57.136C143.802 56.08 145.434 53.296 145.434 50.608V48.032ZM145.69 48.032H146.762V50.608C146.762 53.248 148.394 55.872 150.49 56.864L149.706 57.936C147.37 56.752 145.69 53.776 145.69 50.608V48.032ZM152.298 46.768H153.61V61.264H152.298V46.768ZM169.891 46.784H171.219V55.44H169.891V46.784ZM170.851 50.512H173.363V51.632H170.851V50.512ZM165.891 47.84H167.315C167.315 51.552 164.739 54.256 160.563 55.488L160.003 54.416C163.683 53.328 165.891 51.152 165.891 48.448V47.84ZM160.643 47.84H166.643V48.944H160.643V47.84ZM166.691 55.616C169.555 55.616 171.379 56.672 171.379 58.416C171.379 60.16 169.555 61.216 166.691 61.216C163.811 61.216 161.971 60.16 161.971 58.416C161.971 56.672 163.811 55.616 166.691 55.616ZM166.691 56.672C164.611 56.672 163.283 57.328 163.283 58.416C163.283 59.504 164.611 60.16 166.691 60.16C168.771 60.16 170.099 59.504 170.099 58.416C170.099 57.328 168.771 56.672 166.691 56.672ZM185.538 48.976H188.05V50.096H185.538V48.976ZM185.538 52.08H188.05V53.184H185.538V52.08ZM184.61 46.784H185.938V55.376H184.61V46.784ZM176.546 56.064H185.938V61.248H184.61V57.136H176.546V56.064ZM178.754 47.632C180.93 47.632 182.53 49.04 182.53 51.072C182.53 53.088 180.93 54.48 178.754 54.48C176.578 54.48 174.978 53.088 174.978 51.072C174.978 49.04 176.578 47.632 178.754 47.632ZM178.754 48.768C177.314 48.768 176.274 49.696 176.274 51.072C176.274 52.432 177.314 53.376 178.754 53.376C180.194 53.376 181.234 52.432 181.234 51.072C181.234 49.696 180.194 48.768 178.754 48.768ZM197.153 50.4H200.369V51.504H197.153V50.4ZM200.001 46.784H201.329V55.248H200.001V46.784ZM191.953 55.952H201.329V61.056H191.953V55.952ZM200.033 57.008H193.249V59.984H200.033V57.008ZM193.121 48.16H194.209V49.328C194.209 51.968 192.577 54.224 190.161 55.12L189.473 54.064C191.633 53.296 193.121 51.376 193.121 49.328V48.16ZM193.377 48.16H194.449V49.312C194.449 51.184 195.857 52.992 197.953 53.728L197.281 54.784C194.929 53.936 193.377 51.744 193.377 49.312V48.16ZM189.889 47.712H197.617V48.784H189.889V47.712ZM210.687 47.024C213.871 47.024 215.775 47.92 215.775 49.536C215.775 51.152 213.871 52.048 210.687 52.048C207.487 52.048 205.599 51.152 205.599 49.536C205.599 47.92 207.487 47.024 210.687 47.024ZM210.687 48.032C208.319 48.032 206.959 48.576 206.959 49.536C206.959 50.496 208.319 51.04 210.687 51.04C213.039 51.04 214.399 50.496 214.399 49.536C214.399 48.576 213.039 48.032 210.687 48.032ZM204.143 53.008H217.215V54.08H204.143V53.008ZM205.727 55.312H215.551V58.576H207.071V60.336H205.759V57.616H214.239V56.336H205.727V55.312ZM205.759 60.048H215.983V61.088H205.759V60.048ZM222.456 58.304H235.56V59.408H222.456V58.304ZM228.312 54.56H229.64V58.608H228.312V54.56ZM223.976 47.984H233.96V54.8H223.976V47.984ZM232.68 49.056H225.272V53.728H232.68V49.056ZM241.015 47.888C243.143 47.888 244.647 49.856 244.647 52.928C244.647 56.016 243.143 57.984 241.015 57.984C238.887 57.984 237.383 56.016 237.383 52.928C237.383 49.856 238.887 47.888 241.015 47.888ZM241.015 49.088C239.607 49.088 238.647 50.592 238.647 52.928C238.647 55.28 239.607 56.816 241.015 56.816C242.407 56.816 243.383 55.28 243.383 52.928C243.383 50.592 242.407 49.088 241.015 49.088ZM246.951 46.784H248.295V61.248H246.951V46.784ZM247.975 52.56H250.663V53.68H247.975V52.56ZM259.11 51.68H263.142V52.768H259.11V51.68ZM255.622 48.032H256.71V50.608C256.71 53.856 254.998 56.96 252.71 58.192L251.862 57.136C253.99 56.08 255.622 53.296 255.622 50.608V48.032ZM255.878 48.032H256.95V50.608C256.95 53.248 258.582 55.872 260.678 56.864L259.894 57.936C257.558 56.752 255.878 53.776 255.878 50.608V48.032ZM262.486 46.768H263.798V61.264H262.486V46.768ZM270.191 58.304H283.295V59.408H270.191V58.304ZM276.047 54.848H277.375V58.624H276.047V54.848ZM271.727 47.808H273.039V50.384H280.415V47.808H281.727V55.2H271.727V47.808ZM273.039 51.456V54.112H280.415V51.456H273.039ZM291.421 50H295.789V51.104H291.421V50ZM291.421 54.576H295.789V55.68H291.421V54.576ZM288.765 47.888C290.861 47.888 292.365 49.856 292.365 52.928C292.365 56.016 290.861 57.984 288.765 57.984C286.653 57.984 285.165 56.016 285.165 52.928C285.165 49.856 286.653 47.888 288.765 47.888ZM288.765 49.088C287.373 49.088 286.413 50.592 286.413 52.928C286.413 55.28 287.373 56.816 288.765 56.816C290.157 56.816 291.117 55.28 291.117 52.928C291.117 50.592 290.157 49.088 288.765 49.088ZM295.501 46.768H296.813V61.264H295.501V46.768ZM301.276 53.712H311.212V54.8H301.276V53.712ZM299.628 58.192H312.732V59.296H299.628V58.192ZM301.276 48.112H311.068V49.216H302.604V54.192H301.276V48.112ZM324.907 46.768H326.235V61.264H324.907V46.768ZM322.059 50.08H325.259V51.168H322.059V50.08ZM314.875 56.784H315.947C318.187 56.784 320.027 56.72 322.235 56.368L322.363 57.472C320.091 57.824 318.235 57.904 315.947 57.904H314.875V56.784ZM314.843 48.08H321.163V53.264H316.187V57.04H314.875V52.176H319.851V49.184H314.843V48.08ZM321.963 54.032H325.163V55.12H321.963V54.032ZM332.266 54.224H333.578V58.56H332.266V54.224ZM337.61 54.224H338.938V58.56H337.61V54.224ZM329.066 58.304H342.17V59.408H329.066V58.304ZM335.594 47.696C338.65 47.696 340.842 49.152 340.842 51.424C340.842 53.68 338.65 55.136 335.594 55.136C332.522 55.136 330.33 53.68 330.33 51.424C330.33 49.152 332.522 47.696 335.594 47.696ZM335.594 48.752C333.274 48.752 331.61 49.808 331.61 51.424C331.61 53.024 333.274 54.08 335.594 54.08C337.914 54.08 339.562 53.024 339.562 51.424C339.562 49.808 337.914 48.752 335.594 48.752Z" fill="#C1C1C1"/>
<path d="M417 35.68H441V11.68H417V35.68Z" fill="black"/>
</svg>
