<svg width="110" height="44" viewBox="0 0 110 44" fill="none" xmlns="http://www.w3.org/2000/svg">
<mask id="path-1-inside-1_20_1163" fill="white">
<path d="M0 4C0 1.79086 1.79086 0 4 0H106C108.209 0 110 1.79086 110 4V40C110 42.2091 108.209 44 106 44H4C1.79086 44 0 42.2091 0 40V4Z"/>
</mask>
<path d="M0 4C0 1.79086 1.79086 0 4 0H106C108.209 0 110 1.79086 110 4V40C110 42.2091 108.209 44 106 44H4C1.79086 44 0 42.2091 0 40V4Z" fill="#212121" fill-opacity="0.8"/>
<path d="M0 0H110H0ZM110 44H0H110ZM0 44V0V44ZM106 0C110.418 0 114 3.58172 114 8V36C114 40.4183 110.418 44 106 44C106 44 106 42.2091 106 40V4C106 1.79086 106 0 106 0Z" fill="#6F6F6F" mask="url(#path-1-inside-1_20_1163)"/>
<mask id="mask0_20_1163" style="mask-type:alpha" maskUnits="userSpaceOnUse" x="12" y="8" width="28" height="28">
<rect x="12" y="8" width="28" height="28" fill="#D9D9D9"/>
</mask>
<g mask="url(#mask0_20_1163)">
<path d="M23.375 32.5C22.3833 32.5 21.5278 32.1549 20.8083 31.4646C20.0889 30.7743 19.6806 29.9431 19.5833 28.9708C18.4167 28.8153 17.4444 28.3 16.6667 27.425C15.8889 26.55 15.5 25.5194 15.5 24.3333C15.5 23.925 15.5535 23.5215 15.6604 23.1229C15.7674 22.7243 15.9278 22.35 16.1417 22C15.9278 21.65 15.7674 21.2806 15.6604 20.8917C15.5535 20.5028 15.5 20.0944 15.5 19.6667C15.5 18.4806 15.8889 17.4549 16.6667 16.5896C17.4444 15.7243 18.4069 15.2139 19.5542 15.0583C19.6125 14.0667 20.0111 13.2257 20.75 12.5354C21.4889 11.8451 22.3639 11.5 23.375 11.5C23.8806 11.5 24.3521 11.5972 24.7896 11.7917C25.2271 11.9861 25.6306 12.2486 26 12.5792C26.35 12.2486 26.7486 11.9861 27.1958 11.7917C27.6431 11.5972 28.1194 11.5 28.625 11.5C29.6361 11.5 30.5062 11.8403 31.2354 12.5208C31.9646 13.2014 32.3583 14.0375 32.4167 15.0292C33.5639 15.1847 34.5313 15.7 35.3188 16.575C36.1063 17.45 36.5 18.4806 36.5 19.6667C36.5 20.0944 36.4465 20.5028 36.3396 20.8917C36.2326 21.2806 36.0722 21.65 35.8583 22C36.0722 22.35 36.2326 22.7243 36.3396 23.1229C36.4465 23.5215 36.5 23.925 36.5 24.3333C36.5 25.5389 36.1063 26.5743 35.3188 27.4396C34.5313 28.3049 33.5542 28.8153 32.3875 28.9708C32.2903 29.9431 31.8868 30.7743 31.1771 31.4646C30.4674 32.1549 29.6167 32.5 28.625 32.5C28.1389 32.5 27.6674 32.4076 27.2104 32.2229C26.7535 32.0382 26.35 31.7806 26 31.45C25.6306 31.7806 25.2222 32.0382 24.775 32.2229C24.3278 32.4076 23.8611 32.5 23.375 32.5ZM27.1667 15.2917V28.7083C27.1667 29.1167 27.3076 29.4618 27.5896 29.7437C27.8715 30.0257 28.2167 30.1667 28.625 30.1667C29.0139 30.1667 29.3493 30.0111 29.6312 29.7C29.9132 29.3889 30.0639 29.0389 30.0833 28.65C29.675 28.4944 29.3007 28.2854 28.9604 28.0229C28.6201 27.7604 28.3139 27.4444 28.0417 27.075C27.8472 26.8028 27.7743 26.5111 27.8229 26.2C27.8715 25.8889 28.0319 25.6361 28.3042 25.4417C28.5764 25.2472 28.8681 25.1743 29.1792 25.2229C29.4903 25.2715 29.7431 25.4319 29.9375 25.7042C30.1514 26.0153 30.4236 26.2535 30.7542 26.4187C31.0847 26.584 31.4444 26.6667 31.8333 26.6667C32.475 26.6667 33.0243 26.4382 33.4812 25.9812C33.9382 25.5243 34.1667 24.975 34.1667 24.3333C34.1667 24.2361 34.1618 24.1389 34.1521 24.0417C34.1424 23.9444 34.1181 23.8472 34.0792 23.75C33.7486 23.9444 33.3937 24.0903 33.0146 24.1875C32.6354 24.2847 32.2417 24.3333 31.8333 24.3333C31.5028 24.3333 31.2257 24.2215 31.0021 23.9979C30.7785 23.7743 30.6667 23.4972 30.6667 23.1667C30.6667 22.8361 30.7785 22.559 31.0021 22.3354C31.2257 22.1118 31.5028 22 31.8333 22C32.475 22 33.0243 21.7715 33.4812 21.3146C33.9382 20.8576 34.1667 20.3083 34.1667 19.6667C34.1667 19.025 33.9382 18.4806 33.4812 18.0333C33.0243 17.5861 32.475 17.3528 31.8333 17.3333C31.6194 17.6833 31.3424 17.9896 31.0021 18.2521C30.6618 18.5146 30.2875 18.7236 29.8792 18.8792C29.5681 18.9958 29.2667 18.9861 28.975 18.85C28.6833 18.7139 28.4889 18.4903 28.3917 18.1792C28.2944 17.8681 28.309 17.5667 28.4354 17.275C28.5618 16.9833 28.7806 16.7889 29.0917 16.6917C29.3833 16.5944 29.6215 16.4194 29.8062 16.1667C29.991 15.9139 30.0833 15.6222 30.0833 15.2917C30.0833 14.8833 29.9424 14.5382 29.6604 14.2562C29.3785 13.9743 29.0333 13.8333 28.625 13.8333C28.2167 13.8333 27.8715 13.9743 27.5896 14.2562C27.3076 14.5382 27.1667 14.8833 27.1667 15.2917ZM24.8333 28.7083V15.2917C24.8333 14.8833 24.6924 14.5382 24.4104 14.2562C24.1285 13.9743 23.7833 13.8333 23.375 13.8333C22.9667 13.8333 22.6215 13.9743 22.3396 14.2562C22.0576 14.5382 21.9167 14.8833 21.9167 15.2917C21.9167 15.6028 22.0042 15.8896 22.1792 16.1521C22.3542 16.4146 22.5875 16.5944 22.8792 16.6917C23.1903 16.7889 23.4139 16.9833 23.55 17.275C23.6861 17.5667 23.7056 17.8681 23.6083 18.1792C23.4917 18.4903 23.2875 18.7139 22.9958 18.85C22.7042 18.9861 22.4028 18.9958 22.0917 18.8792C21.6833 18.7236 21.309 18.5146 20.9687 18.2521C20.6285 17.9896 20.3514 17.6833 20.1375 17.3333C19.5153 17.3528 18.9757 17.591 18.5188 18.0479C18.0618 18.5049 17.8333 19.0444 17.8333 19.6667C17.8333 20.3083 18.0618 20.8576 18.5188 21.3146C18.9757 21.7715 19.525 22 20.1667 22C20.4972 22 20.7743 22.1118 20.9979 22.3354C21.2215 22.559 21.3333 22.8361 21.3333 23.1667C21.3333 23.4972 21.2215 23.7743 20.9979 23.9979C20.7743 24.2215 20.4972 24.3333 20.1667 24.3333C19.7583 24.3333 19.3646 24.2847 18.9854 24.1875C18.6062 24.0903 18.2514 23.9444 17.9208 23.75C17.8819 23.8472 17.8576 23.9444 17.8479 24.0417C17.8382 24.1389 17.8333 24.2361 17.8333 24.3333C17.8333 24.975 18.0618 25.5243 18.5188 25.9812C18.9757 26.4382 19.525 26.6667 20.1667 26.6667C20.5556 26.6667 20.9153 26.584 21.2458 26.4187C21.5764 26.2535 21.8486 26.0153 22.0625 25.7042C22.2569 25.4319 22.5097 25.2715 22.8208 25.2229C23.1319 25.1743 23.4236 25.2472 23.6958 25.4417C23.9681 25.6361 24.1285 25.8889 24.1771 26.2C24.2257 26.5111 24.1528 26.8028 23.9583 27.075C23.6861 27.4444 23.375 27.7653 23.025 28.0375C22.675 28.3097 22.2958 28.5236 21.8875 28.6792C21.9069 29.0681 22.0625 29.4132 22.3542 29.7146C22.6458 30.016 22.9861 30.1667 23.375 30.1667C23.7833 30.1667 24.1285 30.0257 24.4104 29.7437C24.6924 29.4618 24.8333 29.1167 24.8333 28.7083Z" fill="#6F6F6F"/>
</g>
<path d="M48.698 18.228V22.998C49.256 22.98 49.814 22.962 50.372 22.926V18.228H48.698ZM54.53 22.602L54.692 24.33C51.434 24.906 47.69 24.978 44.936 24.978L44.684 23.052L46.412 23.034V18.228H45.116V16.338H53.954V18.228H52.64V22.782C53.288 22.746 53.918 22.674 54.53 22.602ZM49.508 26.04V29.37H58.418V31.26H47.132V26.04H49.508ZM57.824 19.65H60.02V21.612H57.824V27.174H55.448V14.97H57.824V19.65ZM70.5306 21.846L70.7646 23.718C68.7306 24.168 66.8406 24.258 63.1686 24.258H61.7826V16.284H69.1986V18.174H64.1406V22.35C67.0926 22.332 68.7306 22.224 70.5306 21.846ZM65.8866 25.698V29.37H74.7966V31.26H63.5106V25.698H65.8866ZM74.2026 19.488H76.3986V21.432H74.2026V26.958H71.8266V14.97H74.2026V19.488ZM85.9912 22.476L86.2252 24.366C84.2992 24.726 82.5892 24.78 79.4392 24.78H78.1612V19.38H83.0572V17.814H78.1432V15.906H85.3972V21.144H80.5192V22.872C82.8952 22.854 84.3532 22.782 85.9912 22.476ZM80.0512 27.822V25.932H91.3912V31.566H89.0152V27.822H80.0512ZM89.0152 14.988L91.3912 14.97V25.194H89.0152V22.692H86.3512V20.802H89.0152V19.164H86.3512V17.256H89.0152V14.988Z" fill="#6F6F6F"/>
</svg>