<svg width="28" height="28" viewBox="0 0 28 28" fill="none" xmlns="http://www.w3.org/2000/svg">
<mask id="mask0_97_1763" style="mask-type:alpha" maskUnits="userSpaceOnUse" x="0" y="0" width="28" height="28">
<rect width="28" height="28" fill="#D9D9D9"/>
</mask>
<g mask="url(#mask0_97_1763)">
<path d="M16.625 24.5C16.3722 24.5 16.1243 24.4757 15.8812 24.4271V24.4271C15.4368 24.3382 15.1667 23.9131 15.1667 23.4598V4.5402C15.1667 4.08692 15.4368 3.66181 15.8812 3.57292V3.57292C16.1243 3.52431 16.3722 3.5 16.625 3.5C17.6361 3.5 18.5062 3.84028 19.2354 4.52083C19.9646 5.20139 20.3583 6.0375 20.4167 7.02917C21.5639 7.18472 22.5313 7.7 23.3188 8.575C24.1063 9.45 24.5 10.4806 24.5 11.6667C24.5 12.0944 24.4465 12.5028 24.3396 12.8917C24.2326 13.2806 24.0722 13.65 23.8583 14C24.0722 14.35 24.2326 14.7243 24.3396 15.1229C24.4465 15.5215 24.5 15.925 24.5 16.3333C24.5 17.5389 24.1063 18.5743 23.3188 19.4396C22.5313 20.3049 21.5542 20.8153 20.3875 20.9708C20.2903 21.9431 19.8868 22.7743 19.1771 23.4646C18.4674 24.1549 17.6167 24.5 16.625 24.5ZM11.375 24.5C10.3833 24.5 9.52778 24.1549 8.80833 23.4646C8.08889 22.7743 7.68056 21.9431 7.58333 20.9708C6.41667 20.8153 5.44444 20.3 4.66667 19.425C3.88889 18.55 3.5 17.5194 3.5 16.3333C3.5 15.925 3.55347 15.5215 3.66042 15.1229C3.76736 14.7243 3.92778 14.35 4.14167 14C3.92778 13.65 3.76736 13.2806 3.66042 12.8917C3.55347 12.5028 3.5 12.0944 3.5 11.6667C3.5 10.4806 3.88889 9.45486 4.66667 8.58958C5.44444 7.72431 6.40694 7.21389 7.55417 7.05833C7.6125 6.06667 8.01111 5.22569 8.75 4.53542C9.48889 3.84514 10.3639 3.5 11.375 3.5C11.6278 3.5 11.8757 3.52917 12.1187 3.5875V3.5875C12.5619 3.69384 12.8333 4.11766 12.8333 4.57334V23.4598C12.8333 23.9131 12.5632 24.3382 12.1187 24.4271V24.4271C11.8757 24.4757 11.6278 24.5 11.375 24.5Z" fill="#C190FF"/>
</g>
</svg>
