<svg width="134" height="44" viewBox="0 0 134 44" fill="none" xmlns="http://www.w3.org/2000/svg">
<g filter="url(#filter0_b_1025_13238)">
<mask id="path-1-inside-1_1025_13238" fill="white">
<path d="M0 4C0 1.79086 1.79086 0 4 0H130C132.209 0 134 1.79086 134 4V40C134 42.2091 132.209 44 130 44H4C1.79086 44 0 42.2091 0 40V4Z"/>
</mask>
<path d="M0 4C0 1.79086 1.79086 0 4 0H130C132.209 0 134 1.79086 134 4V40C134 42.2091 132.209 44 130 44H4C1.79086 44 0 42.2091 0 40V4Z" fill="#242127" fill-opacity="0.85"/>
<path d="M0 0H134H0ZM134 44H0H134ZM0 44V0V44ZM130 0C134.418 0 138 3.58172 138 8V36C138 40.4183 134.418 44 130 44C130 44 130 42.2091 130 40V4C130 1.79086 130 0 130 0Z" fill="#C190FF" mask="url(#path-1-inside-1_1025_13238)"/>
<mask id="mask0_1025_13238" style="mask-type:alpha" maskUnits="userSpaceOnUse" x="14" y="8" width="28" height="28">
<rect x="14" y="8" width="28" height="28" fill="#D9D9D9"/>
</mask>
<g mask="url(#mask0_1025_13238)">
<path d="M30.625 32.5C30.3722 32.5 30.1243 32.4757 29.8812 32.4271C29.4368 32.3382 29.1667 31.9131 29.1667 31.4598V12.5402C29.1667 12.0869 29.4368 11.6618 29.8812 11.5729C30.1243 11.5243 30.3722 11.5 30.625 11.5C31.6361 11.5 32.5062 11.8403 33.2354 12.5208C33.9646 13.2014 34.3583 14.0375 34.4167 15.0292C35.5639 15.1847 36.5312 15.7 37.3188 16.575C38.1063 17.45 38.5 18.4806 38.5 19.6667C38.5 20.0944 38.4465 20.5028 38.3396 20.8917C38.2326 21.2806 38.0722 21.65 37.8583 22C38.0722 22.35 38.2326 22.7243 38.3396 23.1229C38.4465 23.5215 38.5 23.925 38.5 24.3333C38.5 25.5389 38.1063 26.5743 37.3188 27.4396C36.5312 28.3049 35.5542 28.8153 34.3875 28.9708C34.2903 29.9431 33.8868 30.7743 33.1771 31.4646C32.4674 32.1549 31.6167 32.5 30.625 32.5ZM25.375 32.5C24.3833 32.5 23.5278 32.1549 22.8083 31.4646C22.0889 30.7743 21.6806 29.9431 21.5833 28.9708C20.4167 28.8153 19.4444 28.3 18.6667 27.425C17.8889 26.55 17.5 25.5194 17.5 24.3333C17.5 23.925 17.5535 23.5215 17.6604 23.1229C17.7674 22.7243 17.9278 22.35 18.1417 22C17.9278 21.65 17.7674 21.2806 17.6604 20.8917C17.5535 20.5028 17.5 20.0944 17.5 19.6667C17.5 18.4806 17.8889 17.4549 18.6667 16.5896C19.4444 15.7243 20.4069 15.2139 21.5542 15.0583C21.6125 14.0667 22.0111 13.2257 22.75 12.5354C23.4889 11.8451 24.3639 11.5 25.375 11.5C25.6278 11.5 25.8757 11.5292 26.1187 11.5875C26.5619 11.6938 26.8333 12.1177 26.8333 12.5733V31.4598C26.8333 31.9131 26.5632 32.3382 26.1187 32.4271C25.8757 32.4757 25.6278 32.5 25.375 32.5Z" fill="#C190FF"/>
</g>
<path d="M47.062 16.284H55.954V18.21H47.062V16.284ZM46.882 24.996L46.63 23.07C49.456 23.052 53.326 23.016 56.53 22.602L56.692 24.348C53.416 24.924 49.636 24.996 46.882 24.996ZM48.376 17.76H50.68V23.43H48.376V17.76ZM52.354 17.76H54.64V23.43H52.354V17.76ZM57.448 14.952H59.842V27.228H57.448V14.952ZM59.158 19.632H62.056V21.612H59.158V19.632ZM49.096 29.406H60.436V31.314H49.096V29.406ZM49.096 26.076H51.49V29.91H49.096V26.076ZM74.0066 14.934H76.4006V26.976H74.0066V14.934ZM75.7166 19.47H78.6146V21.432H75.7166V19.47ZM63.9086 22.332H65.2946C68.9126 22.332 70.7126 22.26 72.7106 21.828L72.9446 23.718C70.9106 24.168 69.0026 24.258 65.2946 24.258H63.9086V22.332ZM63.9086 16.248H71.3606V18.174H66.2846V23.358H63.9086V16.248ZM65.6546 29.406H76.9946V31.314H65.6546V29.406ZM65.6546 25.716H68.0486V30.378H65.6546V25.716ZM80.4672 22.872H81.7452C84.8412 22.872 86.4612 22.818 88.3512 22.476L88.5852 24.366C86.6412 24.726 84.9312 24.78 81.7452 24.78H80.4672V22.872ZM80.4492 15.888H87.7752V21.144H82.8432V24.132H80.4672V19.362H85.3992V17.778H80.4492V15.888ZM91.3932 14.952H93.7872V25.212H91.3932V14.952ZM88.7292 17.238H91.8252V19.146H88.7292V17.238ZM88.7292 20.784H91.8252V22.692H88.7292V20.784ZM82.3752 25.968H93.7872V31.62H91.3932V27.876H82.3752V25.968Z" fill="#C190FF"/>
<mask id="mask1_1025_13238" style="mask-type:alpha" maskUnits="userSpaceOnUse" x="96" y="10" width="24" height="24">
<rect x="96" y="10" width="24" height="24" fill="#D9D9D9"/>
</mask>
<g mask="url(#mask1_1025_13238)">
<path d="M108 24.3998L103.1 29.2998C102.917 29.4831 102.683 29.5748 102.4 29.5748C102.117 29.5748 101.883 29.4831 101.7 29.2998C101.517 29.1165 101.425 28.8831 101.425 28.5998C101.425 28.3165 101.517 28.0831 101.7 27.8998L106.6 22.9998L101.7 18.0998C101.517 17.9165 101.425 17.6831 101.425 17.3998C101.425 17.1165 101.517 16.8831 101.7 16.6998C101.883 16.5165 102.117 16.4248 102.4 16.4248C102.683 16.4248 102.917 16.5165 103.1 16.6998L108 21.5998L112.9 16.6998C113.083 16.5165 113.317 16.4248 113.6 16.4248C113.883 16.4248 114.117 16.5165 114.3 16.6998C114.483 16.8831 114.575 17.1165 114.575 17.3998C114.575 17.6831 114.483 17.9165 114.3 18.0998L109.4 22.9998L114.3 27.8998C114.483 28.0831 114.575 28.3165 114.575 28.5998C114.575 28.8831 114.483 29.1165 114.3 29.2998C114.117 29.4831 113.883 29.5748 113.6 29.5748C113.317 29.5748 113.083 29.4831 112.9 29.2998L108 24.3998Z" fill="#C190FF"/>
</g>
</g>
<defs>
<filter id="filter0_b_1025_13238" x="-12" y="-12" width="158" height="68" filterUnits="userSpaceOnUse" color-interpolation-filters="sRGB">
<feFlood flood-opacity="0" result="BackgroundImageFix"/>
<feGaussianBlur in="BackgroundImageFix" stdDeviation="6"/>
<feComposite in2="SourceAlpha" operator="in" result="effect1_backgroundBlur_1025_13238"/>
<feBlend mode="normal" in="SourceGraphic" in2="effect1_backgroundBlur_1025_13238" result="shape"/>
</filter>
</defs>
</svg>
