<svg width="126" height="60" viewBox="0 0 126 60" fill="none" xmlns="http://www.w3.org/2000/svg">
<g filter="url(#filter0_bd_20_1163)">
<mask id="path-1-inside-1_20_1163" fill="white">
<path d="M8 8C8 5.79086 9.79086 4 12 4H114C116.209 4 118 5.79086 118 8V44C118 46.2091 116.209 48 114 48H12C9.79086 48 8 46.2091 8 44V8Z"/>
</mask>
<path d="M8 8C8 5.79086 9.79086 4 12 4H114C116.209 4 118 5.79086 118 8V44C118 46.2091 116.209 48 114 48H12C9.79086 48 8 46.2091 8 44V8Z" fill="#212121" fill-opacity="0.8" shape-rendering="crispEdges"/>
<path d="M8 4H118H8ZM118 48H8H118ZM8 48V4V48ZM114 4C118.418 4 122 7.58172 122 12V40C122 44.4183 118.418 48 114 48C114 48 114 46.2091 114 44V8C114 5.79086 114 4 114 4Z" fill="#6F6F6F" mask="url(#path-1-inside-1_20_1163)"/>
<mask id="mask0_20_1163" style="mask-type:alpha" maskUnits="userSpaceOnUse" x="20" y="12" width="28" height="28">
<rect x="20" y="12" width="28" height="28" fill="#D9D9D9"/>
</mask>
<g mask="url(#mask0_20_1163)">
<path d="M31.375 36.5C30.3833 36.5 29.5278 36.1549 28.8083 35.4646C28.0889 34.7743 27.6806 33.9431 27.5833 32.9708C26.4167 32.8153 25.4444 32.3 24.6667 31.425C23.8889 30.55 23.5 29.5194 23.5 28.3333C23.5 27.925 23.5535 27.5215 23.6604 27.1229C23.7674 26.7243 23.9278 26.35 24.1417 26C23.9278 25.65 23.7674 25.2806 23.6604 24.8917C23.5535 24.5028 23.5 24.0944 23.5 23.6667C23.5 22.4806 23.8889 21.4549 24.6667 20.5896C25.4444 19.7243 26.4069 19.2139 27.5542 19.0583C27.6125 18.0667 28.0111 17.2257 28.75 16.5354C29.4889 15.8451 30.3639 15.5 31.375 15.5C31.8806 15.5 32.3521 15.5972 32.7896 15.7917C33.2271 15.9861 33.6306 16.2486 34 16.5792C34.35 16.2486 34.7486 15.9861 35.1958 15.7917C35.6431 15.5972 36.1194 15.5 36.625 15.5C37.6361 15.5 38.5062 15.8403 39.2354 16.5208C39.9646 17.2014 40.3583 18.0375 40.4167 19.0292C41.5639 19.1847 42.5313 19.7 43.3188 20.575C44.1063 21.45 44.5 22.4806 44.5 23.6667C44.5 24.0944 44.4465 24.5028 44.3396 24.8917C44.2326 25.2806 44.0722 25.65 43.8583 26C44.0722 26.35 44.2326 26.7243 44.3396 27.1229C44.4465 27.5215 44.5 27.925 44.5 28.3333C44.5 29.5389 44.1063 30.5743 43.3188 31.4396C42.5313 32.3049 41.5542 32.8153 40.3875 32.9708C40.2903 33.9431 39.8868 34.7743 39.1771 35.4646C38.4674 36.1549 37.6167 36.5 36.625 36.5C36.1389 36.5 35.6674 36.4076 35.2104 36.2229C34.7535 36.0382 34.35 35.7806 34 35.45C33.6306 35.7806 33.2222 36.0382 32.775 36.2229C32.3278 36.4076 31.8611 36.5 31.375 36.5ZM35.1667 19.2917V32.7083C35.1667 33.1167 35.3076 33.4618 35.5896 33.7437C35.8715 34.0257 36.2167 34.1667 36.625 34.1667C37.0139 34.1667 37.3493 34.0111 37.6312 33.7C37.9132 33.3889 38.0639 33.0389 38.0833 32.65C37.675 32.4944 37.3007 32.2854 36.9604 32.0229C36.6201 31.7604 36.3139 31.4444 36.0417 31.075C35.8472 30.8028 35.7743 30.5111 35.8229 30.2C35.8715 29.8889 36.0319 29.6361 36.3042 29.4417C36.5764 29.2472 36.8681 29.1743 37.1792 29.2229C37.4903 29.2715 37.7431 29.4319 37.9375 29.7042C38.1514 30.0153 38.4236 30.2535 38.7542 30.4187C39.0847 30.584 39.4444 30.6667 39.8333 30.6667C40.475 30.6667 41.0243 30.4382 41.4812 29.9812C41.9382 29.5243 42.1667 28.975 42.1667 28.3333C42.1667 28.2361 42.1618 28.1389 42.1521 28.0417C42.1424 27.9444 42.1181 27.8472 42.0792 27.75C41.7486 27.9444 41.3937 28.0903 41.0146 28.1875C40.6354 28.2847 40.2417 28.3333 39.8333 28.3333C39.5028 28.3333 39.2257 28.2215 39.0021 27.9979C38.7785 27.7743 38.6667 27.4972 38.6667 27.1667C38.6667 26.8361 38.7785 26.559 39.0021 26.3354C39.2257 26.1118 39.5028 26 39.8333 26C40.475 26 41.0243 25.7715 41.4812 25.3146C41.9382 24.8576 42.1667 24.3083 42.1667 23.6667C42.1667 23.025 41.9382 22.4806 41.4812 22.0333C41.0243 21.5861 40.475 21.3528 39.8333 21.3333C39.6194 21.6833 39.3424 21.9896 39.0021 22.2521C38.6618 22.5146 38.2875 22.7236 37.8792 22.8792C37.5681 22.9958 37.2667 22.9861 36.975 22.85C36.6833 22.7139 36.4889 22.4903 36.3917 22.1792C36.2944 21.8681 36.309 21.5667 36.4354 21.275C36.5618 20.9833 36.7806 20.7889 37.0917 20.6917C37.3833 20.5944 37.6215 20.4194 37.8062 20.1667C37.991 19.9139 38.0833 19.6222 38.0833 19.2917C38.0833 18.8833 37.9424 18.5382 37.6604 18.2562C37.3785 17.9743 37.0333 17.8333 36.625 17.8333C36.2167 17.8333 35.8715 17.9743 35.5896 18.2562C35.3076 18.5382 35.1667 18.8833 35.1667 19.2917ZM32.8333 32.7083V19.2917C32.8333 18.8833 32.6924 18.5382 32.4104 18.2562C32.1285 17.9743 31.7833 17.8333 31.375 17.8333C30.9667 17.8333 30.6215 17.9743 30.3396 18.2562C30.0576 18.5382 29.9167 18.8833 29.9167 19.2917C29.9167 19.6028 30.0042 19.8896 30.1792 20.1521C30.3542 20.4146 30.5875 20.5944 30.8792 20.6917C31.1903 20.7889 31.4139 20.9833 31.55 21.275C31.6861 21.5667 31.7056 21.8681 31.6083 22.1792C31.4917 22.4903 31.2875 22.7139 30.9958 22.85C30.7042 22.9861 30.4028 22.9958 30.0917 22.8792C29.6833 22.7236 29.309 22.5146 28.9687 22.2521C28.6285 21.9896 28.3514 21.6833 28.1375 21.3333C27.5153 21.3528 26.9757 21.591 26.5188 22.0479C26.0618 22.5049 25.8333 23.0444 25.8333 23.6667C25.8333 24.3083 26.0618 24.8576 26.5188 25.3146C26.9757 25.7715 27.525 26 28.1667 26C28.4972 26 28.7743 26.1118 28.9979 26.3354C29.2215 26.559 29.3333 26.8361 29.3333 27.1667C29.3333 27.4972 29.2215 27.7743 28.9979 27.9979C28.7743 28.2215 28.4972 28.3333 28.1667 28.3333C27.7583 28.3333 27.3646 28.2847 26.9854 28.1875C26.6062 28.0903 26.2514 27.9444 25.9208 27.75C25.8819 27.8472 25.8576 27.9444 25.8479 28.0417C25.8382 28.1389 25.8333 28.2361 25.8333 28.3333C25.8333 28.975 26.0618 29.5243 26.5188 29.9812C26.9757 30.4382 27.525 30.6667 28.1667 30.6667C28.5556 30.6667 28.9153 30.584 29.2458 30.4187C29.5764 30.2535 29.8486 30.0153 30.0625 29.7042C30.2569 29.4319 30.5097 29.2715 30.8208 29.2229C31.1319 29.1743 31.4236 29.2472 31.6958 29.4417C31.9681 29.6361 32.1285 29.8889 32.1771 30.2C32.2257 30.5111 32.1528 30.8028 31.9583 31.075C31.6861 31.4444 31.375 31.7653 31.025 32.0375C30.675 32.3097 30.2958 32.5236 29.8875 32.6792C29.9069 33.0681 30.0625 33.4132 30.3542 33.7146C30.6458 34.016 30.9861 34.1667 31.375 34.1667C31.7833 34.1667 32.1285 34.0257 32.4104 33.7437C32.6924 33.4618 32.8333 33.1167 32.8333 32.7083Z" fill="#6F6F6F"/>
</g>
<path d="M56.698 22.228V26.998C57.256 26.98 57.814 26.962 58.372 26.926V22.228H56.698ZM62.53 26.602L62.692 28.33C59.434 28.906 55.69 28.978 52.936 28.978L52.684 27.052L54.412 27.034V22.228H53.116V20.338H61.954V22.228H60.64V26.782C61.288 26.746 61.918 26.674 62.53 26.602ZM57.508 30.04V33.37H66.418V35.26H55.132V30.04H57.508ZM65.824 23.65H68.02V25.612H65.824V31.174H63.448V18.97H65.824V23.65ZM78.5306 25.846L78.7646 27.718C76.7306 28.168 74.8406 28.258 71.1686 28.258H69.7826V20.284H77.1986V22.174H72.1406V26.35C75.0926 26.332 76.7306 26.224 78.5306 25.846ZM73.8866 29.698V33.37H82.7966V35.26H71.5106V29.698H73.8866ZM82.2026 23.488H84.3986V25.432H82.2026V30.958H79.8266V18.97H82.2026V23.488ZM93.9912 26.476L94.2252 28.366C92.2992 28.726 90.5892 28.78 87.4392 28.78H86.1612V23.38H91.0572V21.814H86.1432V19.906H93.3972V25.144H88.5192V26.872C90.8952 26.854 92.3532 26.782 93.9912 26.476ZM88.0512 31.822V29.932H99.3912V35.566H97.0152V31.822H88.0512ZM97.0152 18.988L99.3912 18.97V29.194H97.0152V26.692H94.3512V24.802H97.0152V23.164H94.3512V21.256H97.0152V18.988Z" fill="#6F6F6F"/>
</g>
<defs>
<filter id="filter0_bd_20_1163" x="-8" y="-12" width="142" height="76" filterUnits="userSpaceOnUse" color-interpolation-filters="sRGB">
<feFlood flood-opacity="0" result="BackgroundImageFix"/>
<feGaussianBlur in="BackgroundImageFix" stdDeviation="8"/>
<feComposite in2="SourceAlpha" operator="in" result="effect1_backgroundBlur_20_1163"/>
<feColorMatrix in="SourceAlpha" type="matrix" values="0 0 0 0 0 0 0 0 0 0 0 0 0 0 0 0 0 0 127 0" result="hardAlpha"/>
<feOffset dy="4"/>
<feGaussianBlur stdDeviation="4"/>
<feComposite in2="hardAlpha" operator="out"/>
<feColorMatrix type="matrix" values="0 0 0 0 0 0 0 0 0 0 0 0 0 0 0 0 0 0 0.25 0"/>
<feBlend mode="normal" in2="effect1_backgroundBlur_20_1163" result="effect2_dropShadow_20_1163"/>
<feBlend mode="normal" in="SourceGraphic" in2="effect2_dropShadow_20_1163" result="shape"/>
</filter>
</defs>
</svg>
