<svg width="460" height="56" viewBox="0 0 460 56" fill="none" xmlns="http://www.w3.org/2000/svg">
<rect width="460" height="56" rx="12" fill="#FEE500"/>
<path d="M194.02 22.536H196.36C196.36 27.684 195.136 31.968 188.926 35.118L187.648 33.3C192.832 30.69 194.02 27.504 194.02 22.824V22.536ZM188.674 22.536H195.442V24.426H188.674V22.536ZM194.074 26.622V28.458L188.098 29.034L187.81 26.982L194.074 26.622ZM198.376 20.916H200.788V37.584H198.376V20.916ZM200.158 27.288H203.092V29.25H200.158V27.288ZM210.579 22.536H212.919C212.919 27.684 211.695 31.968 205.485 35.118L204.207 33.3C209.391 30.69 210.579 27.504 210.579 22.824V22.536ZM205.233 22.536H212.001V24.426H205.233V22.536ZM210.633 26.622V28.458L204.657 29.034L204.369 26.982L210.633 26.622ZM214.935 20.916H217.347V37.584H214.935V20.916ZM216.717 27.288H219.651V29.25H216.717V27.288ZM227.173 30.312H229.567V34.11H227.173V30.312ZM228.379 21.78C231.943 21.78 234.607 23.598 234.607 26.37C234.607 29.178 231.943 30.978 228.379 30.978C224.815 30.978 222.151 29.178 222.151 26.37C222.151 23.598 224.815 21.78 228.379 21.78ZM228.379 23.67C226.093 23.67 224.509 24.678 224.509 26.37C224.509 28.098 226.093 29.088 228.379 29.088C230.665 29.088 232.249 28.098 232.249 26.37C232.249 24.678 230.665 23.67 228.379 23.67ZM220.855 33.732H235.939V35.676H220.855V33.732ZM241.492 33.822H256.576V35.766H241.492V33.822ZM247.81 30.672H250.204V34.614H247.81V30.672ZM243.184 22.014H254.884V27.558H245.596V30.366H243.22V25.686H252.508V23.904H243.184V22.014ZM243.22 29.412H255.262V31.338H243.22V29.412ZM259.581 22.464H270.147V24.354H259.581V22.464ZM258.051 33.48H273.117V35.424H258.051V33.48ZM268.887 22.464H271.263V24.444C271.263 26.784 271.263 29.052 270.669 32.472L268.275 32.274C268.887 29.07 268.887 26.694 268.887 24.444V22.464ZM286.039 20.952H288.451V32.922H286.039V20.952ZM277.345 35.406H288.865V37.314H277.345V35.406ZM277.345 31.716H279.739V36.18H277.345V31.716ZM279.379 21.996C281.935 21.996 283.897 23.76 283.897 26.226C283.897 28.674 281.935 30.456 279.379 30.456C276.823 30.456 274.843 28.674 274.843 26.226C274.843 23.76 276.823 21.996 279.379 21.996ZM279.379 24.066C278.137 24.066 277.183 24.858 277.183 26.226C277.183 27.576 278.137 28.368 279.379 28.368C280.603 28.368 281.557 27.576 281.557 26.226C281.557 24.858 280.603 24.066 279.379 24.066Z" fill="black" fill-opacity="0.85"/>
<g clip-path="url(#clip0_2_75)">
<path fill-rule="evenodd" clip-rule="evenodd" d="M26 18.6667C20.4769 18.6667 16 22.1255 16 26.3914C16 29.0445 17.7316 31.3833 20.3684 32.7744L19.2589 36.8272C19.1609 37.1853 19.5705 37.4708 19.885 37.2632L24.7482 34.0535C25.1586 34.0932 25.5756 34.1163 26 34.1163C31.5227 34.1163 35.9999 30.6576 35.9999 26.3914C35.9999 22.1255 31.5227 18.6667 26 18.6667" fill="black"/>
</g>
<defs>
<clipPath id="clip0_2_75">
<rect width="19.9999" height="20" fill="white" transform="translate(16 18)"/>
</clipPath>
</defs>
</svg>
