<svg width="97" height="32" viewBox="0 0 97 32" fill="none" xmlns="http://www.w3.org/2000/svg">
<rect width="97" height="32" rx="8" fill="#6AB6F0" fill-opacity="0.08"/>
<path d="M17.7413 10.296H19.6173V18.15H17.7413V10.296ZM9.50934 16.134H10.6433C13.1633 16.134 14.8013 16.078 16.6773 15.77L16.8873 17.254C14.9553 17.59 13.2333 17.632 10.6433 17.632H9.50934V16.134ZM9.49534 11.052H15.4593V15H11.3433V16.974H9.50934V13.614H13.6253V12.536H9.49534V11.052ZM15.2493 18.388C17.9933 18.388 19.7013 19.27 19.7013 20.824C19.7013 22.364 17.9933 23.26 15.2493 23.26C12.5053 23.26 10.8253 22.364 10.8253 20.824C10.8253 19.27 12.5053 18.388 15.2493 18.388ZM15.2493 19.83C13.5553 19.83 12.6733 20.138 12.6733 20.824C12.6733 21.496 13.5553 21.818 15.2493 21.818C16.9573 21.818 17.8393 21.496 17.8393 20.824C17.8393 20.138 16.9573 19.83 15.2493 19.83ZM23.0463 11.416H31.2083V12.9H23.0463V11.416ZM21.7303 20.194H33.4483V21.72H21.7303V20.194ZM30.4243 11.416H32.2583V12.914C32.2583 14.804 32.2583 16.596 31.6563 19.424L29.8223 19.256C30.4243 16.638 30.4243 14.748 30.4243 12.914V11.416ZM30.8163 14.972V16.344L22.8923 16.736L22.6683 15.238L30.8163 14.972ZM37.767 16.68H49.485V18.178H37.767V16.68ZM42.681 15.028H44.543V17.002H42.681V15.028ZM39.069 19.06H48.071V23.246H46.209V20.53H39.069V19.06ZM39.265 10.604H41.099V11.752H46.153V10.604H48.001V15.616H39.265V10.604ZM41.099 13.138V14.16H46.153V13.138H41.099ZM53.5579 11.276H55.0699V13.166C55.0699 16.372 53.9499 19.382 51.4999 20.586L50.3799 19.088C52.5639 18.066 53.5579 15.574 53.5579 13.166V11.276ZM53.9359 11.276H55.4199V13.166C55.4199 15.49 56.3439 17.856 58.4159 18.864L57.2959 20.348C54.9579 19.158 53.9359 16.274 53.9359 13.166V11.276ZM58.9339 10.282H60.8099V23.246H58.9339V10.282ZM60.3899 15.266H62.6859V16.82H60.3899V15.266ZM71.8408 10.282H73.6888V23.246H71.8408V10.282ZM73.2688 15.336H75.5648V16.89H73.2688V15.336ZM63.4688 12.2H71.0148V13.684H63.4688V12.2ZM67.2628 14.412C69.1528 14.412 70.5528 15.7 70.5528 17.506C70.5528 19.312 69.1528 20.6 67.2628 20.6C65.3728 20.6 63.9728 19.312 63.9728 17.506C63.9728 15.7 65.3728 14.412 67.2628 14.412ZM67.2628 15.924C66.3808 15.924 65.7508 16.512 65.7508 17.506C65.7508 18.5 66.3808 19.088 67.2628 19.088C68.1448 19.088 68.7748 18.5 68.7748 17.506C68.7748 16.512 68.1448 15.924 67.2628 15.924ZM66.3248 10.492H68.1868V12.76H66.3248V10.492ZM85.3358 10.282H87.2118V23.246H85.3358V10.282ZM81.5138 11.626H83.3618C83.3618 15.588 82.0178 18.836 77.4118 21.062L76.4458 19.578C80.1698 17.786 81.5138 15.434 81.5138 11.962V11.626ZM77.1318 11.626H82.3958V13.096H77.1318V11.626Z" fill="#6AB6F0"/>
</svg>
