<svg width="113" height="32" viewBox="0 0 113 32" fill="none" xmlns="http://www.w3.org/2000/svg">
<rect width="113" height="32" rx="8" fill="#6AB6F0" fill-opacity="0.16"/>
<path d="M17.716 10.282H19.592V16.918H17.716V10.282ZM10.94 17.436H19.592V20.922H12.788V22.28H10.968V19.62H17.744V18.85H10.94V17.436ZM10.968 21.734H19.914V23.162H10.968V21.734ZM11.962 11.514H13.474V12.018C13.474 14.314 12.256 16.358 9.72195 17.072L8.86795 15.616C11.024 15.014 11.962 13.502 11.962 12.018V11.514ZM12.368 11.514H13.866V12.018C13.866 13.39 14.79 14.804 16.904 15.378L16.05 16.806C13.558 16.134 12.368 14.188 12.368 12.018V11.514ZM9.35795 10.87H16.414V12.34H9.35795V10.87ZM21.6909 16.68H33.4229V18.164H21.6909V16.68ZM26.7729 17.618H28.6489V20.348H26.7729V17.618ZM23.1329 10.828H31.9389V15.644H23.1329V10.828ZM30.1049 12.284H24.9529V14.188H30.1049V12.284ZM23.0489 21.538H32.1349V23.022H23.0489V21.538ZM23.0489 19.256H24.8969V22.028H23.0489V19.256ZM37.6918 12.326H39.1758V13.782C39.1758 16.778 37.9578 19.704 35.5218 20.81L34.4718 19.34C36.6418 18.374 37.6918 15.98 37.6918 13.782V12.326ZM38.1118 12.326H39.5818V13.782C39.5818 15.882 40.6178 18.122 42.7878 19.018L41.7798 20.488C39.3158 19.424 38.1118 16.666 38.1118 13.782V12.326ZM34.9898 11.528H42.2558V13.054H34.9898V11.528ZM43.4598 10.282H45.3358V23.246H43.4598V10.282ZM59.5245 10.296H61.4005V18.15H59.5245V10.296ZM51.2925 16.134H52.4265C54.9465 16.134 56.5845 16.078 58.4605 15.77L58.6705 17.254C56.7385 17.59 55.0165 17.632 52.4265 17.632H51.2925V16.134ZM51.2785 11.052H57.2425V15H53.1265V16.974H51.2925V13.614H55.4085V12.536H51.2785V11.052ZM57.0325 18.388C59.7765 18.388 61.4845 19.27 61.4845 20.824C61.4845 22.364 59.7765 23.26 57.0325 23.26C54.2885 23.26 52.6085 22.364 52.6085 20.824C52.6085 19.27 54.2885 18.388 57.0325 18.388ZM57.0325 19.83C55.3385 19.83 54.4565 20.138 54.4565 20.824C54.4565 21.496 55.3385 21.818 57.0325 21.818C58.7405 21.818 59.6225 21.496 59.6225 20.824C59.6225 20.138 58.7405 19.83 57.0325 19.83ZM64.8295 11.416H72.9915V12.9H64.8295V11.416ZM63.5135 20.194H75.2315V21.72H63.5135V20.194ZM72.2075 11.416H74.0415V12.914C74.0415 14.804 74.0415 16.596 73.4395 19.424L71.6055 19.256C72.2075 16.638 72.2075 14.748 72.2075 12.914V11.416ZM72.5995 14.972V16.344L64.6755 16.736L64.4515 15.238L72.5995 14.972ZM79.5502 16.68H91.2682V18.178H79.5502V16.68ZM84.4642 15.028H86.3262V17.002H84.4642V15.028ZM80.8522 19.06H89.8542V23.246H87.9922V20.53H80.8522V19.06ZM81.0482 10.604H82.8822V11.752H87.9362V10.604H89.7842V15.616H81.0482V10.604ZM82.8822 13.138V14.16H87.9362V13.138H82.8822ZM95.3411 11.276H96.8531V13.166C96.8531 16.372 95.7331 19.382 93.2831 20.586L92.1631 19.088C94.3471 18.066 95.3411 15.574 95.3411 13.166V11.276ZM95.7191 11.276H97.2031V13.166C97.2031 15.49 98.1271 17.856 100.199 18.864L99.0791 20.348C96.7411 19.158 95.7191 16.274 95.7191 13.166V11.276ZM100.717 10.282H102.593V23.246H100.717V10.282ZM102.173 15.266H104.469V16.82H102.173V15.266Z" fill="#6AB6F0"/>
</svg>
