<svg width="28" height="28" viewBox="0 0 28 28" fill="none" xmlns="http://www.w3.org/2000/svg">
<mask id="mask0_97_1766" style="mask-type:alpha" maskUnits="userSpaceOnUse" x="0" y="0" width="28" height="28">
<rect width="28" height="28" transform="matrix(-1 0 0 1 28 0)" fill="#D9D9D9"/>
</mask>
<g mask="url(#mask0_97_1766)">
<path d="M22.1667 10.5007C22.1667 11.7257 21.9674 12.8875 21.5688 13.9861C21.1701 15.0847 20.6111 16.091 19.8917 17.0049C19.6778 17.2771 19.5708 17.5736 19.5708 17.8944C19.5708 18.2153 19.6875 18.4924 19.9208 18.7257C20.1736 18.959 20.4653 19.0611 20.7958 19.0319C21.1264 19.0028 21.3986 18.8521 21.6125 18.5799C22.5069 17.4715 23.2118 16.2271 23.7271 14.8465C24.2424 13.466 24.5 12.0174 24.5 10.5007C24.5 8.94514 24.2424 7.47708 23.7271 6.09653C23.2118 4.71597 22.5069 3.47153 21.6125 2.36319C21.3986 2.09097 21.1264 1.94028 20.7958 1.91111C20.4653 1.88194 20.1736 1.98403 19.9208 2.21736C19.6875 2.45069 19.5708 2.72778 19.5708 3.04861C19.5708 3.36944 19.6778 3.66597 19.8917 3.93819C20.6111 4.85208 21.1701 5.86319 21.5688 6.97153C21.9674 8.07986 22.1667 9.25625 22.1667 10.5007ZM11.6667 13.4174C12.4833 13.4174 13.1736 13.1306 13.7375 12.5569C14.3014 11.9833 14.5833 11.2979 14.5833 10.5007C14.5833 9.68403 14.3014 8.99375 13.7375 8.42986C13.1736 7.86597 12.4833 7.58403 11.6667 7.58403C10.85 7.58403 10.1597 7.86597 9.59583 8.42986C9.03194 8.99375 8.75 9.68403 8.75 10.5007C8.75 11.2979 9.03194 11.9833 9.59583 12.5569C10.1597 13.1306 10.85 13.4174 11.6667 13.4174ZM5.83333 21.0007C5.83333 20.6701 5.72153 20.3931 5.49792 20.1694C5.27431 19.9458 4.99722 19.834 4.66667 19.834C4.33611 19.834 4.05903 19.9458 3.83542 20.1694C3.61181 20.3931 3.5 20.6701 3.5 21.0007C3.5 22.284 3.95694 23.3826 4.87083 24.2965C5.78472 25.2104 6.88333 25.6674 8.16667 25.6674C9.37222 25.6674 10.359 25.366 11.1271 24.7632C11.8951 24.1604 12.4833 23.2757 12.8917 22.109C13.2222 21.1368 13.5382 20.4563 13.8396 20.0674C14.141 19.6785 14.8361 19.0563 15.925 18.2007C17.1306 17.2285 18.0833 16.1299 18.7833 14.9049C19.4833 13.6799 19.8333 12.2118 19.8333 10.5007C19.8333 8.1868 19.0507 6.24722 17.4854 4.68194C15.9201 3.11667 13.9806 2.33403 11.6667 2.33403C9.35278 2.33403 7.41319 3.11667 5.84792 4.68194C4.28264 6.24722 3.5 8.1868 3.5 10.5007C3.5 10.8312 3.61181 11.1083 3.83542 11.3319C4.05903 11.5556 4.33611 11.6674 4.66667 11.6674C4.99722 11.6674 5.27431 11.5556 5.49792 11.3319C5.72153 11.1083 5.83333 10.8312 5.83333 10.5007C5.83333 8.84792 6.39236 7.4625 7.51042 6.34444C8.62847 5.22639 10.0139 4.66736 11.6667 4.66736C13.3194 4.66736 14.7049 5.22639 15.8229 6.34444C16.941 7.4625 17.5 8.84792 17.5 10.5007C17.5 11.8229 17.2375 12.9507 16.7125 13.884C16.1875 14.8174 15.4389 15.6535 14.4667 16.3924C13.4556 17.1312 12.6681 17.8507 12.1042 18.5507C11.5403 19.2507 11.1222 20.009 10.85 20.8257C10.5778 21.6812 10.2521 22.3132 9.87292 22.7215C9.49375 23.1299 8.925 23.334 8.16667 23.334C7.525 23.334 6.97569 23.1056 6.51875 22.6486C6.06181 22.1917 5.83333 21.6424 5.83333 21.0007Z" fill="#62A9F5"/>
</g>
</svg>
