<svg width="151" height="44" viewBox="0 0 151 44" fill="none" xmlns="http://www.w3.org/2000/svg">
<g filter="url(#filter0_b_1025_13246)">
<mask id="path-1-inside-1_1025_13246" fill="white">
<path d="M0 4C0 1.79086 1.79086 0 4 0H147C149.209 0 151 1.79086 151 4V40C151 42.2091 149.209 44 147 44H4C1.79086 44 0 42.2091 0 40V4Z"/>
</mask>
<path d="M0 4C0 1.79086 1.79086 0 4 0H147C149.209 0 151 1.79086 151 4V40C151 42.2091 149.209 44 147 44H4C1.79086 44 0 42.2091 0 40V4Z" fill="#202326" fill-opacity="0.85"/>
<path d="M0 0H151H0ZM151 44H0H151ZM0 44V0V44ZM147 0C151.418 0 155 3.58172 155 8V36C155 40.4183 151.418 44 147 44C147 44 147 42.2091 147 40V4C147 1.79086 147 0 147 0Z" fill="#62A9F5" mask="url(#path-1-inside-1_1025_13246)"/>
<mask id="mask0_1025_13246" style="mask-type:alpha" maskUnits="userSpaceOnUse" x="14" y="8" width="28" height="28">
<rect width="28" height="28" transform="matrix(-1 0 0 1 42 8)" fill="#D9D9D9"/>
</mask>
<g mask="url(#mask0_1025_13246)">
<path d="M36.1667 18.5002C36.1667 19.7252 35.9674 20.887 35.5688 21.9856C35.1701 23.0842 34.6111 24.0905 33.8917 25.0044C33.6778 25.2766 33.5708 25.5731 33.5708 25.894C33.5708 26.2148 33.6875 26.4919 33.9208 26.7252C34.1736 26.9585 34.4653 27.0606 34.7958 27.0315C35.1264 27.0023 35.3986 26.8516 35.6125 26.5794C36.5069 25.471 37.2118 24.2266 37.7271 22.846C38.2424 21.4655 38.5 20.0169 38.5 18.5002C38.5 16.9446 38.2424 15.4766 37.7271 14.096C37.2118 12.7155 36.5069 11.471 35.6125 10.3627C35.3986 10.0905 35.1264 9.93979 34.7958 9.91062C34.4653 9.88146 34.1736 9.98354 33.9208 10.2169C33.6875 10.4502 33.5708 10.7273 33.5708 11.0481C33.5708 11.369 33.6778 11.6655 33.8917 11.9377C34.6111 12.8516 35.1701 13.8627 35.5688 14.971C35.9674 16.0794 36.1667 17.2558 36.1667 18.5002ZM25.6667 21.4169C26.4833 21.4169 27.1736 21.1301 27.7375 20.5565C28.3014 19.9828 28.5833 19.2974 28.5833 18.5002C28.5833 17.6835 28.3014 16.9933 27.7375 16.4294C27.1736 15.8655 26.4833 15.5835 25.6667 15.5835C24.85 15.5835 24.1597 15.8655 23.5958 16.4294C23.0319 16.9933 22.75 17.6835 22.75 18.5002C22.75 19.2974 23.0319 19.9828 23.5958 20.5565C24.1597 21.1301 24.85 21.4169 25.6667 21.4169ZM19.8333 29.0002C19.8333 28.6697 19.7215 28.3926 19.4979 28.169C19.2743 27.9453 18.9972 27.8335 18.6667 27.8335C18.3361 27.8335 18.059 27.9453 17.8354 28.169C17.6118 28.3926 17.5 28.6697 17.5 29.0002C17.5 30.2835 17.9569 31.3822 18.8708 32.296C19.7847 33.2099 20.8833 33.6669 22.1667 33.6669C23.3722 33.6669 24.359 33.3655 25.1271 32.7627C25.8951 32.1599 26.4833 31.2752 26.8917 30.1085C27.2222 29.1363 27.5382 28.4558 27.8396 28.0669C28.141 27.678 28.8361 27.0558 29.925 26.2002C31.1306 25.228 32.0833 24.1294 32.7833 22.9044C33.4833 21.6794 33.8333 20.2113 33.8333 18.5002C33.8333 16.1863 33.0507 14.2467 31.4854 12.6815C29.9201 11.1162 27.9806 10.3335 25.6667 10.3335C23.3528 10.3335 21.4132 11.1162 19.8479 12.6815C18.2826 14.2467 17.5 16.1863 17.5 18.5002C17.5 18.8308 17.6118 19.1078 17.8354 19.3315C18.059 19.5551 18.3361 19.6669 18.6667 19.6669C18.9972 19.6669 19.2743 19.5551 19.4979 19.3315C19.7215 19.1078 19.8333 18.8308 19.8333 18.5002C19.8333 16.8474 20.3924 15.462 21.5104 14.344C22.6285 13.2259 24.0139 12.6669 25.6667 12.6669C27.3194 12.6669 28.7049 13.2259 29.8229 14.344C30.941 15.462 31.5 16.8474 31.5 18.5002C31.5 19.8224 31.2375 20.9502 30.7125 21.8835C30.1875 22.8169 29.4389 23.653 28.4667 24.3919C27.4556 25.1308 26.6681 25.8502 26.1042 26.5502C25.5403 27.2502 25.1222 28.0085 24.85 28.8252C24.5778 29.6808 24.2521 30.3127 23.8729 30.721C23.4937 31.1294 22.925 31.3335 22.1667 31.3335C21.525 31.3335 20.9757 31.1051 20.5187 30.6481C20.0618 30.1912 19.8333 29.6419 19.8333 29.0002Z" fill="#62A9F5"/>
</g>
<path d="M54.748 17.562H58.654V19.47H54.748V17.562ZM54.622 21.018H58.528V22.926H54.622V21.018ZM58.276 14.934H60.67V24.528H58.276V14.934ZM52.84 16.068H55.396C55.396 20.604 52.84 23.52 47.782 24.906L46.846 23.016C51.076 21.918 52.84 19.83 52.84 17.22V16.068ZM47.764 16.068H54.514V17.976H47.764V16.068ZM55.144 24.744C58.528 24.744 60.778 26.04 60.778 28.128C60.778 30.216 58.528 31.53 55.144 31.53C51.76 31.53 49.51 30.216 49.51 28.128C49.51 26.04 51.76 24.744 55.144 24.744ZM55.144 26.58C53.11 26.58 51.886 27.102 51.886 28.128C51.886 29.154 53.11 29.658 55.144 29.658C57.196 29.658 58.42 29.154 58.42 28.128C58.42 27.102 57.196 26.58 55.144 26.58ZM67.0226 17.85H68.9486V18.462C68.9486 21.36 67.4726 23.97 64.2866 24.888L63.1706 23.016C65.8526 22.26 67.0226 20.352 67.0226 18.462V17.85ZM67.4726 17.85H69.4166V18.462C69.4166 20.172 70.6046 21.918 73.2866 22.62L72.2066 24.474C69.0026 23.628 67.4726 21.198 67.4726 18.462V17.85ZM63.7466 16.662H72.6926V18.534H63.7466V16.662ZM67.0226 14.88H69.4166V17.4H67.0226V14.88ZM72.2246 19.38H75.4106V21.306H72.2246V19.38ZM74.8346 14.934H77.2286V24.996H74.8346V14.934ZM71.5766 25.284C75.1046 25.284 77.2826 26.436 77.2826 28.434C77.2826 30.432 75.1046 31.602 71.5766 31.602C68.0486 31.602 65.8706 30.432 65.8706 28.434C65.8706 26.436 68.0486 25.284 71.5766 25.284ZM71.5766 27.102C69.3986 27.102 68.2646 27.534 68.2646 28.434C68.2646 29.334 69.3986 29.784 71.5766 29.784C73.7726 29.784 74.9066 29.334 74.9066 28.434C74.9066 27.534 73.7726 27.102 71.5766 27.102ZM81.7452 19.074H93.2472V20.982H81.7452V19.074ZM81.7452 15.204H84.1212V19.938H81.7452V15.204ZM79.8552 22.404H94.9392V24.312H79.8552V22.404ZM87.3432 25.374C90.9432 25.374 93.1212 26.49 93.1212 28.47C93.1212 30.432 90.9432 31.566 87.3432 31.566C83.7432 31.566 81.5472 30.432 81.5472 28.47C81.5472 26.49 83.7432 25.374 87.3432 25.374ZM87.3432 27.21C85.1112 27.21 83.9772 27.606 83.9772 28.47C83.9772 29.316 85.1112 29.73 87.3432 29.73C89.5752 29.73 90.7092 29.316 90.7092 28.47C90.7092 27.606 89.5752 27.21 87.3432 27.21ZM97.0258 22.872H98.3038C101.4 22.872 103.02 22.818 104.91 22.476L105.144 24.366C103.2 24.726 101.49 24.78 98.3038 24.78H97.0258V22.872ZM97.0078 15.888H104.334V21.144H99.4018V24.132H97.0258V19.362H101.958V17.778H97.0078V15.888ZM107.952 14.952H110.346V25.212H107.952V14.952ZM105.288 17.238H108.384V19.146H105.288V17.238ZM105.288 20.784H108.384V22.692H105.288V20.784ZM98.9338 25.968H110.346V31.62H107.952V27.876H98.9338V25.968Z" fill="#62A9F5"/>
<mask id="mask1_1025_13246" style="mask-type:alpha" maskUnits="userSpaceOnUse" x="113" y="10" width="24" height="24">
<rect x="113" y="10" width="24" height="24" fill="#D9D9D9"/>
</mask>
<g mask="url(#mask1_1025_13246)">
<path d="M125 24.3998L120.1 29.2998C119.917 29.4831 119.683 29.5748 119.4 29.5748C119.117 29.5748 118.883 29.4831 118.7 29.2998C118.517 29.1165 118.425 28.8831 118.425 28.5998C118.425 28.3165 118.517 28.0831 118.7 27.8998L123.6 22.9998L118.7 18.0998C118.517 17.9165 118.425 17.6831 118.425 17.3998C118.425 17.1165 118.517 16.8831 118.7 16.6998C118.883 16.5165 119.117 16.4248 119.4 16.4248C119.683 16.4248 119.917 16.5165 120.1 16.6998L125 21.5998L129.9 16.6998C130.083 16.5165 130.317 16.4248 130.6 16.4248C130.883 16.4248 131.117 16.5165 131.3 16.6998C131.483 16.8831 131.575 17.1165 131.575 17.3998C131.575 17.6831 131.483 17.9165 131.3 18.0998L126.4 22.9998L131.3 27.8998C131.483 28.0831 131.575 28.3165 131.575 28.5998C131.575 28.8831 131.483 29.1165 131.3 29.2998C131.117 29.4831 130.883 29.5748 130.6 29.5748C130.317 29.5748 130.083 29.4831 129.9 29.2998L125 24.3998Z" fill="#62A9F5"/>
</g>
</g>
<defs>
<filter id="filter0_b_1025_13246" x="-12" y="-12" width="175" height="68" filterUnits="userSpaceOnUse" color-interpolation-filters="sRGB">
<feFlood flood-opacity="0" result="BackgroundImageFix"/>
<feGaussianBlur in="BackgroundImageFix" stdDeviation="6"/>
<feComposite in2="SourceAlpha" operator="in" result="effect1_backgroundBlur_1025_13246"/>
<feBlend mode="normal" in="SourceGraphic" in2="effect1_backgroundBlur_1025_13246" result="shape"/>
</filter>
</defs>
</svg>
