<svg width="126" height="44" viewBox="0 0 126 44" fill="none" xmlns="http://www.w3.org/2000/svg">
<mask id="path-1-inside-1_20_1170" fill="white">
<path d="M0 4C0 1.79086 1.79086 0 4 0H122C124.209 0 126 1.79086 126 4V40C126 42.2091 124.209 44 122 44H4C1.79086 44 0 42.2091 0 40V4Z"/>
</mask>
<path d="M0 4C0 1.79086 1.79086 0 4 0H122C124.209 0 126 1.79086 126 4V40C126 42.2091 124.209 44 122 44H4C1.79086 44 0 42.2091 0 40V4Z" fill="#212121" fill-opacity="0.8"/>
<path d="M0 0H126H0ZM126 44H0H126ZM0 44V0V44ZM122 0C126.418 0 130 3.58172 130 8V36C130 40.4183 126.418 44 122 44C122 44 122 42.2091 122 40V4C122 1.79086 122 0 122 0Z" fill="#6F6F6F" mask="url(#path-1-inside-1_20_1170)"/>
<mask id="mask0_20_1170" style="mask-type:alpha" maskUnits="userSpaceOnUse" x="12" y="8" width="28" height="28">
<rect width="28" height="28" transform="matrix(-1 0 0 1 40 8)" fill="#D9D9D9"/>
</mask>
<g mask="url(#mask0_20_1170)">
<path d="M34.1667 18.5007C34.1667 19.7257 33.9674 20.8875 33.5688 21.9861C33.1701 23.0847 32.6111 24.091 31.8917 25.0049C31.6778 25.2771 31.5708 25.5736 31.5708 25.8944C31.5708 26.2153 31.6875 26.4924 31.9208 26.7257C32.1736 26.959 32.4653 27.0611 32.7958 27.0319C33.1264 27.0028 33.3986 26.8521 33.6125 26.5799C34.5069 25.4715 35.2118 24.2271 35.7271 22.8465C36.2424 21.466 36.5 20.0174 36.5 18.5007C36.5 16.9451 36.2424 15.4771 35.7271 14.0965C35.2118 12.716 34.5069 11.4715 33.6125 10.3632C33.3986 10.091 33.1264 9.94028 32.7958 9.91111C32.4653 9.88194 32.1736 9.98403 31.9208 10.2174C31.6875 10.4507 31.5708 10.7278 31.5708 11.0486C31.5708 11.3694 31.6778 11.666 31.8917 11.9382C32.6111 12.8521 33.1701 13.8632 33.5688 14.9715C33.9674 16.0799 34.1667 17.2562 34.1667 18.5007ZM23.6667 21.4174C24.4833 21.4174 25.1736 21.1306 25.7375 20.5569C26.3014 19.9833 26.5833 19.2979 26.5833 18.5007C26.5833 17.684 26.3014 16.9937 25.7375 16.4299C25.1736 15.866 24.4833 15.584 23.6667 15.584C22.85 15.584 22.1597 15.866 21.5958 16.4299C21.0319 16.9937 20.75 17.684 20.75 18.5007C20.75 19.2979 21.0319 19.9833 21.5958 20.5569C22.1597 21.1306 22.85 21.4174 23.6667 21.4174ZM17.8333 29.0007C17.8333 28.6701 17.7215 28.3931 17.4979 28.1694C17.2743 27.9458 16.9972 27.834 16.6667 27.834C16.3361 27.834 16.059 27.9458 15.8354 28.1694C15.6118 28.3931 15.5 28.6701 15.5 29.0007C15.5 30.284 15.9569 31.3826 16.8708 32.2965C17.7847 33.2104 18.8833 33.6674 20.1667 33.6674C21.3722 33.6674 22.359 33.366 23.1271 32.7632C23.8951 32.1604 24.4833 31.2757 24.8917 30.109C25.2222 29.1368 25.5382 28.4563 25.8396 28.0674C26.141 27.6785 26.8361 27.0563 27.925 26.2007C29.1306 25.2285 30.0833 24.1299 30.7833 22.9049C31.4833 21.6799 31.8333 20.2118 31.8333 18.5007C31.8333 16.1868 31.0507 14.2472 29.4854 12.6819C27.9201 11.1167 25.9806 10.334 23.6667 10.334C21.3528 10.334 19.4132 11.1167 17.8479 12.6819C16.2826 14.2472 15.5 16.1868 15.5 18.5007C15.5 18.8312 15.6118 19.1083 15.8354 19.3319C16.059 19.5556 16.3361 19.6674 16.6667 19.6674C16.9972 19.6674 17.2743 19.5556 17.4979 19.3319C17.7215 19.1083 17.8333 18.8312 17.8333 18.5007C17.8333 16.8479 18.3924 15.4625 19.5104 14.3444C20.6285 13.2264 22.0139 12.6674 23.6667 12.6674C25.3194 12.6674 26.7049 13.2264 27.8229 14.3444C28.941 15.4625 29.5 16.8479 29.5 18.5007C29.5 19.8229 29.2375 20.9507 28.7125 21.884C28.1875 22.8174 27.4389 23.6535 26.4667 24.3924C25.4556 25.1312 24.6681 25.8507 24.1042 26.5507C23.5403 27.2507 23.1222 28.009 22.85 28.8257C22.5778 29.6812 22.2521 30.3132 21.8729 30.7215C21.4938 31.1299 20.925 31.334 20.1667 31.334C19.525 31.334 18.9757 31.1056 18.5188 30.6486C18.0618 30.1917 17.8333 29.6424 17.8333 29.0007Z" fill="#6F6F6F"/>
</g>
<path d="M56.258 19.488H52.82C51.794 22.098 49.472 23.88 45.818 24.906L44.9 23.034C48.68 22.026 50.498 20.244 50.804 17.994H45.8V16.086H53.396C53.396 16.608 53.36 17.112 53.288 17.598H56.258V14.97H58.634V24.51H56.258V22.926H52.604V21.018H56.258V19.488ZM53.162 29.622C55.196 29.622 56.402 29.1 56.402 28.092C56.402 27.084 55.196 26.562 53.162 26.562C51.11 26.562 49.904 27.084 49.904 28.092C49.904 29.1 51.11 29.622 53.162 29.622ZM53.162 24.726C56.528 24.726 58.742 26.022 58.742 28.092C58.742 30.162 56.528 31.458 53.162 31.458C49.778 31.458 47.564 30.162 47.564 28.092C47.564 26.022 49.778 24.726 53.162 24.726ZM70.0626 19.398H72.6366V14.97H75.0126V24.978H72.6366V21.306H70.0626V19.398ZM71.1066 22.638L70.0266 24.456C68.1726 23.97 66.8766 22.944 66.1206 21.63C65.3826 23.142 64.0866 24.312 62.1606 24.87L61.0446 23.034C63.6726 22.278 64.8246 20.406 64.8606 18.552H61.6206V16.68H64.8606V14.916H67.2366V16.68H70.5126V18.552H67.2366C67.2726 20.262 68.4606 21.936 71.1066 22.638ZM69.4146 29.73C71.5746 29.73 72.7086 29.316 72.7086 28.416C72.7086 27.516 71.5746 27.084 69.4146 27.084C67.2186 27.084 66.1026 27.516 66.1026 28.416C66.1026 29.316 67.2186 29.73 69.4146 29.73ZM69.4146 25.266C72.9246 25.266 75.0846 26.418 75.0846 28.416C75.0846 30.396 72.9246 31.548 69.4146 31.548C65.8866 31.548 63.7266 30.396 63.7266 28.416C63.7266 26.418 65.8866 25.266 69.4146 25.266ZM90.8692 19.092V20.982H79.4212V15.258H81.7972V19.092H90.8692ZM84.9832 29.694C87.1972 29.694 88.3312 29.298 88.3312 28.434C88.3312 27.57 87.1972 27.174 84.9832 27.174C82.7692 27.174 81.6352 27.57 81.6352 28.434C81.6352 29.298 82.7692 29.694 84.9832 29.694ZM84.9832 25.356C88.5652 25.356 90.7432 26.49 90.7432 28.434C90.7432 30.378 88.5652 31.512 84.9832 31.512C81.4012 31.512 79.2412 30.378 79.2412 28.434C79.2412 26.49 81.4012 25.356 84.9832 25.356ZM77.5492 22.386H92.5432V24.276H77.5492V22.386ZM102.37 22.476L102.604 24.366C100.678 24.726 98.9678 24.78 95.8178 24.78H94.5398V19.38H99.4358V17.814H94.5218V15.906H101.776V21.144H96.8978V22.872C99.2738 22.854 100.732 22.782 102.37 22.476ZM96.4298 27.822V25.932H107.77V31.566H105.394V27.822H96.4298ZM105.394 14.988L107.77 14.97V25.194H105.394V22.692H102.73V20.802H105.394V19.164H102.73V17.256H105.394V14.988Z" fill="#6F6F6F"/>
</svg>
