<svg width="142" height="60" viewBox="0 0 142 60" fill="none" xmlns="http://www.w3.org/2000/svg">
<g filter="url(#filter0_bd_20_1170)">
<mask id="path-1-inside-1_20_1170" fill="white">
<path d="M8 8C8 5.79086 9.79086 4 12 4H130C132.209 4 134 5.79086 134 8V44C134 46.2091 132.209 48 130 48H12C9.79086 48 8 46.2091 8 44V8Z"/>
</mask>
<path d="M8 8C8 5.79086 9.79086 4 12 4H130C132.209 4 134 5.79086 134 8V44C134 46.2091 132.209 48 130 48H12C9.79086 48 8 46.2091 8 44V8Z" fill="#212121" fill-opacity="0.8" shape-rendering="crispEdges"/>
<path d="M8 4H134H8ZM134 48H8H134ZM8 48V4V48ZM130 4C134.418 4 138 7.58172 138 12V40C138 44.4183 134.418 48 130 48C130 48 130 46.2091 130 44V8C130 5.79086 130 4 130 4Z" fill="#6F6F6F" mask="url(#path-1-inside-1_20_1170)"/>
<mask id="mask0_20_1170" style="mask-type:alpha" maskUnits="userSpaceOnUse" x="20" y="12" width="28" height="28">
<rect width="28" height="28" transform="matrix(-1 0 0 1 48 12)" fill="#D9D9D9"/>
</mask>
<g mask="url(#mask0_20_1170)">
<path d="M42.1667 22.5007C42.1667 23.7257 41.9674 24.8875 41.5688 25.9861C41.1701 27.0847 40.6111 28.091 39.8917 29.0049C39.6778 29.2771 39.5708 29.5736 39.5708 29.8944C39.5708 30.2153 39.6875 30.4924 39.9208 30.7257C40.1736 30.959 40.4653 31.0611 40.7958 31.0319C41.1264 31.0028 41.3986 30.8521 41.6125 30.5799C42.5069 29.4715 43.2118 28.2271 43.7271 26.8465C44.2424 25.466 44.5 24.0174 44.5 22.5007C44.5 20.9451 44.2424 19.4771 43.7271 18.0965C43.2118 16.716 42.5069 15.4715 41.6125 14.3632C41.3986 14.091 41.1264 13.9403 40.7958 13.9111C40.4653 13.8819 40.1736 13.984 39.9208 14.2174C39.6875 14.4507 39.5708 14.7278 39.5708 15.0486C39.5708 15.3694 39.6778 15.666 39.8917 15.9382C40.6111 16.8521 41.1701 17.8632 41.5688 18.9715C41.9674 20.0799 42.1667 21.2562 42.1667 22.5007ZM31.6667 25.4174C32.4833 25.4174 33.1736 25.1306 33.7375 24.5569C34.3014 23.9833 34.5833 23.2979 34.5833 22.5007C34.5833 21.684 34.3014 20.9937 33.7375 20.4299C33.1736 19.866 32.4833 19.584 31.6667 19.584C30.85 19.584 30.1597 19.866 29.5958 20.4299C29.0319 20.9937 28.75 21.684 28.75 22.5007C28.75 23.2979 29.0319 23.9833 29.5958 24.5569C30.1597 25.1306 30.85 25.4174 31.6667 25.4174ZM25.8333 33.0007C25.8333 32.6701 25.7215 32.3931 25.4979 32.1694C25.2743 31.9458 24.9972 31.834 24.6667 31.834C24.3361 31.834 24.059 31.9458 23.8354 32.1694C23.6118 32.3931 23.5 32.6701 23.5 33.0007C23.5 34.284 23.9569 35.3826 24.8708 36.2965C25.7847 37.2104 26.8833 37.6674 28.1667 37.6674C29.3722 37.6674 30.359 37.366 31.1271 36.7632C31.8951 36.1604 32.4833 35.2757 32.8917 34.109C33.2222 33.1368 33.5382 32.4563 33.8396 32.0674C34.141 31.6785 34.8361 31.0563 35.925 30.2007C37.1306 29.2285 38.0833 28.1299 38.7833 26.9049C39.4833 25.6799 39.8333 24.2118 39.8333 22.5007C39.8333 20.1868 39.0507 18.2472 37.4854 16.6819C35.9201 15.1167 33.9806 14.334 31.6667 14.334C29.3528 14.334 27.4132 15.1167 25.8479 16.6819C24.2826 18.2472 23.5 20.1868 23.5 22.5007C23.5 22.8312 23.6118 23.1083 23.8354 23.3319C24.059 23.5556 24.3361 23.6674 24.6667 23.6674C24.9972 23.6674 25.2743 23.5556 25.4979 23.3319C25.7215 23.1083 25.8333 22.8312 25.8333 22.5007C25.8333 20.8479 26.3924 19.4625 27.5104 18.3444C28.6285 17.2264 30.0139 16.6674 31.6667 16.6674C33.3194 16.6674 34.7049 17.2264 35.8229 18.3444C36.941 19.4625 37.5 20.8479 37.5 22.5007C37.5 23.8229 37.2375 24.9507 36.7125 25.884C36.1875 26.8174 35.4389 27.6535 34.4667 28.3924C33.4556 29.1312 32.6681 29.8507 32.1042 30.5507C31.5403 31.2507 31.1222 32.009 30.85 32.8257C30.5778 33.6812 30.2521 34.3132 29.8729 34.7215C29.4938 35.1299 28.925 35.334 28.1667 35.334C27.525 35.334 26.9757 35.1056 26.5188 34.6486C26.0618 34.1917 25.8333 33.6424 25.8333 33.0007Z" fill="#6F6F6F"/>
</g>
<path d="M64.258 23.488H60.82C59.794 26.098 57.472 27.88 53.818 28.906L52.9 27.034C56.68 26.026 58.498 24.244 58.804 21.994H53.8V20.086H61.396C61.396 20.608 61.36 21.112 61.288 21.598H64.258V18.97H66.634V28.51H64.258V26.926H60.604V25.018H64.258V23.488ZM61.162 33.622C63.196 33.622 64.402 33.1 64.402 32.092C64.402 31.084 63.196 30.562 61.162 30.562C59.11 30.562 57.904 31.084 57.904 32.092C57.904 33.1 59.11 33.622 61.162 33.622ZM61.162 28.726C64.528 28.726 66.742 30.022 66.742 32.092C66.742 34.162 64.528 35.458 61.162 35.458C57.778 35.458 55.564 34.162 55.564 32.092C55.564 30.022 57.778 28.726 61.162 28.726ZM78.0626 23.398H80.6366V18.97H83.0126V28.978H80.6366V25.306H78.0626V23.398ZM79.1066 26.638L78.0266 28.456C76.1726 27.97 74.8766 26.944 74.1206 25.63C73.3826 27.142 72.0866 28.312 70.1606 28.87L69.0446 27.034C71.6726 26.278 72.8246 24.406 72.8606 22.552H69.6206V20.68H72.8606V18.916H75.2366V20.68H78.5126V22.552H75.2366C75.2726 24.262 76.4606 25.936 79.1066 26.638ZM77.4146 33.73C79.5746 33.73 80.7086 33.316 80.7086 32.416C80.7086 31.516 79.5746 31.084 77.4146 31.084C75.2186 31.084 74.1026 31.516 74.1026 32.416C74.1026 33.316 75.2186 33.73 77.4146 33.73ZM77.4146 29.266C80.9246 29.266 83.0846 30.418 83.0846 32.416C83.0846 34.396 80.9246 35.548 77.4146 35.548C73.8866 35.548 71.7266 34.396 71.7266 32.416C71.7266 30.418 73.8866 29.266 77.4146 29.266ZM98.8692 23.092V24.982H87.4212V19.258H89.7972V23.092H98.8692ZM92.9832 33.694C95.1972 33.694 96.3312 33.298 96.3312 32.434C96.3312 31.57 95.1972 31.174 92.9832 31.174C90.7692 31.174 89.6352 31.57 89.6352 32.434C89.6352 33.298 90.7692 33.694 92.9832 33.694ZM92.9832 29.356C96.5652 29.356 98.7432 30.49 98.7432 32.434C98.7432 34.378 96.5652 35.512 92.9832 35.512C89.4012 35.512 87.2412 34.378 87.2412 32.434C87.2412 30.49 89.4012 29.356 92.9832 29.356ZM85.5492 26.386H100.543V28.276H85.5492V26.386ZM110.37 26.476L110.604 28.366C108.678 28.726 106.968 28.78 103.818 28.78H102.54V23.38H107.436V21.814H102.522V19.906H109.776V25.144H104.898V26.872C107.274 26.854 108.732 26.782 110.37 26.476ZM104.43 31.822V29.932H115.77V35.566H113.394V31.822H104.43ZM113.394 18.988L115.77 18.97V29.194H113.394V26.692H110.73V24.802H113.394V23.164H110.73V21.256H113.394V18.988Z" fill="#6F6F6F"/>
</g>
<defs>
<filter id="filter0_bd_20_1170" x="-8" y="-12" width="158" height="76" filterUnits="userSpaceOnUse" color-interpolation-filters="sRGB">
<feFlood flood-opacity="0" result="BackgroundImageFix"/>
<feGaussianBlur in="BackgroundImageFix" stdDeviation="8"/>
<feComposite in2="SourceAlpha" operator="in" result="effect1_backgroundBlur_20_1170"/>
<feColorMatrix in="SourceAlpha" type="matrix" values="0 0 0 0 0 0 0 0 0 0 0 0 0 0 0 0 0 0 127 0" result="hardAlpha"/>
<feOffset dy="4"/>
<feGaussianBlur stdDeviation="4"/>
<feComposite in2="hardAlpha" operator="out"/>
<feColorMatrix type="matrix" values="0 0 0 0 0 0 0 0 0 0 0 0 0 0 0 0 0 0 0.25 0"/>
<feBlend mode="normal" in2="effect1_backgroundBlur_20_1170" result="effect2_dropShadow_20_1170"/>
<feBlend mode="normal" in="SourceGraphic" in2="effect2_dropShadow_20_1170" result="shape"/>
</filter>
</defs>
</svg>
