<svg width="500" height="1024" viewBox="0 0 500 1024" fill="none" xmlns="http://www.w3.org/2000/svg">
<g clip-path="url(#clip0_109_1379)">
<rect width="500" height="1024" fill="#FEF69B"/>
<path d="M212.641 414.147C208.508 414.147 204.678 411.865 201.857 407.72C199.199 403.815 197.734 398.661 197.734 393.206C197.734 387.751 199.199 382.598 201.857 378.692C204.678 374.548 208.508 372.266 212.641 372.266C216.774 372.266 220.604 374.548 223.425 378.692C226.083 382.598 227.548 387.751 227.548 393.206C227.548 398.661 226.083 403.815 223.425 407.72C220.604 411.865 216.774 414.147 212.641 414.147Z" fill="#F7F7F7" stroke="#171717" stroke-width="5.16358"/>
<path d="M215.264 405.539C219.621 405.539 223.154 400.351 223.154 393.953C223.154 387.554 219.621 382.367 215.264 382.367C210.907 382.367 207.375 387.554 207.375 393.953C207.375 400.351 210.907 405.539 215.264 405.539Z" fill="#171717"/>
<path d="M219.177 395.886C220.337 395.886 221.276 394.946 221.276 393.787C221.276 392.627 220.337 391.688 219.177 391.688C218.018 391.688 217.078 392.627 217.078 393.787C217.078 394.946 218.018 395.886 219.177 395.886Z" fill="#F7F7F7"/>
<path d="M201.196 418.012C201.196 418.012 204.658 409.82 212.366 409.129C220.073 408.439 224.354 414.464 224.354 414.464" fill="#FEF69B"/>
<path d="M201.196 418.012C201.196 418.012 204.658 409.82 212.366 409.129C220.073 408.439 224.354 414.464 224.354 414.464" stroke="#171717" stroke-width="5.16358" stroke-miterlimit="10" stroke-linecap="round"/>
<path d="M204.937 420.539C204.937 420.539 207.239 414.206 213.044 413.384C218.848 412.562 222.322 416.954 222.322 416.954" fill="#FEF69B"/>
<path d="M205.153 374.538C200.756 374.675 197.32 364.508 197.32 364.508" stroke="#171717" stroke-width="5.16358" stroke-miterlimit="10" stroke-linecap="round"/>
<path d="M213.099 372.158C209.87 371.797 208.43 364 208.43 364" stroke="#171717" stroke-width="5.16358" stroke-miterlimit="10" stroke-linecap="round"/>
<path d="M199.652 381.187C196.912 381.711 193.75 375.688 193.75 375.688" stroke="#171717" stroke-width="5.16358" stroke-miterlimit="10" stroke-linecap="round"/>
<path d="M214.609 427.247L226.102 462.623L282.309 386.305" stroke="#171717" stroke-width="19.2845" stroke-linecap="round" stroke-linejoin="round"/>
<path d="M87.6991 423.946C92.8351 418.704 98.8139 418.557 105.178 420.881C107.351 421.675 109.086 423.171 110.518 424.948C111.232 425.836 111.565 425.976 112.374 425.001C116.89 419.566 122.827 418.572 129.324 420.114C135.624 421.614 139.036 426.066 140.673 432.075C141.417 434.808 141.527 437.615 141.538 440.416C141.568 447.917 141.549 455.419 141.546 462.921C141.546 463.59 141.512 464.262 141.455 464.928C141.073 469.485 138.186 472.138 133.783 471.987C129.248 471.832 126.535 469.005 126.516 464.296C126.482 456.553 126.493 448.806 126.512 441.062C126.512 439.77 126.383 438.504 125.987 437.275C125.223 434.925 123.364 433.36 121.028 433.3C118.625 433.239 116.795 434.328 115.647 436.455C114.932 437.778 114.77 439.225 114.774 440.707C114.785 448.515 114.8 456.319 114.77 464.126C114.747 469.844 111.017 472.815 105.341 471.707C102.279 471.11 100.212 468.941 99.9816 465.823C99.581 460.404 99.8947 454.973 99.8116 449.55C99.7587 446.137 99.8229 442.717 99.6453 439.312C99.4563 435.665 97.117 433.281 94.0067 433.277C90.9039 433.273 88.4663 435.654 88.2434 439.218C87.805 446.221 88.1602 453.239 88.0582 460.249C88.0317 462.014 88.0393 463.786 87.9108 465.547C87.6198 469.466 84.5888 472.04 80.4128 471.998C76.1271 471.957 72.8392 469.104 72.8241 465.166C72.7712 452.237 72.7863 439.309 72.8165 426.38C72.8241 423.243 74.6684 420.836 77.5519 419.91C81.0326 418.795 84.7816 419.797 86.6863 422.37C87.0416 422.85 87.3363 423.372 87.7105 423.95L87.6991 423.946Z" fill="#171717"/>
<path d="M374.552 447.837C375.474 447.462 375.527 446.729 375.754 446.128C378.063 440.029 380.368 433.929 382.662 427.826C383.524 425.532 384.707 423.514 387.114 422.527C390.962 420.948 394.922 422.652 396.634 426.866C398.834 432.285 400.825 437.788 402.915 443.252C403.524 444.84 404.155 446.416 404.816 448.097C405.595 447.644 405.58 446.926 405.761 446.348C408.044 439.144 410.288 431.93 412.59 424.731C413.788 420.986 416.071 419.394 419.801 419.565C425.613 419.829 428.425 423.827 426.554 429.345C424.714 434.768 422.741 440.15 420.821 445.546C418.387 452.375 416.059 459.246 413.471 466.018C411.139 472.122 404.007 473.879 399.178 469.733C397.741 468.501 396.895 466.903 396.256 465.16C394.416 460.123 392.56 455.089 390.705 450.059C390.5 449.503 390.251 448.959 389.998 448.354C389.215 448.899 389.17 449.673 388.924 450.319C386.937 455.561 385.024 460.837 382.995 466.064C381.638 469.552 379.008 471.626 375.255 471.91C372.058 472.152 369.424 470.818 367.447 468.282C366.65 467.258 366.192 466.056 365.762 464.85C361.616 453.26 357.474 441.669 353.328 430.074C352.553 427.909 352.013 425.698 353.086 423.502C354.639 420.328 357.546 419.5 360.758 419.508C363.921 419.519 365.932 420.959 366.933 424.016C369.303 431.257 371.559 438.532 373.864 445.792C374.08 446.472 374.318 447.141 374.552 447.833V447.837Z" fill="#171717"/>
<path d="M291.015 445.827C291.015 452.104 291.045 458.382 290.999 464.655C290.969 468.646 288.702 471.114 284.586 471.809C280.629 472.478 277.122 470.622 275.822 467.187C275.403 466.084 275.346 464.923 275.346 463.771C275.331 451.768 275.293 439.762 275.353 427.759C275.387 420.919 281.57 417.234 287.424 420.469C289.919 421.844 290.999 424.055 291.007 426.814C291.03 433.152 291.015 439.489 291.015 445.827Z" fill="#171717"/>
<path d="M198.784 440.039C195.292 421.612 175.175 414.428 160.186 423.044C151.113 428.263 146.46 438.864 148.206 449.578C149.911 460.016 155.784 467.072 165.927 470.39C170.904 472.019 176.029 471.992 181.161 471.183C185.114 470.564 188.935 469.547 192.397 467.457C195.114 465.817 196.203 463.077 195.356 460.092C194.252 456.195 190.715 454.309 186.925 455.791C182.726 457.431 178.459 458.625 173.909 458.372C170.33 458.172 167.254 456.868 165.088 453.871C164.812 453.486 164.389 453.062 164.616 452.563C164.869 452.008 165.481 452.242 165.935 452.242C170.341 452.223 174.748 452.231 179.151 452.231V452.204C183.557 452.204 187.964 452.272 192.367 452.182C196.15 452.106 198.292 450.039 199.003 446.384C199.422 444.215 199.173 442.099 198.78 440.032L198.784 440.039ZM182.219 439.495C179.411 439.442 176.6 439.48 173.792 439.48C170.919 439.48 168.051 439.45 165.179 439.495C164.026 439.514 163.901 439.087 164.449 438.225C166.653 434.752 169.918 432.976 173.939 432.98C177.839 432.984 180.972 434.741 183.032 438.169C183.64 439.181 183.398 439.518 182.219 439.495Z" fill="#171717"/>
<path d="M349.276 440.279C345.788 421.512 325.527 414.482 310.675 423.012C301.087 428.522 296.397 440.143 298.929 451.284C301.121 460.94 306.945 467.394 316.423 470.425C321.347 472.001 326.411 471.99 331.483 471.204C335.433 470.595 339.25 469.56 342.738 467.523C344.465 466.514 345.606 465.15 345.909 463.086C346.649 457.996 342.152 453.548 336.891 455.913C332.946 457.686 328.77 458.6 324.416 458.377C320.845 458.192 317.742 456.949 315.58 453.929C315.274 453.502 314.73 453.053 315.104 452.482C315.399 452.04 316.007 452.236 316.476 452.236C320.818 452.225 325.164 452.229 329.507 452.229V452.21C333.849 452.21 338.195 452.263 342.537 452.195C346.676 452.13 348.97 449.965 349.499 445.914C349.748 444.009 349.616 442.112 349.276 440.271V440.279ZM332.322 439.474C329.635 439.485 326.944 439.474 324.257 439.474C321.385 439.474 318.513 439.44 315.644 439.489C314.348 439.512 314.31 439.051 314.911 438.125C317.069 434.803 320.221 433.061 324.095 432.97C327.927 432.879 331.083 434.512 333.214 437.788C334.197 439.3 334.08 439.463 332.322 439.47V439.474Z" fill="#171717"/>
<path d="M98.2778 500.792V501.608C98.2778 504.008 99.4618 506.552 101.926 507.576L100.774 509.24C99.0618 508.504 97.8938 507.064 97.2378 505.288C96.5818 507.208 95.3978 508.824 93.6698 509.608L92.4698 507.928C94.9338 506.824 96.1338 504.12 96.1338 501.608V500.792H93.0618V499.048H101.318V500.792H98.2778ZM102.678 497.64H104.79V512.376H102.678V497.64ZM119.541 497.656V508.232H117.413V497.656H119.541ZM109.573 502.328C109.573 503.512 110.437 504.232 111.525 504.232C112.629 504.232 113.461 503.512 113.461 502.328C113.461 501.112 112.629 500.408 111.525 500.408C110.437 500.408 109.573 501.112 109.573 502.328ZM115.525 502.328C115.525 504.472 113.781 506.056 111.525 506.056C109.269 506.056 107.509 504.472 107.509 502.328C107.509 500.152 109.269 498.584 111.525 498.584C113.781 498.584 115.525 500.152 115.525 502.328ZM111.845 510.44H119.909V512.12H109.733V507.192H111.845V510.44ZM126.755 498.616C129.059 498.616 130.819 500.136 130.819 502.248C130.819 504.376 129.059 505.88 126.755 505.88C124.451 505.88 122.707 504.376 122.707 502.248C122.707 500.136 124.451 498.616 126.755 498.616ZM126.755 500.424C125.619 500.424 124.755 501.096 124.755 502.248C124.755 503.4 125.619 504.072 126.755 504.072C127.891 504.072 128.755 503.4 128.755 502.248C128.755 501.096 127.891 500.424 126.755 500.424ZM132.195 497.624H134.307V512.408H132.195V497.624ZM122.355 509.416L122.083 507.704C124.675 507.704 128.291 507.688 131.395 507.224L131.523 508.744C128.355 509.384 124.899 509.416 122.355 509.416ZM143.307 504.584V507.24C145.547 507.224 147.403 507.112 149.483 506.76L149.707 508.472C147.307 508.888 145.147 508.984 142.475 508.984H141.147V502.92H145.931V500.568H141.131V498.888H148.091V504.584H143.307ZM150.507 497.624H152.619V512.408H150.507V497.624ZM164.762 502.92V501.448H158.698V502.92H164.762ZM166.842 498.168V504.6H156.602V498.168H158.698V499.784H164.762V498.168H166.842ZM168.426 505.992V507.688H165.45V512.392H163.322V507.688H160.17V512.392H158.058V507.688H155.082V505.992H168.426ZM177.513 509.032H183.145V510.76H169.801V509.032H175.401V506.84H171.337V501.848H179.561V500.264H171.321V498.584H181.641V503.496H173.433V505.144H181.977V506.84H177.513V509.032ZM190.704 499.032V507C192.56 506.952 194.56 506.792 196.624 506.392L196.832 508.12C194.384 508.632 192.016 508.76 189.872 508.76H188.592V499.032H190.704ZM201.744 503.192V504.936H199.68V512.344H197.568V497.624H199.68V503.192H201.744ZM212.495 500.04V499.32H204.495V497.896H214.575V501.368H206.607V502.136H214.831V503.56H204.527V500.04H212.495ZM206.479 510.024V510.824H215.023V512.248H204.383V508.696H212.527V507.944H204.367V506.52H214.623V510.024H206.479ZM202.863 504.264H216.207V505.784H202.863V504.264ZM223.351 501.4C223.351 502.44 224.135 503.064 225.239 503.064C226.343 503.064 227.127 502.44 227.127 501.4C227.127 500.376 226.343 499.752 225.239 499.752C224.135 499.752 223.351 500.376 223.351 501.4ZM229.159 501.4C229.159 503.368 227.495 504.76 225.239 504.76C222.999 504.76 221.319 503.368 221.319 501.4C221.319 499.464 222.999 498.056 225.239 498.056C227.495 498.056 229.159 499.464 229.159 501.4ZM225.191 509.608V510.568H233.239V512.2H223.095V508.088H230.727V507.208H223.079V505.576H232.807V509.608H225.191ZM232.807 500.472H234.743V502.2H232.807V505H230.695V497.64H232.807V500.472ZM239.878 507.272C240.966 507.272 241.718 506.104 241.718 503.912C241.718 501.736 240.966 500.568 239.878 500.568C238.774 500.568 238.038 501.736 238.038 503.912C238.038 506.104 238.774 507.272 239.878 507.272ZM239.878 498.664C242.102 498.664 243.75 500.68 243.75 503.912C243.75 507.16 242.102 509.192 239.878 509.192C237.638 509.192 236.006 507.16 236.006 503.912C236.006 500.68 237.638 498.664 239.878 498.664ZM249.606 503.192V504.936H247.462V512.376H245.35V497.64H247.462V503.192H249.606ZM254.148 502.504V504.568H260.452V502.504H254.148ZM258.356 508.952H263.988V510.664H250.644V508.952H256.244V506.248H252.052V498.552H254.148V500.84H260.452V498.552H262.532V506.248H258.356V508.952ZM277.235 501.624V503.304H267.011V498.168H269.123V501.624H277.235ZM268.995 507.672V510.376H277.315V512.056H266.867V507.672H268.995ZM265.363 504.808H278.707V506.504H265.363V504.808ZM284.283 498.6H291.259C291.259 502.568 288.795 505.304 284.443 506.52L283.595 504.824C286.811 503.96 288.619 502.296 288.939 500.28H284.283V498.6ZM290.523 510.744C292.315 510.744 293.387 510.28 293.387 509.368C293.387 508.456 292.315 507.992 290.523 507.992C288.731 507.992 287.659 508.456 287.659 509.368C287.659 510.28 288.731 510.744 290.523 510.744ZM290.523 506.344C293.499 506.344 295.467 507.512 295.467 509.368C295.467 511.224 293.499 512.392 290.523 512.392C287.547 512.392 285.579 511.224 285.579 509.368C285.579 507.512 287.547 506.344 290.523 506.344ZM295.307 501.08H297.259V502.824H295.307V506.152H293.195V497.624H295.307V501.08ZM300.602 502.056C300.602 503.192 301.418 503.88 302.538 503.88C303.642 503.88 304.474 503.192 304.474 502.056C304.474 500.904 303.642 500.232 302.538 500.232C301.418 500.232 300.602 500.904 300.602 502.056ZM306.522 502.056C306.522 504.152 304.794 505.656 302.538 505.656C300.266 505.656 298.538 504.152 298.538 502.056C298.538 499.96 300.266 498.44 302.538 498.44C304.794 498.44 306.522 499.96 306.522 502.056ZM300.202 508.616V506.92H310.026V512.392H307.914V508.616H300.202ZM311.914 501.272H310.026V502.744H311.914V504.472H310.026V506.328H307.914V497.64H310.026V499.56H311.914V501.272ZM322.024 504.264L321 505.912C319.384 505.384 318.296 504.328 317.656 503.016C317 504.472 315.848 505.624 314.136 506.2L313.064 504.52C315.432 503.752 316.488 501.896 316.536 500.072H313.64V498.392H321.56V500.072H318.696C318.76 501.768 319.768 503.512 322.024 504.264ZM317.736 508.408V510.552H323.4V508.408H317.736ZM315.656 512.2V506.76H325.464V512.2H315.656ZM323.352 497.64H325.464V506.152H323.352V502.76H321.128V501.048H323.352V497.64ZM336.896 503.096V501.624H334V503.096H336.896ZM338.976 498.28V504.744H331.92V498.28H334V500.04H336.896V498.28H338.976ZM335.472 509.704V510.632H343.52V512.264H333.376V508.2H341.008V507.304H333.36V505.704H343.088V509.704H335.472ZM343.088 500.488H345.024V502.2H343.088V505.128H340.976V497.64H343.088V500.488ZM359.551 504.344H353.919V505.704H357.951V509.688H349.823V510.632H358.319V512.264H347.711V508.248H355.839V507.352H347.695V505.704H351.807V504.344H346.207V502.696H355.615C355.839 501.544 355.887 500.632 355.903 499.848H347.855V498.184H357.983V499.192C357.983 500.12 357.983 501.272 357.727 502.696H359.551V504.344ZM370.087 498.776V500.904C370.087 503.688 371.159 506.392 373.591 507.48L372.343 509.16C370.727 508.376 369.655 506.936 369.047 505.16C368.407 507.048 367.303 508.584 365.655 509.416L364.343 507.72C366.839 506.568 367.959 503.704 367.959 500.904V498.776H370.087ZM374.807 497.624H376.919V512.408H374.807V503.944H371.975V502.248H374.807V497.624ZM389.365 497.624H391.477V512.408H389.365V497.624ZM379.989 498.808H382.085V502.376H385.157V498.808H387.253V508.968H379.989V498.808ZM382.085 504.024V507.288H385.157V504.024H382.085ZM406.868 504.568L405.972 506.344C403.412 505.832 401.524 504.408 400.58 502.536C399.636 504.408 397.764 505.848 395.204 506.344L394.308 504.568C397.62 504.008 399.46 501.672 399.46 499.56V498.504H401.716V499.56C401.716 501.72 403.54 504.008 406.868 504.568ZM393.988 508.872H407.332V510.584H393.988V508.872Z" fill="#171717"/>
</g>
<defs>
<clipPath id="clip0_109_1379">
<rect width="500" height="1024" fill="white"/>
</clipPath>
</defs>
</svg>
