<svg width="36" height="36" viewBox="0 0 36 36" fill="none" xmlns="http://www.w3.org/2000/svg">
<circle cx="18" cy="18" r="18" fill="#212121"/>
<path d="M10.4033 23.1958C10.44 22.8616 10.4583 22.6945 10.4812 22.5752C10.7598 21.1279 11.9304 20.1536 13.4042 20.1423C13.5256 20.1414 13.7152 20.1553 14.0944 20.1831C15.2722 20.2695 16.599 20.3403 17.7854 20.3403C19.0237 20.3403 20.3968 20.2632 21.5906 20.1717C21.9563 20.1436 22.1392 20.1296 22.2581 20.13C23.6544 20.1337 24.7824 21.0001 25.1463 22.3482C25.1773 22.463 25.2069 22.6216 25.2661 22.939C25.3313 23.2889 25.364 23.4639 25.3767 23.606C25.5239 25.2496 24.3161 26.7035 22.6735 26.8601C22.5314 26.8737 22.3534 26.8737 21.9974 26.8737L13.6998 26.8737C13.376 26.8737 13.214 26.8737 13.0816 26.8619C11.5099 26.7223 10.315 25.3892 10.3476 23.8117C10.3503 23.6788 10.368 23.5178 10.4033 23.1958Z" fill="#8B8B8B"/>
<path fill-rule="evenodd" clip-rule="evenodd" d="M22.2567 20.6299C22.1632 20.6297 22.0072 20.6412 21.6288 20.6702C20.4291 20.7622 19.0418 20.8403 17.7854 20.8403C16.5816 20.8403 15.2413 20.7686 14.0578 20.6818C13.6655 20.653 13.5035 20.6416 13.408 20.6423C12.1725 20.6517 11.2057 21.4564 10.9722 22.6697C10.9541 22.7637 10.9382 22.9044 10.9003 23.2503C10.8638 23.5834 10.8496 23.7169 10.8475 23.822C10.8203 25.1366 11.8161 26.2476 13.1258 26.3639C13.2305 26.3732 13.3648 26.3737 13.6998 26.3737L21.9974 26.3737C22.3657 26.3737 22.5137 26.3731 22.626 26.3624C23.9949 26.2318 25.0014 25.0203 24.8787 23.6506C24.8686 23.5383 24.8421 23.3927 24.7745 23.0307C24.7133 22.7022 24.688 22.569 24.6636 22.4784C24.3584 21.348 23.4276 20.6331 22.2567 20.6299ZM21.5904 19.6702C21.9206 19.6449 22.1204 19.6296 22.2595 19.63C23.8812 19.6344 25.2064 20.6521 25.629 22.2179C25.6652 22.3521 25.6981 22.5282 25.7517 22.8157L25.7639 22.881C25.8232 23.1989 25.8598 23.3952 25.8747 23.5614C26.0464 25.4789 24.6374 27.1751 22.7209 27.3578C22.5548 27.3737 22.3551 27.3737 22.0318 27.3737L13.6689 27.3737C13.3745 27.3737 13.1921 27.3737 13.0373 27.3599C11.2037 27.1971 9.80965 25.6418 9.84768 23.8013C9.85089 23.646 9.87078 23.4647 9.90289 23.172C9.904 23.1619 9.90513 23.1517 9.90627 23.1413C9.90751 23.13 9.90874 23.1188 9.90995 23.1078C9.94311 22.8052 9.9634 22.6201 9.99023 22.4807C10.3138 20.7995 11.6883 19.6554 13.4003 19.6423C13.5423 19.6412 13.7491 19.6564 14.0914 19.6815L14.131 19.6845C15.3032 19.7705 16.6163 19.8403 17.7854 19.8403C19.0055 19.8403 20.3645 19.7642 21.5524 19.6732L21.5904 19.6702Z" fill="#8B8B8B"/>
<path d="M13.9999 12.8737C13.9999 10.6645 15.7908 8.87366 17.9999 8.87366C20.2091 8.87366 21.9999 10.6645 21.9999 12.8737V13.4451C21.9999 15.3386 20.4649 16.8737 18.5714 16.8737H17.4285C15.535 16.8737 13.9999 15.3386 13.9999 13.4451V12.8737Z" fill="#8B8B8B"/>
</svg>
