<svg width="48" height="48" viewBox="0 0 48 48" fill="none" xmlns="http://www.w3.org/2000/svg">
<circle cx="30" cy="30" r="18" fill="#333333"/>
<path d="M24.9503 36.1031C23.5232 36.1031 22.2009 35.3151 21.227 33.8843C20.3092 32.5358 19.8037 30.7566 19.8037 28.8733C19.8037 26.9899 20.3092 25.2107 21.227 23.8623C22.2009 22.4314 23.5232 21.6434 24.9503 21.6434C26.3773 21.6434 27.6996 22.4314 28.6736 23.8623C29.5913 25.2107 30.0968 26.9899 30.0968 28.8733C30.0968 30.7566 29.5913 32.5358 28.6736 33.8843C27.6996 35.3151 26.3773 36.1031 24.9503 36.1031Z" fill="#F7F7F7" stroke="#212121" stroke-width="1.5"/>
<path d="M28.5452 29.1312C28.5452 30.2302 28.2419 31.2237 27.753 31.9416C27.264 32.6597 26.5919 33.0992 25.8534 33.0992C25.115 33.0992 24.4428 32.6597 23.9538 31.9416C23.465 31.2237 23.1616 30.2302 23.1616 29.1312C23.1616 28.0322 23.465 27.0387 23.9538 26.3208C24.4428 25.6027 25.115 25.1632 25.8534 25.1632C26.5919 25.1632 27.264 25.6027 27.753 26.3208C28.2419 27.0387 28.5452 28.0322 28.5452 29.1312Z" fill="#171717" stroke="#212121" stroke-width="0.0639079"/>
<path d="M27.8975 29.0746C27.8975 29.4572 27.5873 29.7674 27.2047 29.7674C26.8221 29.7674 26.5119 29.4572 26.5119 29.0746C26.5119 28.692 26.8221 28.3819 27.2047 28.3819C27.5873 28.3819 27.8975 28.692 27.8975 29.0746Z" fill="#F7F7F7" stroke="#212121" stroke-width="0.0639079"/>
<path d="M27.5976 38.2151C27.9289 38.2151 28.1976 37.9465 28.1976 37.6151C28.1976 37.2838 27.9289 37.0151 27.5976 37.0151C27.2662 37.0151 26.9976 37.2838 26.9976 37.6151C26.9976 37.9465 27.2662 38.2151 27.5976 38.2151Z" fill="#6F6F6F"/>
<path d="M32.452 38.2151C32.1206 38.2151 31.852 37.9465 31.852 37.6151C31.852 37.2838 32.1206 37.0151 32.452 37.0151C32.7834 37.0151 33.052 37.2838 33.052 37.6151C33.052 37.9465 32.7834 38.2151 32.452 38.2151Z" fill="#6F6F6F"/>
<path d="M24.9381 39.3548C25.2695 39.3548 25.5382 39.0862 25.5382 38.7548C25.5382 38.4235 25.2695 38.1548 24.9381 38.1548C24.6068 38.1548 24.3381 38.4235 24.3381 38.7548C24.3381 39.0862 24.6068 39.3548 24.9381 39.3548Z" fill="#6F6F6F"/>
<path d="M35.1114 39.3548C34.78 39.3548 34.5114 39.0862 34.5114 38.7548C34.5114 38.4235 34.78 38.1548 35.1114 38.1548C35.4428 38.1548 35.7114 38.4235 35.7114 38.7548C35.7114 39.0862 35.4428 39.3548 35.1114 39.3548Z" fill="#6F6F6F"/>
<path d="M22.1942 38.4684C22.5256 38.4684 22.7943 38.1998 22.7943 37.8684C22.7943 37.5371 22.5256 37.2684 22.1942 37.2684C21.8629 37.2684 21.5942 37.5371 21.5942 37.8684C21.5942 38.1998 21.8629 38.4684 22.1942 38.4684Z" fill="#6F6F6F"/>
<path d="M37.8553 38.4684C37.5239 38.4684 37.2553 38.1998 37.2553 37.8684C37.2553 37.5371 37.5239 37.2684 37.8553 37.2684C38.1867 37.2684 38.4553 37.5371 38.4553 37.8684C38.4553 38.1998 38.1867 38.4684 37.8553 38.4684Z" fill="#6F6F6F"/>
<path d="M35.41 36.1031C33.9829 36.1031 32.6606 35.3151 31.6867 33.8843C30.7689 32.5358 30.2634 30.7566 30.2634 28.8733C30.2634 26.9899 30.7689 25.2107 31.6867 23.8623C32.6606 22.4314 33.9829 21.6434 35.41 21.6434C36.837 21.6434 38.1593 22.4314 39.1333 23.8623C40.051 25.2107 40.5565 26.9899 40.5565 28.8733C40.5565 30.7566 40.051 32.5358 39.1333 33.8843C38.1593 35.3151 36.837 36.1031 35.41 36.1031Z" fill="#F7F7F7" stroke="#212121" stroke-width="1.5"/>
<path d="M37.1646 29.1312C37.1646 30.2302 36.8612 31.2237 36.3724 31.9416C35.8834 32.6597 35.2113 33.0992 34.4728 33.0992C33.7343 33.0992 33.0622 32.6597 32.5732 31.9416C32.0844 31.2237 31.781 30.2302 31.781 29.1312C31.781 28.0322 32.0844 27.0387 32.5732 26.3208C33.0622 25.6027 33.7343 25.1632 34.4728 25.1632C35.2113 25.1632 35.8834 25.6027 36.3724 26.3208C36.8612 27.0387 37.1646 28.0322 37.1646 29.1312Z" fill="#171717" stroke="#212121" stroke-width="0.0639079"/>
<path d="M33.9861 29.0746C33.9861 29.4572 33.6759 29.7674 33.2933 29.7674C32.9107 29.7674 32.6006 29.4572 32.6006 29.0746C32.6006 28.692 32.9107 28.3819 33.2933 28.3819C33.6759 28.3819 33.9861 28.692 33.9861 29.0746Z" fill="#F7F7F7" stroke="#212121" stroke-width="0.0639079"/>
</svg>
