<svg width="106" height="28" viewBox="0 0 106 28" fill="none" xmlns="http://www.w3.org/2000/svg">
<mask id="mask0_73_1197" style="mask-type:alpha" maskUnits="userSpaceOnUse" x="0" y="0" width="28" height="28">
<rect width="28" height="28" fill="#D9D9D9"/>
</mask>
<g mask="url(#mask0_73_1197)">
<path d="M14.0253 13.5781C15.6633 13.5746 17.0151 14.9191 17.027 16.5654C17.039 18.2124 15.6605 19.5921 14.0154 19.578C12.3704 19.5647 11.0263 18.211 11.0313 16.5724C11.0362 14.929 12.3837 13.5824 14.0253 13.5781Z" fill="#FC6644"/>
<path fill-rule="evenodd" clip-rule="evenodd" d="M23.5694 19.1112C25.0285 17.7503 25.0285 15.405 23.5694 14.0441C21.3976 12.0184 17.9215 9.51562 14.0037 9.51562C10.086 9.51562 6.60992 12.0184 4.43807 14.0441C2.97898 15.405 2.97898 17.7503 4.43807 19.1112C6.60992 21.1368 10.086 23.6396 14.0037 23.6396C17.9215 23.6396 21.3976 21.1368 23.5694 19.1112ZM19.0217 16.5564C19.0018 13.8125 16.7488 11.5717 14.0188 11.5776C11.2829 11.5846 9.037 13.8289 9.02879 16.5681C9.02059 19.2991 11.2606 21.5551 14.0024 21.5774C16.7441 21.6008 19.0416 19.3014 19.0217 16.5564Z" fill="#FC6644"/>
<path fill-rule="evenodd" clip-rule="evenodd" d="M14.0713 4.36719C14.6236 4.36719 15.0713 4.8149 15.0713 5.36719V8.56862C14.719 8.53233 14.3619 8.51318 14.0007 8.51318C13.6877 8.51318 13.3777 8.52757 13.0713 8.55503V5.36719C13.0713 4.8149 13.519 4.36719 14.0713 4.36719ZM8.14728 10.1061L5.79304 7.75188C5.40252 7.36135 4.76936 7.36135 4.37883 7.75188C3.98831 8.1424 3.98831 8.77557 4.37883 9.16609L6.39144 11.1787C6.94065 10.8008 7.5276 10.437 8.14728 10.1061ZM7.11119 11.8985C7.66989 11.522 8.26424 11.165 8.88851 10.8473L9.32858 11.2874L7.91436 12.7016L7.11119 11.8985ZM21.7054 11.2447L23.7841 9.16609C24.1746 8.77557 24.1746 8.1424 23.7841 7.75188C23.3936 7.36135 22.7604 7.36135 22.3699 7.75188L19.9591 10.1626C20.576 10.4977 21.1598 10.8647 21.7054 11.2447ZM19.2196 10.9021C19.8408 11.2244 20.4316 11.5849 20.9865 11.9637L20.2486 12.7016L18.8343 11.2874L19.2196 10.9021ZM15.0713 9.57454V10.3672H13.0713V9.55953C13.378 9.52914 13.688 9.51318 14.0007 9.51318C14.3616 9.51318 14.7186 9.53441 15.0713 9.57454Z" fill="#FC6644"/>
</g>
<path d="M42.7 14.2L40.12 13.9C40.42 12.18 40.5 10.84 40.52 9.74H33.66V7.64H43.12V8.78C43.12 10.06 43.12 11.88 42.7 14.2ZM43.92 14.94L44.08 16.82C40.28 17.52 36 17.6 32.84 17.62L32.6 15.52C33.62 15.52 34.76 15.52 35.96 15.5V11.92H38.54V15.4C40.36 15.32 42.2 15.18 43.92 14.94ZM37.92 18.86V22.3H48.14V24.4H35.28V18.86H37.92ZM47.56 11.9H49.76V14.08H47.56V20.08H44.92V6.28H47.56V11.9ZM62.2784 13.7L61.1784 15.7C59.0784 15.22 57.5984 14.2 56.7584 12.88C55.9384 14.36 54.4184 15.5 52.2384 16L51.0984 13.98C53.9784 13.34 55.2984 11.68 55.3784 9.96H51.7784V7.88H55.3784V6.26H58.0184V7.88H61.6584V9.96H58.0184C58.0984 11.52 59.4184 13.1 62.2784 13.7ZM56.2384 21.5V22.6H66.2984V24.58H53.6184V19.64H63.1584V18.6H53.5984V16.6H65.7584V21.5H56.2384ZM65.7584 9.98H68.1784V12.14H65.7584V15.84H63.1184V6.3H65.7584V9.98ZM84.4769 10.88V12.98H71.7569V6.62H74.3969V10.88H84.4769ZM77.9369 22.66C80.3969 22.66 81.6569 22.22 81.6569 21.26C81.6569 20.3 80.3969 19.86 77.9369 19.86C75.4769 19.86 74.2169 20.3 74.2169 21.26C74.2169 22.22 75.4769 22.66 77.9369 22.66ZM77.9369 17.84C81.9169 17.84 84.3369 19.1 84.3369 21.26C84.3369 23.42 81.9169 24.68 77.9369 24.68C73.9569 24.68 71.5569 23.42 71.5569 21.26C71.5569 19.1 73.9569 17.84 77.9369 17.84ZM69.6769 14.54H86.3369V16.64H69.6769V14.54ZM97.4553 14.64L97.7153 16.74C95.5753 17.14 93.6753 17.2 90.1753 17.2H88.7553V11.2H94.1953V9.46H88.7353V7.34H96.7953V13.16H91.3753V15.08C94.0153 15.06 95.6353 14.98 97.4553 14.64ZM90.8553 20.58V18.48H103.455V24.74H100.815V20.58H90.8553ZM100.815 6.32L103.455 6.3V17.66H100.815V14.88H97.8553V12.78H100.815V10.96H97.8553V8.84H100.815V6.32Z" fill="#FC6644"/>
</svg>
