<svg width="134" height="45" viewBox="0 0 134 45" fill="none" xmlns="http://www.w3.org/2000/svg">
<g filter="url(#filter0_b_1025_13563)">
<mask id="path-1-inside-1_1025_13563" fill="white">
<path d="M0 4.68555C0 2.47641 1.79086 0.685547 4 0.685547H130C132.209 0.685547 134 2.47641 134 4.68555V40.6855C134 42.8947 132.209 44.6855 130 44.6855H4C1.79086 44.6855 0 42.8947 0 40.6855V4.68555Z"/>
</mask>
<path d="M0 4.68555C0 2.47641 1.79086 0.685547 4 0.685547H130C132.209 0.685547 134 2.47641 134 4.68555V40.6855C134 42.8947 132.209 44.6855 130 44.6855H4C1.79086 44.6855 0 42.8947 0 40.6855V4.68555Z" fill="#282220" fill-opacity="0.85"/>
<path d="M0 0.685547H134H0ZM134 44.6855H0H134ZM0 44.6855V0.685547V44.6855ZM130 0.685547C134.418 0.685547 138 4.26727 138 8.68555V36.6855C138 41.1038 134.418 44.6855 130 44.6855C130 44.6855 130 42.8947 130 40.6855V4.68555C130 2.47641 130 0.685547 130 0.685547Z" fill="#FC6644" mask="url(#path-1-inside-1_1025_13563)"/>
<mask id="mask0_1025_13563" style="mask-type:alpha" maskUnits="userSpaceOnUse" x="14" y="8" width="28" height="29">
<rect x="14" y="8.68555" width="28" height="28" fill="#D9D9D9"/>
</mask>
<g mask="url(#mask0_1025_13563)">
<path d="M28.0177 22.2583C29.6557 22.2548 31.0075 23.5993 31.0194 25.2456C31.0314 26.8926 29.6529 28.2723 28.0079 28.2582C26.3628 28.2448 25.0188 26.8912 25.0237 25.2526C25.0286 23.6091 26.3762 22.2625 28.0177 22.2583Z" fill="#FC6644"/>
<path fill-rule="evenodd" clip-rule="evenodd" d="M37.5656 27.7918C39.0247 26.4309 39.0247 24.0857 37.5656 22.7248C35.3938 20.6991 31.9177 18.1963 28 18.1963C24.0823 18.1963 20.6061 20.6991 18.4343 22.7248C16.9752 24.0857 16.9752 26.4309 18.4343 27.7918C20.6061 29.8175 24.0823 32.3203 28 32.3203C31.9177 32.3203 35.3938 29.8175 37.5656 27.7918ZM33.0179 25.237C32.998 22.4932 30.7451 20.2524 28.015 20.2582C25.2791 20.2653 23.0332 22.5096 23.025 25.2488C23.0168 27.9797 25.2569 30.2358 27.9986 30.2581C30.7404 30.2815 33.0379 27.9821 33.0179 25.237Z" fill="#FC6644"/>
<path fill-rule="evenodd" clip-rule="evenodd" d="M28.0705 13.0503C28.6228 13.0503 29.0705 13.498 29.0705 14.0503V17.2517C28.7182 17.2154 28.3612 17.1963 28 17.1963C27.6869 17.1963 27.377 17.2107 27.0705 17.2381V14.0503C27.0705 13.498 27.5183 13.0503 28.0705 13.0503ZM22.1465 18.7892L19.7923 16.435C19.4018 16.0445 18.7686 16.0445 18.3781 16.435C17.9876 16.8255 17.9876 17.4587 18.3781 17.8492L20.3907 19.8618C20.9399 19.4839 21.5269 19.1201 22.1465 18.7892ZM21.1105 20.5816C21.6692 20.2051 22.2635 19.8481 22.8878 19.5304L23.3278 19.9705L21.9136 21.3847L21.1105 20.5816ZM35.7047 19.9279L37.7834 17.8492C38.1739 17.4587 38.1739 16.8255 37.7834 16.435C37.3928 16.0445 36.7597 16.0445 36.3692 16.435L33.9584 18.8457C34.5753 19.1808 35.1591 19.5478 35.7047 19.9279ZM33.2189 19.5852C33.84 19.9075 34.4309 20.268 34.9858 20.6468L34.2478 21.3847L32.8336 19.9705L33.2189 19.5852ZM29.0705 18.2576V19.0503H27.0705V18.2426C27.3773 18.2122 27.6872 18.1963 28 18.1963C28.3608 18.1963 28.7179 18.2175 29.0705 18.2576Z" fill="#FC6644"/>
</g>
<path d="M47.458 16.8255H54.586V18.7515H47.458V16.8255ZM49.51 20.7135H51.886V24.8895H49.51V20.7135ZM53.65 16.8255H56.008V17.8695C56.008 19.0395 56.008 20.6955 55.612 22.7655L53.29 22.5135C53.65 20.4615 53.65 19.0215 53.65 17.8695V16.8255ZM57.628 15.6195H60.04V28.0935H57.628V15.6195ZM59.086 20.6955H62.02V22.6575H59.086V20.6955ZM48.916 30.0915H60.562V31.9995H48.916V30.0915ZM48.916 26.9775H51.31V30.6855H48.916V26.9775ZM46.702 25.8615L46.486 23.9715C49.366 23.9715 53.38 23.9175 56.728 23.4495L56.872 25.1415C53.434 25.7895 49.564 25.8615 46.702 25.8615ZM67.0226 18.1935H68.9486V18.7875C68.9486 21.4155 67.4006 23.6655 64.1606 24.4035L63.1346 22.5675C65.8346 21.9735 67.0226 20.3895 67.0226 18.7875V18.1935ZM67.4906 18.1935H69.4166V18.7875C69.4166 20.2635 70.6046 21.7395 73.2506 22.2975L72.2426 24.1155C69.0386 23.4315 67.4906 21.2715 67.4906 18.7875V18.1935ZM63.7466 17.0415H72.6926V18.9315H63.7466V17.0415ZM67.0226 15.5655H69.4166V18.0495H67.0226V15.5655ZM74.0066 15.6195H76.4006V24.2595H74.0066V15.6195ZM75.4286 18.9495H78.5966V20.8935H75.4286V18.9495ZM65.3846 24.9435H76.4006V29.3895H67.7966V31.3875H65.4206V27.6975H74.0426V26.7615H65.3846V24.9435ZM65.4206 30.3615H76.8866V32.1795H65.4206V30.3615ZM80.4672 23.5575H81.7452C84.8412 23.5575 86.4612 23.5035 88.3512 23.1615L88.5852 25.0515C86.6412 25.4115 84.9312 25.4655 81.7452 25.4655H80.4672V23.5575ZM80.4492 16.5735H87.7752V21.8295H82.8432V24.8175H80.4672V20.0475H85.3992V18.4635H80.4492V16.5735ZM91.3932 15.6375H93.7872V25.8975H91.3932V15.6375ZM88.7292 17.9235H91.8252V19.8315H88.7292V17.9235ZM88.7292 21.4695H91.8252V23.3775H88.7292V21.4695ZM82.3752 26.6535H93.7872V32.3055H91.3932V28.5615H82.3752V26.6535Z" fill="#FC6644"/>
<mask id="mask1_1025_13563" style="mask-type:alpha" maskUnits="userSpaceOnUse" x="96" y="10" width="24" height="25">
<rect x="96" y="10.6855" width="24" height="24" fill="#D9D9D9"/>
</mask>
<g mask="url(#mask1_1025_13563)">
<path d="M108 25.0854L103.1 29.9854C102.917 30.1687 102.683 30.2604 102.4 30.2604C102.117 30.2604 101.883 30.1687 101.7 29.9854C101.517 29.802 101.425 29.5687 101.425 29.2854C101.425 29.002 101.517 28.7687 101.7 28.5854L106.6 23.6854L101.7 18.7854C101.517 18.602 101.425 18.3687 101.425 18.0854C101.425 17.802 101.517 17.5687 101.7 17.3854C101.883 17.202 102.117 17.1104 102.4 17.1104C102.683 17.1104 102.917 17.202 103.1 17.3854L108 22.2854L112.9 17.3854C113.083 17.202 113.317 17.1104 113.6 17.1104C113.883 17.1104 114.117 17.202 114.3 17.3854C114.483 17.5687 114.575 17.802 114.575 18.0854C114.575 18.3687 114.483 18.602 114.3 18.7854L109.4 23.6854L114.3 28.5854C114.483 28.7687 114.575 29.002 114.575 29.2854C114.575 29.5687 114.483 29.802 114.3 29.9854C114.117 30.1687 113.883 30.2604 113.6 30.2604C113.317 30.2604 113.083 30.1687 112.9 29.9854L108 25.0854Z" fill="#FC6644"/>
</g>
</g>
<defs>
<filter id="filter0_b_1025_13563" x="-12" y="-11.3145" width="158" height="68" filterUnits="userSpaceOnUse" color-interpolation-filters="sRGB">
<feFlood flood-opacity="0" result="BackgroundImageFix"/>
<feGaussianBlur in="BackgroundImageFix" stdDeviation="6"/>
<feComposite in2="SourceAlpha" operator="in" result="effect1_backgroundBlur_1025_13563"/>
<feBlend mode="normal" in="SourceGraphic" in2="effect1_backgroundBlur_1025_13563" result="shape"/>
</filter>
</defs>
</svg>
