<svg width="28" height="28" viewBox="0 0 28 28" fill="none" xmlns="http://www.w3.org/2000/svg">
<mask id="mask0_97_1753" style="mask-type:alpha" maskUnits="userSpaceOnUse" x="0" y="0" width="28" height="28">
<rect width="28" height="28" fill="#D9D9D9"/>
</mask>
<g mask="url(#mask0_97_1753)">
<path d="M14.0253 13.5781C15.6633 13.5746 17.0151 14.9191 17.027 16.5654C17.039 18.2124 15.6605 19.5921 14.0154 19.578C12.3704 19.5647 11.0263 18.211 11.0313 16.5724C11.0362 14.929 12.3837 13.5824 14.0253 13.5781Z" fill="#FC6644"/>
<path fill-rule="evenodd" clip-rule="evenodd" d="M23.5694 19.1112C25.0285 17.7503 25.0285 15.405 23.5694 14.0441C21.3976 12.0184 17.9215 9.51562 14.0037 9.51562C10.086 9.51562 6.60992 12.0184 4.43807 14.0441C2.97898 15.405 2.97898 17.7503 4.43807 19.1112C6.60992 21.1368 10.086 23.6396 14.0037 23.6396C17.9215 23.6396 21.3976 21.1368 23.5694 19.1112ZM19.0217 16.5564C19.0018 13.8125 16.7488 11.5717 14.0188 11.5776C11.2829 11.5846 9.037 13.8289 9.02879 16.5681C9.02059 19.2991 11.2606 21.5551 14.0024 21.5774C16.7441 21.6008 19.0416 19.3014 19.0217 16.5564Z" fill="#FC6644"/>
<path fill-rule="evenodd" clip-rule="evenodd" d="M14.0713 4.36719C14.6236 4.36719 15.0713 4.8149 15.0713 5.36719V8.56862C14.719 8.53233 14.3619 8.51318 14.0007 8.51318C13.6877 8.51318 13.3777 8.52757 13.0713 8.55503V5.36719C13.0713 4.8149 13.519 4.36719 14.0713 4.36719ZM8.14728 10.1061L5.79304 7.75188C5.40252 7.36135 4.76936 7.36135 4.37883 7.75188C3.98831 8.1424 3.98831 8.77557 4.37883 9.16609L6.39144 11.1787C6.94065 10.8008 7.5276 10.437 8.14728 10.1061ZM7.11119 11.8985C7.66989 11.522 8.26424 11.165 8.88851 10.8473L9.32858 11.2874L7.91436 12.7016L7.11119 11.8985ZM21.7054 11.2447L23.7841 9.16609C24.1746 8.77557 24.1746 8.1424 23.7841 7.75188C23.3936 7.36135 22.7604 7.36135 22.3699 7.75188L19.9591 10.1626C20.576 10.4977 21.1598 10.8647 21.7054 11.2447ZM19.2196 10.9021C19.8408 11.2244 20.4316 11.5849 20.9865 11.9637L20.2486 12.7016L18.8343 11.2874L19.2196 10.9021ZM15.0713 9.57454V10.3672H13.0713V9.55953C13.378 9.52914 13.688 9.51318 14.0007 9.51318C14.3616 9.51318 14.7186 9.53441 15.0713 9.57454Z" fill="#FC6644"/>
</g>
</svg>
