<svg width="110" height="44" viewBox="0 0 110 44" fill="none" xmlns="http://www.w3.org/2000/svg">
<mask id="path-1-inside-1_20_1149" fill="white">
<path d="M0 4C0 1.79086 1.79086 0 4 0H106C108.209 0 110 1.79086 110 4V40C110 42.2091 108.209 44 106 44H4C1.79086 44 0 42.2091 0 40V4Z"/>
</mask>
<path d="M0 4C0 1.79086 1.79086 0 4 0H106C108.209 0 110 1.79086 110 4V40C110 42.2091 108.209 44 106 44H4C1.79086 44 0 42.2091 0 40V4Z" fill="#212121" fill-opacity="0.8"/>
<path d="M0 0H110H0ZM110 44H0H110ZM0 44V0V44ZM106 0C110.418 0 114 3.58172 114 8V36C114 40.4183 110.418 44 106 44C106 44 106 42.2091 106 40V4C106 1.79086 106 0 106 0Z" fill="#6F6F6F" mask="url(#path-1-inside-1_20_1149)"/>
<mask id="mask0_20_1149" style="mask-type:alpha" maskUnits="userSpaceOnUse" x="12" y="8" width="28" height="28">
<rect x="12" y="8" width="28" height="28" fill="#D9D9D9"/>
</mask>
<g mask="url(#mask0_20_1149)">
<path d="M26.0175 21.5703C27.6555 21.5668 29.0072 22.9113 29.0192 24.5576C29.0312 26.2046 27.6527 27.5843 26.0076 27.5702C24.3626 27.5568 23.0185 26.2032 23.0235 24.5646C23.0284 22.9211 24.3759 21.5745 26.0175 21.5703Z" fill="#6F6F6F"/>
<mask id="path-5-inside-2_20_1149" fill="white">
<path fill-rule="evenodd" clip-rule="evenodd" d="M34.2053 25.6408C32.1168 27.5887 29.126 29.6318 26.0037 29.6318C22.8815 29.6318 19.8907 27.5887 17.8022 25.6408C17.1909 25.0706 17.1909 24.069 17.8022 23.4989C19.8907 21.551 22.8815 19.5078 26.0037 19.5078C29.126 19.5078 32.1168 21.551 34.2053 23.4989C34.8166 24.069 34.8166 25.0706 34.2053 25.6408ZM35.5694 22.0363C37.0285 23.3972 37.0285 25.7425 35.5694 27.1034C33.3976 29.129 29.9215 31.6318 26.0037 31.6318C22.086 31.6318 18.6099 29.129 16.4381 27.1034C14.979 25.7425 14.979 23.3972 16.4381 22.0363C18.6099 20.0106 22.086 17.5078 26.0037 17.5078C29.9215 17.5078 33.3976 20.0106 35.5694 22.0363Z"/>
</mask>
<path fill-rule="evenodd" clip-rule="evenodd" d="M34.2053 25.6408C32.1168 27.5887 29.126 29.6318 26.0037 29.6318C22.8815 29.6318 19.8907 27.5887 17.8022 25.6408C17.1909 25.0706 17.1909 24.069 17.8022 23.4989C19.8907 21.551 22.8815 19.5078 26.0037 19.5078C29.126 19.5078 32.1168 21.551 34.2053 23.4989C34.8166 24.069 34.8166 25.0706 34.2053 25.6408ZM35.5694 22.0363C37.0285 23.3972 37.0285 25.7425 35.5694 27.1034C33.3976 29.129 29.9215 31.6318 26.0037 31.6318C22.086 31.6318 18.6099 29.129 16.4381 27.1034C14.979 25.7425 14.979 23.3972 16.4381 22.0363C18.6099 20.0106 22.086 17.5078 26.0037 17.5078C29.9215 17.5078 33.3976 20.0106 35.5694 22.0363Z" fill="#6F6F6F"/>
<path d="M34.2053 25.6408L34.8874 26.3721L34.8874 26.3721L34.2053 25.6408ZM17.8022 25.6408L18.4843 24.9095L18.4843 24.9095L17.8022 25.6408ZM17.8022 23.4989L17.1201 22.7676L17.1201 22.7676L17.8022 23.4989ZM34.2053 23.4989L33.5232 24.2302L33.5232 24.2302L34.2053 23.4989ZM35.5694 27.1034L36.2515 27.8346L36.2515 27.8346L35.5694 27.1034ZM35.5694 22.0363L34.8874 22.7676L34.8874 22.7676L35.5694 22.0363ZM16.4381 27.1034L15.756 27.8346L15.756 27.8346L16.4381 27.1034ZM16.4381 22.0363L15.756 21.305L15.756 21.305L16.4381 22.0363ZM26.0037 30.6318C29.5237 30.6318 32.7572 28.3589 34.8874 26.3721L33.5232 24.9095C31.4764 26.8185 28.7282 28.6318 26.0037 28.6318V30.6318ZM17.1201 26.3721C19.2503 28.3589 22.4838 30.6318 26.0037 30.6318V28.6318C23.2793 28.6318 20.5311 26.8185 18.4843 24.9095L17.1201 26.3721ZM17.1201 22.7676C16.085 23.7331 16.085 25.4066 17.1201 26.3721L18.4843 24.9095C18.2969 24.7347 18.2969 24.4049 18.4843 24.2302L17.1201 22.7676ZM26.0037 18.5078C22.4838 18.5078 19.2503 20.7808 17.1201 22.7676L18.4843 24.2302C20.5311 22.3211 23.2793 20.5078 26.0037 20.5078V18.5078ZM34.8874 22.7676C32.7572 20.7808 29.5237 18.5078 26.0037 18.5078V20.5078C28.7282 20.5078 31.4764 22.3211 33.5232 24.2302L34.8874 22.7676ZM34.8874 26.3721C35.9225 25.4066 35.9225 23.7331 34.8874 22.7676L33.5232 24.2302C33.7106 24.4049 33.7106 24.7347 33.5232 24.9095L34.8874 26.3721ZM36.2515 27.8346C38.1345 26.0784 38.1345 23.0613 36.2515 21.305L34.8874 22.7676C35.9225 23.7331 35.9225 25.4066 34.8874 26.3721L36.2515 27.8346ZM26.0037 32.6318C30.3192 32.6318 34.038 29.8992 36.2515 27.8346L34.8874 26.3721C32.7572 28.3589 29.5237 30.6318 26.0037 30.6318V32.6318ZM15.756 27.8346C17.9695 29.8992 21.6883 32.6318 26.0037 32.6318V30.6318C22.4838 30.6318 19.2503 28.3589 17.1201 26.3721L15.756 27.8346ZM15.756 21.305C13.873 23.0613 13.873 26.0784 15.756 27.8346L17.1201 26.3721C16.085 25.4066 16.085 23.7331 17.1201 22.7676L15.756 21.305ZM26.0037 16.5078C21.6883 16.5078 17.9695 19.2404 15.756 21.305L17.1201 22.7676C19.2503 20.7808 22.4838 18.5078 26.0037 18.5078V16.5078ZM36.2515 21.305C34.038 19.2404 30.3192 16.5078 26.0037 16.5078V18.5078C29.5237 18.5078 32.7572 20.7808 34.8874 22.7676L36.2515 21.305Z" fill="#6F6F6F" mask="url(#path-5-inside-2_20_1149)"/>
<path fill-rule="evenodd" clip-rule="evenodd" d="M26.0713 12.3672C26.6236 12.3672 27.0713 12.8149 27.0713 13.3672V16.5686C26.719 16.5323 26.3619 16.5132 26.0007 16.5132C25.6877 16.5132 25.3777 16.5276 25.0713 16.555V13.3672C25.0713 12.8149 25.519 12.3672 26.0713 12.3672ZM20.1473 18.1061L17.793 15.7519C17.4025 15.3614 16.7694 15.3614 16.3788 15.7519C15.9883 16.1424 15.9883 16.7756 16.3788 17.1661L18.3914 19.1787C18.9406 18.8008 19.5276 18.437 20.1473 18.1061ZM19.1112 19.8985C19.6699 19.522 20.2642 19.165 20.8885 18.8473L21.3286 19.2874L19.9144 20.7016L19.1112 19.8985ZM33.7054 19.2447L35.7841 17.1661C36.1746 16.7756 36.1746 16.1424 35.7841 15.7519C35.3936 15.3614 34.7604 15.3614 34.3699 15.7519L31.9591 18.1626C32.576 18.4977 33.1598 18.8647 33.7054 19.2447ZM31.2196 18.9021C31.8408 19.2244 32.4316 19.5849 32.9865 19.9637L32.2486 20.7016L30.8343 19.2874L31.2196 18.9021ZM27.0713 17.5745V18.3672H25.0713V17.5595C25.378 17.5291 25.688 17.5132 26.0007 17.5132C26.3616 17.5132 26.7186 17.5344 27.0713 17.5745Z" fill="#6F6F6F"/>
</g>
<path d="M53.63 22.08L51.308 21.81C51.578 20.262 51.65 19.056 51.668 18.066H45.494V16.176H54.008V17.202C54.008 18.354 54.008 19.992 53.63 22.08ZM54.728 22.746L54.872 24.438C51.452 25.068 47.6 25.14 44.756 25.158L44.54 23.268C45.458 23.268 46.484 23.268 47.564 23.25V20.028H49.886V23.16C51.524 23.088 53.18 22.962 54.728 22.746ZM49.328 26.274V29.37H58.526V31.26H46.952V26.274H49.328ZM58.004 20.01H59.984V21.972H58.004V27.372H55.628V14.952H58.004V20.01ZM71.0706 21.63L70.0806 23.43C68.1906 22.998 66.8586 22.08 66.1026 20.892C65.3646 22.224 63.9966 23.25 62.0346 23.7L61.0086 21.882C63.6006 21.306 64.7886 19.812 64.8606 18.264H61.6206V16.392H64.8606V14.934H67.2366V16.392H70.5126V18.264H67.2366C67.3086 19.668 68.4966 21.09 71.0706 21.63ZM65.6346 28.65V29.64H74.6886V31.422H63.2766V26.976H71.8626V26.04H63.2586V24.24H74.2026V28.65H65.6346ZM74.2026 18.282H76.3806V20.226H74.2026V23.556H71.8266V14.97H74.2026V18.282ZM85.9912 22.476L86.2252 24.366C84.2992 24.726 82.5892 24.78 79.4392 24.78H78.1612V19.38H83.0572V17.814H78.1432V15.906H85.3972V21.144H80.5192V22.872C82.8952 22.854 84.3532 22.782 85.9912 22.476ZM80.0512 27.822V25.932H91.3912V31.566H89.0152V27.822H80.0512ZM89.0152 14.988L91.3912 14.97V25.194H89.0152V22.692H86.3512V20.802H89.0152V19.164H86.3512V17.256H89.0152V14.988Z" fill="#6F6F6F"/>
</svg>
