<svg width="126" height="60" viewBox="0 0 126 60" fill="none" xmlns="http://www.w3.org/2000/svg">
<g filter="url(#filter0_bd_20_1149)">
<mask id="path-1-inside-1_20_1149" fill="white">
<path d="M8 8C8 5.79086 9.79086 4 12 4H114C116.209 4 118 5.79086 118 8V44C118 46.2091 116.209 48 114 48H12C9.79086 48 8 46.2091 8 44V8Z"/>
</mask>
<path d="M8 8C8 5.79086 9.79086 4 12 4H114C116.209 4 118 5.79086 118 8V44C118 46.2091 116.209 48 114 48H12C9.79086 48 8 46.2091 8 44V8Z" fill="#212121" fill-opacity="0.8" shape-rendering="crispEdges"/>
<path d="M8 4H118H8ZM118 48H8H118ZM8 48V4V48ZM114 4C118.418 4 122 7.58172 122 12V40C122 44.4183 118.418 48 114 48C114 48 114 46.2091 114 44V8C114 5.79086 114 4 114 4Z" fill="#6F6F6F" mask="url(#path-1-inside-1_20_1149)"/>
<mask id="mask0_20_1149" style="mask-type:alpha" maskUnits="userSpaceOnUse" x="20" y="12" width="28" height="28">
<rect x="20" y="12" width="28" height="28" fill="#D9D9D9"/>
</mask>
<g mask="url(#mask0_20_1149)">
<path d="M34.0175 25.5703C35.6555 25.5668 37.0072 26.9113 37.0192 28.5576C37.0312 30.2046 35.6527 31.5843 34.0076 31.5702C32.3626 31.5568 31.0185 30.2032 31.0235 28.5646C31.0284 26.9211 32.3759 25.5745 34.0175 25.5703Z" fill="#6F6F6F"/>
<mask id="path-5-inside-2_20_1149" fill="white">
<path fill-rule="evenodd" clip-rule="evenodd" d="M42.2053 29.6408C40.1168 31.5887 37.126 33.6318 34.0037 33.6318C30.8815 33.6318 27.8907 31.5887 25.8022 29.6408C25.1909 29.0706 25.1909 28.069 25.8022 27.4989C27.8907 25.551 30.8815 23.5078 34.0037 23.5078C37.126 23.5078 40.1168 25.551 42.2053 27.4989C42.8166 28.069 42.8166 29.0706 42.2053 29.6408ZM43.5694 26.0363C45.0285 27.3972 45.0285 29.7425 43.5694 31.1034C41.3976 33.129 37.9215 35.6318 34.0037 35.6318C30.086 35.6318 26.6099 33.129 24.4381 31.1034C22.979 29.7425 22.979 27.3972 24.4381 26.0363C26.6099 24.0106 30.086 21.5078 34.0037 21.5078C37.9215 21.5078 41.3976 24.0106 43.5694 26.0363Z"/>
</mask>
<path fill-rule="evenodd" clip-rule="evenodd" d="M42.2053 29.6408C40.1168 31.5887 37.126 33.6318 34.0037 33.6318C30.8815 33.6318 27.8907 31.5887 25.8022 29.6408C25.1909 29.0706 25.1909 28.069 25.8022 27.4989C27.8907 25.551 30.8815 23.5078 34.0037 23.5078C37.126 23.5078 40.1168 25.551 42.2053 27.4989C42.8166 28.069 42.8166 29.0706 42.2053 29.6408ZM43.5694 26.0363C45.0285 27.3972 45.0285 29.7425 43.5694 31.1034C41.3976 33.129 37.9215 35.6318 34.0037 35.6318C30.086 35.6318 26.6099 33.129 24.4381 31.1034C22.979 29.7425 22.979 27.3972 24.4381 26.0363C26.6099 24.0106 30.086 21.5078 34.0037 21.5078C37.9215 21.5078 41.3976 24.0106 43.5694 26.0363Z" fill="#6F6F6F"/>
<path d="M42.2053 29.6408L42.8874 30.3721L42.8874 30.3721L42.2053 29.6408ZM25.8022 29.6408L26.4843 28.9095L26.4843 28.9095L25.8022 29.6408ZM25.8022 27.4989L25.1201 26.7676L25.1201 26.7676L25.8022 27.4989ZM42.2053 27.4989L41.5232 28.2302L41.5232 28.2302L42.2053 27.4989ZM43.5694 31.1034L44.2515 31.8346L44.2515 31.8346L43.5694 31.1034ZM43.5694 26.0363L42.8874 26.7676L42.8874 26.7676L43.5694 26.0363ZM24.4381 31.1034L23.756 31.8346L23.756 31.8346L24.4381 31.1034ZM24.4381 26.0363L23.756 25.305L23.756 25.305L24.4381 26.0363ZM34.0037 34.6318C37.5237 34.6318 40.7572 32.3589 42.8874 30.3721L41.5232 28.9095C39.4764 30.8185 36.7282 32.6318 34.0037 32.6318V34.6318ZM25.1201 30.3721C27.2503 32.3589 30.4838 34.6318 34.0037 34.6318V32.6318C31.2793 32.6318 28.5311 30.8185 26.4843 28.9095L25.1201 30.3721ZM25.1201 26.7676C24.085 27.7331 24.085 29.4066 25.1201 30.3721L26.4843 28.9095C26.2969 28.7347 26.2969 28.4049 26.4843 28.2302L25.1201 26.7676ZM34.0037 22.5078C30.4838 22.5078 27.2503 24.7808 25.1201 26.7676L26.4843 28.2302C28.5311 26.3211 31.2793 24.5078 34.0037 24.5078V22.5078ZM42.8874 26.7676C40.7572 24.7808 37.5237 22.5078 34.0037 22.5078V24.5078C36.7282 24.5078 39.4764 26.3211 41.5232 28.2302L42.8874 26.7676ZM42.8874 30.3721C43.9225 29.4066 43.9225 27.7331 42.8874 26.7676L41.5232 28.2302C41.7106 28.4049 41.7106 28.7347 41.5232 28.9095L42.8874 30.3721ZM44.2515 31.8346C46.1345 30.0784 46.1345 27.0613 44.2515 25.305L42.8874 26.7676C43.9225 27.7331 43.9225 29.4066 42.8874 30.3721L44.2515 31.8346ZM34.0037 36.6318C38.3192 36.6318 42.038 33.8992 44.2515 31.8346L42.8874 30.3721C40.7572 32.3589 37.5237 34.6318 34.0037 34.6318V36.6318ZM23.756 31.8346C25.9695 33.8992 29.6883 36.6318 34.0037 36.6318V34.6318C30.4838 34.6318 27.2503 32.3589 25.1201 30.3721L23.756 31.8346ZM23.756 25.305C21.873 27.0613 21.873 30.0784 23.756 31.8346L25.1201 30.3721C24.085 29.4066 24.085 27.7331 25.1201 26.7676L23.756 25.305ZM34.0037 20.5078C29.6883 20.5078 25.9695 23.2404 23.756 25.305L25.1201 26.7676C27.2503 24.7808 30.4838 22.5078 34.0037 22.5078V20.5078ZM44.2515 25.305C42.038 23.2404 38.3192 20.5078 34.0037 20.5078V22.5078C37.5237 22.5078 40.7572 24.7808 42.8874 26.7676L44.2515 25.305Z" fill="#6F6F6F" mask="url(#path-5-inside-2_20_1149)"/>
<path fill-rule="evenodd" clip-rule="evenodd" d="M34.0713 16.3672C34.6236 16.3672 35.0713 16.8149 35.0713 17.3672V20.5686C34.719 20.5323 34.3619 20.5132 34.0007 20.5132C33.6877 20.5132 33.3777 20.5276 33.0713 20.555V17.3672C33.0713 16.8149 33.519 16.3672 34.0713 16.3672ZM28.1473 22.1061L25.793 19.7519C25.4025 19.3614 24.7694 19.3614 24.3788 19.7519C23.9883 20.1424 23.9883 20.7756 24.3788 21.1661L26.3914 23.1787C26.9406 22.8008 27.5276 22.437 28.1473 22.1061ZM27.1112 23.8985C27.6699 23.522 28.2642 23.165 28.8885 22.8473L29.3286 23.2874L27.9144 24.7016L27.1112 23.8985ZM41.7054 23.2447L43.7841 21.1661C44.1746 20.7756 44.1746 20.1424 43.7841 19.7519C43.3936 19.3614 42.7604 19.3614 42.3699 19.7519L39.9591 22.1626C40.576 22.4977 41.1598 22.8647 41.7054 23.2447ZM39.2196 22.9021C39.8408 23.2244 40.4316 23.5849 40.9865 23.9637L40.2486 24.7016L38.8343 23.2874L39.2196 22.9021ZM35.0713 21.5745V22.3672H33.0713V21.5595C33.378 21.5291 33.688 21.5132 34.0007 21.5132C34.3616 21.5132 34.7186 21.5344 35.0713 21.5745Z" fill="#6F6F6F"/>
</g>
<path d="M61.63 26.08L59.308 25.81C59.578 24.262 59.65 23.056 59.668 22.066H53.494V20.176H62.008V21.202C62.008 22.354 62.008 23.992 61.63 26.08ZM62.728 26.746L62.872 28.438C59.452 29.068 55.6 29.14 52.756 29.158L52.54 27.268C53.458 27.268 54.484 27.268 55.564 27.25V24.028H57.886V27.16C59.524 27.088 61.18 26.962 62.728 26.746ZM57.328 30.274V33.37H66.526V35.26H54.952V30.274H57.328ZM66.004 24.01H67.984V25.972H66.004V31.372H63.628V18.952H66.004V24.01ZM79.0706 25.63L78.0806 27.43C76.1906 26.998 74.8586 26.08 74.1026 24.892C73.3646 26.224 71.9966 27.25 70.0346 27.7L69.0086 25.882C71.6006 25.306 72.7886 23.812 72.8606 22.264H69.6206V20.392H72.8606V18.934H75.2366V20.392H78.5126V22.264H75.2366C75.3086 23.668 76.4966 25.09 79.0706 25.63ZM73.6346 32.65V33.64H82.6886V35.422H71.2766V30.976H79.8626V30.04H71.2586V28.24H82.2026V32.65H73.6346ZM82.2026 22.282H84.3806V24.226H82.2026V27.556H79.8266V18.97H82.2026V22.282ZM93.9912 26.476L94.2252 28.366C92.2992 28.726 90.5892 28.78 87.4392 28.78H86.1612V23.38H91.0572V21.814H86.1432V19.906H93.3972V25.144H88.5192V26.872C90.8952 26.854 92.3532 26.782 93.9912 26.476ZM88.0512 31.822V29.932H99.3912V35.566H97.0152V31.822H88.0512ZM97.0152 18.988L99.3912 18.97V29.194H97.0152V26.692H94.3512V24.802H97.0152V23.164H94.3512V21.256H97.0152V18.988Z" fill="#6F6F6F"/>
</g>
<defs>
<filter id="filter0_bd_20_1149" x="-8" y="-12" width="142" height="76" filterUnits="userSpaceOnUse" color-interpolation-filters="sRGB">
<feFlood flood-opacity="0" result="BackgroundImageFix"/>
<feGaussianBlur in="BackgroundImageFix" stdDeviation="8"/>
<feComposite in2="SourceAlpha" operator="in" result="effect1_backgroundBlur_20_1149"/>
<feColorMatrix in="SourceAlpha" type="matrix" values="0 0 0 0 0 0 0 0 0 0 0 0 0 0 0 0 0 0 127 0" result="hardAlpha"/>
<feOffset dy="4"/>
<feGaussianBlur stdDeviation="4"/>
<feComposite in2="hardAlpha" operator="out"/>
<feColorMatrix type="matrix" values="0 0 0 0 0 0 0 0 0 0 0 0 0 0 0 0 0 0 0.25 0"/>
<feBlend mode="normal" in2="effect1_backgroundBlur_20_1149" result="effect2_dropShadow_20_1149"/>
<feBlend mode="normal" in="SourceGraphic" in2="effect2_dropShadow_20_1149" result="shape"/>
</filter>
</defs>
</svg>
