<svg width="110" height="44" viewBox="0 0 110 44" fill="none" xmlns="http://www.w3.org/2000/svg">
<mask id="path-1-inside-1_20_1117" fill="white">
<path d="M0 4C0 1.79086 1.79086 0 4 0H106C108.209 0 110 1.79086 110 4V40C110 42.2091 108.209 44 106 44H4C1.79086 44 0 42.2091 0 40V4Z"/>
</mask>
<path d="M0 4C0 1.79086 1.79086 0 4 0H106C108.209 0 110 1.79086 110 4V40C110 42.2091 108.209 44 106 44H4C1.79086 44 0 42.2091 0 40V4Z" fill="#212121" fill-opacity="0.8"/>
<path d="M0 0H110H0ZM110 44H0H110ZM0 44V0V44ZM106 0C110.418 0 114 3.58172 114 8V36C114 40.4183 110.418 44 106 44C106 44 106 42.2091 106 40V4C106 1.79086 106 0 106 0Z" fill="#6F6F6F" mask="url(#path-1-inside-1_20_1117)"/>
<mask id="mask0_20_1117" style="mask-type:alpha" maskUnits="userSpaceOnUse" x="12" y="8" width="28" height="28">
<rect x="12" y="8" width="28" height="28" fill="#D9D9D9"/>
</mask>
<g mask="url(#mask0_20_1117)">
<path d="M18.4167 17.3359C18.0861 17.3359 17.809 17.2241 17.5854 17.0005C17.3618 16.7769 17.25 16.4998 17.25 16.1693C17.25 15.8387 17.3618 15.5616 17.5854 15.338C17.809 15.1144 18.0861 15.0026 18.4167 15.0026C18.7472 15.0026 19.0243 15.1144 19.2479 15.338C19.4715 15.5616 19.5833 15.8387 19.5833 16.1693C19.5833 16.4998 19.4715 16.7769 19.2479 17.0005C19.0243 17.2241 18.7472 17.3359 18.4167 17.3359ZM23.6667 33.6693C22.3833 33.6693 21.2847 33.2123 20.3708 32.2984C19.4569 31.3846 19 30.2859 19 29.0026V22.0026C19 20.0582 19.6806 18.4054 21.0417 17.0443C22.4028 15.6832 24.0556 15.0026 26 15.0026H28.1292C29.4708 15.0026 30.6181 15.4547 31.5708 16.3589C32.5236 17.263 33 18.3762 33 19.6984C33 20.5929 32.7618 21.4144 32.2854 22.163C31.809 22.9116 31.1625 23.4804 30.3458 23.8693C29.7236 24.1609 29.2326 24.5936 28.8729 25.1672C28.5132 25.7408 28.3333 26.3679 28.3333 27.0484V29.0026C28.3333 30.3054 27.8813 31.4089 26.9771 32.313C26.0729 33.2172 24.9694 33.6693 23.6667 33.6693ZM21.3333 15.0026C21.0028 15.0026 20.7257 14.8908 20.5021 14.6672C20.2785 14.4436 20.1667 14.1665 20.1667 13.8359V13.2526C20.1667 12.922 20.2785 12.645 20.5021 12.4214C20.7257 12.1977 21.0028 12.0859 21.3333 12.0859C21.6639 12.0859 21.941 12.1977 22.1646 12.4214C22.3882 12.645 22.5 12.922 22.5 13.2526V13.8359C22.5 14.1665 22.3882 14.4436 22.1646 14.6672C21.941 14.8908 21.6639 15.0026 21.3333 15.0026ZM23.6667 31.3359C24.3083 31.3359 24.8576 31.1075 25.3146 30.6505C25.7715 30.1936 26 29.6443 26 29.0026V27.0484C26 25.9207 26.2965 24.8804 26.8896 23.9276C27.4826 22.9748 28.2944 22.2554 29.325 21.7693C29.7333 21.5748 30.059 21.288 30.3021 20.9089C30.5451 20.5297 30.6667 20.1165 30.6667 19.6693C30.6667 18.9887 30.4139 18.4297 29.9083 17.9922C29.4028 17.5547 28.8097 17.3359 28.1292 17.3359H26C24.7167 17.3359 23.6181 17.7929 22.7042 18.7068C21.7903 19.6207 21.3333 20.7193 21.3333 22.0026V29.0026C21.3333 29.6443 21.5618 30.1936 22.0187 30.6505C22.4757 31.1075 23.025 31.3359 23.6667 31.3359ZM24.8333 13.8359C24.5028 13.8359 24.2257 13.7241 24.0021 13.5005C23.7785 13.2769 23.6667 12.9998 23.6667 12.6693V12.0859C23.6667 11.7554 23.7785 11.4783 24.0021 11.2547C24.2257 11.0311 24.5028 10.9193 24.8333 10.9193C25.1639 10.9193 25.441 11.0311 25.6646 11.2547C25.8882 11.4783 26 11.7554 26 12.0859V12.6693C26 12.9998 25.8882 13.2769 25.6646 13.5005C25.441 13.7241 25.1639 13.8359 24.8333 13.8359ZM28.3333 13.8359C28.0028 13.8359 27.7257 13.7241 27.5021 13.5005C27.2785 13.2769 27.1667 12.9998 27.1667 12.6693V11.5026C27.1667 11.172 27.2785 10.895 27.5021 10.6714C27.7257 10.4477 28.0028 10.3359 28.3333 10.3359C28.6639 10.3359 28.941 10.4477 29.1646 10.6714C29.3882 10.895 29.5 11.172 29.5 11.5026V12.6693C29.5 12.9998 29.3882 13.2769 29.1646 13.5005C28.941 13.7241 28.6639 13.8359 28.3333 13.8359ZM32.4167 15.0026C31.9306 15.0026 31.5174 14.8325 31.1771 14.4922C30.8368 14.1519 30.6667 13.7387 30.6667 13.2526V12.0859C30.6667 11.5998 30.8368 11.1866 31.1771 10.8464C31.5174 10.5061 31.9306 10.3359 32.4167 10.3359C32.9028 10.3359 33.316 10.5061 33.6562 10.8464C33.9965 11.1866 34.1667 11.5998 34.1667 12.0859V13.2526C34.1667 13.7387 33.9965 14.1519 33.6562 14.4922C33.316 14.8325 32.9028 15.0026 32.4167 15.0026Z" fill="#6F6F6F"/>
</g>
<path d="M48.986 25.662V29.334H58.382V31.224H46.592V25.662H48.986ZM57.482 22.404H59.768V24.294H44.774V22.404H48.518C49.13 20.406 49.292 18.894 49.328 17.742H46.178V15.852H51.65V16.626C51.65 17.868 51.668 19.722 50.894 22.404H55.106C55.61 20.424 55.736 18.894 55.772 17.742H52.622V15.852H58.094V16.644C58.094 17.85 58.112 19.722 57.482 22.404ZM62.0706 16.68H70.0266C70.0266 21.756 68.3166 25.896 62.4306 28.74L61.1886 26.868C65.4186 24.834 67.2546 22.242 67.5966 18.57H62.0706V16.68ZM72.5646 14.952H74.9586V31.53H72.5646V14.952ZM85.9912 22.476L86.2252 24.366C84.2992 24.726 82.5892 24.78 79.4392 24.78H78.1612V19.38H83.0572V17.814H78.1432V15.906H85.3972V21.144H80.5192V22.872C82.8952 22.854 84.3532 22.782 85.9912 22.476ZM80.0512 27.822V25.932H91.3912V31.566H89.0152V27.822H80.0512ZM89.0152 14.988L91.3912 14.97V25.194H89.0152V22.692H86.3512V20.802H89.0152V19.164H86.3512V17.256H89.0152V14.988Z" fill="#6F6F6F"/>
</svg>
