<svg width="126" height="60" viewBox="0 0 126 60" fill="none" xmlns="http://www.w3.org/2000/svg">
<g filter="url(#filter0_bd_20_1117)">
<mask id="path-1-inside-1_20_1117" fill="white">
<path d="M8 8C8 5.79086 9.79086 4 12 4H114C116.209 4 118 5.79086 118 8V44C118 46.2091 116.209 48 114 48H12C9.79086 48 8 46.2091 8 44V8Z"/>
</mask>
<path d="M8 8C8 5.79086 9.79086 4 12 4H114C116.209 4 118 5.79086 118 8V44C118 46.2091 116.209 48 114 48H12C9.79086 48 8 46.2091 8 44V8Z" fill="#212121" fill-opacity="0.8" shape-rendering="crispEdges"/>
<path d="M8 4H118H8ZM118 48H8H118ZM8 48V4V48ZM114 4C118.418 4 122 7.58172 122 12V40C122 44.4183 118.418 48 114 48C114 48 114 46.2091 114 44V8C114 5.79086 114 4 114 4Z" fill="#6F6F6F" mask="url(#path-1-inside-1_20_1117)"/>
<mask id="mask0_20_1117" style="mask-type:alpha" maskUnits="userSpaceOnUse" x="20" y="12" width="28" height="28">
<rect x="20" y="12" width="28" height="28" fill="#D9D9D9"/>
</mask>
<g mask="url(#mask0_20_1117)">
<path d="M26.4167 21.3359C26.0861 21.3359 25.809 21.2241 25.5854 21.0005C25.3618 20.7769 25.25 20.4998 25.25 20.1693C25.25 19.8387 25.3618 19.5616 25.5854 19.338C25.809 19.1144 26.0861 19.0026 26.4167 19.0026C26.7472 19.0026 27.0243 19.1144 27.2479 19.338C27.4715 19.5616 27.5833 19.8387 27.5833 20.1693C27.5833 20.4998 27.4715 20.7769 27.2479 21.0005C27.0243 21.2241 26.7472 21.3359 26.4167 21.3359ZM31.6667 37.6693C30.3833 37.6693 29.2847 37.2123 28.3708 36.2984C27.4569 35.3846 27 34.2859 27 33.0026V26.0026C27 24.0582 27.6806 22.4054 29.0417 21.0443C30.4028 19.6832 32.0556 19.0026 34 19.0026H36.1292C37.4708 19.0026 38.6181 19.4547 39.5708 20.3589C40.5236 21.263 41 22.3762 41 23.6984C41 24.5929 40.7618 25.4144 40.2854 26.163C39.809 26.9116 39.1625 27.4804 38.3458 27.8693C37.7236 28.1609 37.2326 28.5936 36.8729 29.1672C36.5132 29.7408 36.3333 30.3679 36.3333 31.0484V33.0026C36.3333 34.3054 35.8813 35.4089 34.9771 36.313C34.0729 37.2172 32.9694 37.6693 31.6667 37.6693ZM29.3333 19.0026C29.0028 19.0026 28.7257 18.8908 28.5021 18.6672C28.2785 18.4436 28.1667 18.1665 28.1667 17.8359V17.2526C28.1667 16.922 28.2785 16.645 28.5021 16.4214C28.7257 16.1977 29.0028 16.0859 29.3333 16.0859C29.6639 16.0859 29.941 16.1977 30.1646 16.4214C30.3882 16.645 30.5 16.922 30.5 17.2526V17.8359C30.5 18.1665 30.3882 18.4436 30.1646 18.6672C29.941 18.8908 29.6639 19.0026 29.3333 19.0026ZM31.6667 35.3359C32.3083 35.3359 32.8576 35.1075 33.3146 34.6505C33.7715 34.1936 34 33.6443 34 33.0026V31.0484C34 29.9207 34.2965 28.8804 34.8896 27.9276C35.4826 26.9748 36.2944 26.2554 37.325 25.7693C37.7333 25.5748 38.059 25.288 38.3021 24.9089C38.5451 24.5297 38.6667 24.1165 38.6667 23.6693C38.6667 22.9887 38.4139 22.4297 37.9083 21.9922C37.4028 21.5547 36.8097 21.3359 36.1292 21.3359H34C32.7167 21.3359 31.6181 21.7929 30.7042 22.7068C29.7903 23.6207 29.3333 24.7193 29.3333 26.0026V33.0026C29.3333 33.6443 29.5618 34.1936 30.0187 34.6505C30.4757 35.1075 31.025 35.3359 31.6667 35.3359ZM32.8333 17.8359C32.5028 17.8359 32.2257 17.7241 32.0021 17.5005C31.7785 17.2769 31.6667 16.9998 31.6667 16.6693V16.0859C31.6667 15.7554 31.7785 15.4783 32.0021 15.2547C32.2257 15.0311 32.5028 14.9193 32.8333 14.9193C33.1639 14.9193 33.441 15.0311 33.6646 15.2547C33.8882 15.4783 34 15.7554 34 16.0859V16.6693C34 16.9998 33.8882 17.2769 33.6646 17.5005C33.441 17.7241 33.1639 17.8359 32.8333 17.8359ZM36.3333 17.8359C36.0028 17.8359 35.7257 17.7241 35.5021 17.5005C35.2785 17.2769 35.1667 16.9998 35.1667 16.6693V15.5026C35.1667 15.172 35.2785 14.895 35.5021 14.6714C35.7257 14.4477 36.0028 14.3359 36.3333 14.3359C36.6639 14.3359 36.941 14.4477 37.1646 14.6714C37.3882 14.895 37.5 15.172 37.5 15.5026V16.6693C37.5 16.9998 37.3882 17.2769 37.1646 17.5005C36.941 17.7241 36.6639 17.8359 36.3333 17.8359ZM40.4167 19.0026C39.9306 19.0026 39.5174 18.8325 39.1771 18.4922C38.8368 18.1519 38.6667 17.7387 38.6667 17.2526V16.0859C38.6667 15.5998 38.8368 15.1866 39.1771 14.8464C39.5174 14.5061 39.9306 14.3359 40.4167 14.3359C40.9028 14.3359 41.316 14.5061 41.6562 14.8464C41.9965 15.1866 42.1667 15.5998 42.1667 16.0859V17.2526C42.1667 17.7387 41.9965 18.1519 41.6562 18.4922C41.316 18.8325 40.9028 19.0026 40.4167 19.0026Z" fill="#6F6F6F"/>
</g>
<path d="M56.986 29.662V33.334H66.382V35.224H54.592V29.662H56.986ZM65.482 26.404H67.768V28.294H52.774V26.404H56.518C57.13 24.406 57.292 22.894 57.328 21.742H54.178V19.852H59.65V20.626C59.65 21.868 59.668 23.722 58.894 26.404H63.106C63.61 24.424 63.736 22.894 63.772 21.742H60.622V19.852H66.094V20.644C66.094 21.85 66.112 23.722 65.482 26.404ZM70.0706 20.68H78.0266C78.0266 25.756 76.3166 29.896 70.4306 32.74L69.1886 30.868C73.4186 28.834 75.2546 26.242 75.5966 22.57H70.0706V20.68ZM80.5646 18.952H82.9586V35.53H80.5646V18.952ZM93.9912 26.476L94.2252 28.366C92.2992 28.726 90.5892 28.78 87.4392 28.78H86.1612V23.38H91.0572V21.814H86.1432V19.906H93.3972V25.144H88.5192V26.872C90.8952 26.854 92.3532 26.782 93.9912 26.476ZM88.0512 31.822V29.932H99.3912V35.566H97.0152V31.822H88.0512ZM97.0152 18.988L99.3912 18.97V29.194H97.0152V26.692H94.3512V24.802H97.0152V23.164H94.3512V21.256H97.0152V18.988Z" fill="#6F6F6F"/>
</g>
<defs>
<filter id="filter0_bd_20_1117" x="-8" y="-12" width="142" height="76" filterUnits="userSpaceOnUse" color-interpolation-filters="sRGB">
<feFlood flood-opacity="0" result="BackgroundImageFix"/>
<feGaussianBlur in="BackgroundImageFix" stdDeviation="8"/>
<feComposite in2="SourceAlpha" operator="in" result="effect1_backgroundBlur_20_1117"/>
<feColorMatrix in="SourceAlpha" type="matrix" values="0 0 0 0 0 0 0 0 0 0 0 0 0 0 0 0 0 0 127 0" result="hardAlpha"/>
<feOffset dy="4"/>
<feGaussianBlur stdDeviation="4"/>
<feComposite in2="hardAlpha" operator="out"/>
<feColorMatrix type="matrix" values="0 0 0 0 0 0 0 0 0 0 0 0 0 0 0 0 0 0 0.25 0"/>
<feBlend mode="normal" in2="effect1_backgroundBlur_20_1117" result="effect2_dropShadow_20_1117"/>
<feBlend mode="normal" in="SourceGraphic" in2="effect2_dropShadow_20_1117" result="shape"/>
</filter>
</defs>
</svg>
