<svg width="28" height="28" viewBox="0 0 28 28" fill="none" xmlns="http://www.w3.org/2000/svg">
<mask id="mask0_97_1739" style="mask-type:alpha" maskUnits="userSpaceOnUse" x="0" y="0" width="28" height="28">
<rect width="28" height="28" fill="#D9D9D9"/>
</mask>
<g mask="url(#mask0_97_1739)">
<path d="M6.41667 9.33594C6.08611 9.33594 5.80903 9.22413 5.58542 9.00052C5.36181 8.77691 5.25 8.49983 5.25 8.16927C5.25 7.83872 5.36181 7.56163 5.58542 7.33802C5.80903 7.11441 6.08611 7.0026 6.41667 7.0026C6.74722 7.0026 7.02431 7.11441 7.24792 7.33802C7.47153 7.56163 7.58333 7.83872 7.58333 8.16927C7.58333 8.49983 7.47153 8.77691 7.24792 9.00052C7.02431 9.22413 6.74722 9.33594 6.41667 9.33594ZM11.6667 25.6693C10.3833 25.6693 9.28472 25.2123 8.37083 24.2984C7.45694 23.3846 7 22.2859 7 21.0026V14.0026C7 12.0582 7.68056 10.4054 9.04167 9.04427C10.4028 7.68316 12.0556 7.0026 14 7.0026H16.1292C17.4708 7.0026 18.6181 7.45469 19.5708 8.35885C20.5236 9.26302 21 10.3762 21 11.6984C21 12.5929 20.7618 13.4144 20.2854 14.163C19.809 14.9116 19.1625 15.4804 18.3458 15.8693C17.7236 16.1609 17.2326 16.5936 16.8729 17.1672C16.5132 17.7408 16.3333 18.3679 16.3333 19.0484V21.0026C16.3333 22.3054 15.8813 23.4089 14.9771 24.313C14.0729 25.2172 12.9694 25.6693 11.6667 25.6693ZM9.33333 7.0026C9.00278 7.0026 8.72569 6.8908 8.50208 6.66719C8.27847 6.44358 8.16667 6.16649 8.16667 5.83594V5.2526C8.16667 4.92205 8.27847 4.64497 8.50208 4.42135C8.72569 4.19774 9.00278 4.08594 9.33333 4.08594C9.66389 4.08594 9.94097 4.19774 10.1646 4.42135C10.3882 4.64497 10.5 4.92205 10.5 5.2526V5.83594C10.5 6.16649 10.3882 6.44358 10.1646 6.66719C9.94097 6.8908 9.66389 7.0026 9.33333 7.0026ZM11.6667 23.3359C12.3083 23.3359 12.8576 23.1075 13.3146 22.6505C13.7715 22.1936 14 21.6443 14 21.0026V19.0484C14 17.9207 14.2965 16.8804 14.8896 15.9276C15.4826 14.9748 16.2944 14.2554 17.325 13.7693C17.7333 13.5748 18.059 13.288 18.3021 12.9089C18.5451 12.5297 18.6667 12.1165 18.6667 11.6693C18.6667 10.9887 18.4139 10.4297 17.9083 9.99219C17.4028 9.55469 16.8097 9.33594 16.1292 9.33594H14C12.7167 9.33594 11.6181 9.79288 10.7042 10.7068C9.79028 11.6207 9.33333 12.7193 9.33333 14.0026V21.0026C9.33333 21.6443 9.56181 22.1936 10.0187 22.6505C10.4757 23.1075 11.025 23.3359 11.6667 23.3359ZM12.8333 5.83594C12.5028 5.83594 12.2257 5.72413 12.0021 5.50052C11.7785 5.27691 11.6667 4.99983 11.6667 4.66927V4.08594C11.6667 3.75538 11.7785 3.4783 12.0021 3.25469C12.2257 3.03108 12.5028 2.91927 12.8333 2.91927C13.1639 2.91927 13.441 3.03108 13.6646 3.25469C13.8882 3.4783 14 3.75538 14 4.08594V4.66927C14 4.99983 13.8882 5.27691 13.6646 5.50052C13.441 5.72413 13.1639 5.83594 12.8333 5.83594ZM16.3333 5.83594C16.0028 5.83594 15.7257 5.72413 15.5021 5.50052C15.2785 5.27691 15.1667 4.99983 15.1667 4.66927V3.5026C15.1667 3.17205 15.2785 2.89497 15.5021 2.67135C15.7257 2.44774 16.0028 2.33594 16.3333 2.33594C16.6639 2.33594 16.941 2.44774 17.1646 2.67135C17.3882 2.89497 17.5 3.17205 17.5 3.5026V4.66927C17.5 4.99983 17.3882 5.27691 17.1646 5.50052C16.941 5.72413 16.6639 5.83594 16.3333 5.83594ZM20.4167 7.0026C19.9306 7.0026 19.5174 6.83247 19.1771 6.49219C18.8368 6.15191 18.6667 5.73872 18.6667 5.2526V4.08594C18.6667 3.59983 18.8368 3.18663 19.1771 2.84635C19.5174 2.50608 19.9306 2.33594 20.4167 2.33594C20.9028 2.33594 21.316 2.50608 21.6562 2.84635C21.9965 3.18663 22.1667 3.59983 22.1667 4.08594V5.2526C22.1667 5.73872 21.9965 6.15191 21.6562 6.49219C21.316 6.83247 20.9028 7.0026 20.4167 7.0026Z" fill="#F3D25D"/>
<path d="M10.6751 8.96582L15.8245 8.34375L18.1449 9.30549L19.2201 12.248L17.579 14.2852L15.3721 16.5486L15.1458 19.1517L13.6745 22.8864L10.7886 24.5274L8.63828 21.5283L8.24219 17.2277L9.0342 12.7007L10.6751 8.96582Z" fill="#F3D25D" stroke="#F3D25D" stroke-width="2" stroke-linecap="round" stroke-linejoin="round"/>
</g>
</svg>
