<svg width="134" height="44" viewBox="0 0 134 44" fill="none" xmlns="http://www.w3.org/2000/svg">
<g filter="url(#filter0_b_1025_13495)">
<mask id="path-1-inside-1_1025_13495" fill="white">
<path d="M0 4C0 1.79086 1.79086 0 4 0H130C132.209 0 134 1.79086 134 4V40C134 42.2091 132.209 44 130 44H4C1.79086 44 0 42.2091 0 40V4Z"/>
</mask>
<path d="M0 4C0 1.79086 1.79086 0 4 0H130C132.209 0 134 1.79086 134 4V40C134 42.2091 132.209 44 130 44H4C1.79086 44 0 42.2091 0 40V4Z" fill="#262520" fill-opacity="0.85"/>
<path d="M0 0H134H0ZM134 44H0H134ZM0 44V0V44ZM130 0C134.418 0 138 3.58172 138 8V36C138 40.4183 134.418 44 130 44C130 44 130 42.2091 130 40V4C130 1.79086 130 0 130 0Z" fill="#F3D25D" mask="url(#path-1-inside-1_1025_13495)"/>
<mask id="mask0_1025_13495" style="mask-type:alpha" maskUnits="userSpaceOnUse" x="14" y="8" width="28" height="28">
<rect x="14" y="8" width="28" height="28" fill="#D9D9D9"/>
</mask>
<g mask="url(#mask0_1025_13495)">
<path d="M20.4167 17.3335C20.0861 17.3335 19.809 17.2217 19.5854 16.9981C19.3618 16.7745 19.25 16.4974 19.25 16.1668C19.25 15.8363 19.3618 15.5592 19.5854 15.3356C19.809 15.112 20.0861 15.0002 20.4167 15.0002C20.7472 15.0002 21.0243 15.112 21.2479 15.3356C21.4715 15.5592 21.5833 15.8363 21.5833 16.1668C21.5833 16.4974 21.4715 16.7745 21.2479 16.9981C21.0243 17.2217 20.7472 17.3335 20.4167 17.3335ZM25.6667 33.6668C24.3833 33.6668 23.2847 33.2099 22.3708 32.296C21.4569 31.3821 21 30.2835 21 29.0002V22.0002C21 20.0557 21.6806 18.4029 23.0417 17.0418C24.4028 15.6807 26.0556 15.0002 28 15.0002H30.1292C31.4708 15.0002 32.6181 15.4522 33.5708 16.3564C34.5236 17.2606 35 18.3738 35 19.696C35 20.5904 34.7618 21.412 34.2854 22.1606C33.809 22.9092 33.1625 23.4779 32.3458 23.8668C31.7236 24.1585 31.2326 24.5911 30.8729 25.1647C30.5132 25.7384 30.3333 26.3654 30.3333 27.046V29.0002C30.3333 30.3029 29.8813 31.4064 28.9771 32.3106C28.0729 33.2147 26.9694 33.6668 25.6667 33.6668ZM23.3333 15.0002C23.0028 15.0002 22.7257 14.8884 22.5021 14.6647C22.2785 14.4411 22.1667 14.1641 22.1667 13.8335V13.2502C22.1667 12.9196 22.2785 12.6425 22.5021 12.4189C22.7257 12.1953 23.0028 12.0835 23.3333 12.0835C23.6639 12.0835 23.941 12.1953 24.1646 12.4189C24.3882 12.6425 24.5 12.9196 24.5 13.2502V13.8335C24.5 14.1641 24.3882 14.4411 24.1646 14.6647C23.941 14.8884 23.6639 15.0002 23.3333 15.0002ZM25.6667 31.3335C26.3083 31.3335 26.8576 31.105 27.3146 30.6481C27.7715 30.1911 28 29.6418 28 29.0002V27.046C28 25.9182 28.2965 24.8779 28.8896 23.9252C29.4826 22.9724 30.2944 22.2529 31.325 21.7668C31.7333 21.5724 32.059 21.2856 32.3021 20.9064C32.5451 20.5272 32.6667 20.1141 32.6667 19.6668C32.6667 18.9863 32.4139 18.4272 31.9083 17.9897C31.4028 17.5522 30.8097 17.3335 30.1292 17.3335H28C26.7167 17.3335 25.6181 17.7904 24.7042 18.7043C23.7903 19.6182 23.3333 20.7168 23.3333 22.0002V29.0002C23.3333 29.6418 23.5618 30.1911 24.0187 30.6481C24.4757 31.105 25.025 31.3335 25.6667 31.3335ZM26.8333 13.8335C26.5028 13.8335 26.2257 13.7217 26.0021 13.4981C25.7785 13.2745 25.6667 12.9974 25.6667 12.6668V12.0835C25.6667 11.7529 25.7785 11.4759 26.0021 11.2522C26.2257 11.0286 26.5028 10.9168 26.8333 10.9168C27.1639 10.9168 27.441 11.0286 27.6646 11.2522C27.8882 11.4759 28 11.7529 28 12.0835V12.6668C28 12.9974 27.8882 13.2745 27.6646 13.4981C27.441 13.7217 27.1639 13.8335 26.8333 13.8335ZM30.3333 13.8335C30.0028 13.8335 29.7257 13.7217 29.5021 13.4981C29.2785 13.2745 29.1667 12.9974 29.1667 12.6668V11.5002C29.1667 11.1696 29.2785 10.8925 29.5021 10.6689C29.7257 10.4453 30.0028 10.3335 30.3333 10.3335C30.6639 10.3335 30.941 10.4453 31.1646 10.6689C31.3882 10.8925 31.5 11.1696 31.5 11.5002V12.6668C31.5 12.9974 31.3882 13.2745 31.1646 13.4981C30.941 13.7217 30.6639 13.8335 30.3333 13.8335ZM34.4167 15.0002C33.9306 15.0002 33.5174 14.83 33.1771 14.4897C32.8368 14.1495 32.6667 13.7363 32.6667 13.2502V12.0835C32.6667 11.5974 32.8368 11.1842 33.1771 10.8439C33.5174 10.5036 33.9306 10.3335 34.4167 10.3335C34.9028 10.3335 35.316 10.5036 35.6562 10.8439C35.9965 11.1842 36.1667 11.5974 36.1667 12.0835V13.2502C36.1667 13.7363 35.9965 14.1495 35.6562 14.4897C35.316 14.83 34.9028 15.0002 34.4167 15.0002Z" fill="#F3D25D"/>
<path d="M24.6768 16.9639L29.8262 16.3418L32.1466 17.3035L33.2218 20.2461L31.5808 22.2832L29.3739 24.5467L29.1475 27.1497L27.6762 30.8844L24.7903 32.5255L22.64 29.5264L22.2439 25.2257L23.0359 20.6988L24.6768 16.9639Z" fill="#F3D25D" stroke="#F3D25D" stroke-width="2" stroke-linecap="round" stroke-linejoin="round"/>
</g>
<path d="M46.72 22.404H61.804V24.33H46.72V22.404ZM48.556 29.352H60.4V31.278H48.556V29.352ZM48.556 25.68H50.95V29.622H48.556V25.68ZM48.124 15.816H52.012V17.706H48.124V15.816ZM51.31 15.816H53.65V16.59C53.65 17.994 53.668 20.19 52.57 23.466L50.284 22.944C51.31 19.902 51.31 17.886 51.31 16.59V15.816ZM54.604 15.816H58.888V17.706H54.604V15.816ZM57.79 15.816H60.112V16.608C60.112 17.94 60.13 20.136 59.284 23.304L56.98 22.944C57.79 19.92 57.79 17.868 57.79 16.608V15.816ZM74.7626 14.934H77.1746V31.602H74.7626V14.934ZM69.8486 16.662H72.2246C72.2246 21.756 70.4966 25.932 64.5746 28.794L63.3326 26.886C68.1206 24.582 69.8486 21.558 69.8486 17.094V16.662ZM64.2146 16.662H70.9826V18.552H64.2146V16.662ZM80.4672 22.872H81.7452C84.8412 22.872 86.4612 22.818 88.3512 22.476L88.5852 24.366C86.6412 24.726 84.9312 24.78 81.7452 24.78H80.4672V22.872ZM80.4492 15.888H87.7752V21.144H82.8432V24.132H80.4672V19.362H85.3992V17.778H80.4492V15.888ZM91.3932 14.952H93.7872V25.212H91.3932V14.952ZM88.7292 17.238H91.8252V19.146H88.7292V17.238ZM88.7292 20.784H91.8252V22.692H88.7292V20.784ZM82.3752 25.968H93.7872V31.62H91.3932V27.876H82.3752V25.968Z" fill="#F3D25D"/>
<mask id="mask1_1025_13495" style="mask-type:alpha" maskUnits="userSpaceOnUse" x="96" y="10" width="24" height="24">
<rect x="96" y="10" width="24" height="24" fill="#D9D9D9"/>
</mask>
<g mask="url(#mask1_1025_13495)">
<path d="M108 24.3998L103.1 29.2998C102.917 29.4831 102.683 29.5748 102.4 29.5748C102.117 29.5748 101.883 29.4831 101.7 29.2998C101.517 29.1165 101.425 28.8831 101.425 28.5998C101.425 28.3165 101.517 28.0831 101.7 27.8998L106.6 22.9998L101.7 18.0998C101.517 17.9165 101.425 17.6831 101.425 17.3998C101.425 17.1165 101.517 16.8831 101.7 16.6998C101.883 16.5165 102.117 16.4248 102.4 16.4248C102.683 16.4248 102.917 16.5165 103.1 16.6998L108 21.5998L112.9 16.6998C113.083 16.5165 113.317 16.4248 113.6 16.4248C113.883 16.4248 114.117 16.5165 114.3 16.6998C114.483 16.8831 114.575 17.1165 114.575 17.3998C114.575 17.6831 114.483 17.9165 114.3 18.0998L109.4 22.9998L114.3 27.8998C114.483 28.0831 114.575 28.3165 114.575 28.5998C114.575 28.8831 114.483 29.1165 114.3 29.2998C114.117 29.4831 113.883 29.5748 113.6 29.5748C113.317 29.5748 113.083 29.4831 112.9 29.2998L108 24.3998Z" fill="#F3D25D"/>
</g>
</g>
<defs>
<filter id="filter0_b_1025_13495" x="-12" y="-12" width="158" height="68" filterUnits="userSpaceOnUse" color-interpolation-filters="sRGB">
<feFlood flood-opacity="0" result="BackgroundImageFix"/>
<feGaussianBlur in="BackgroundImageFix" stdDeviation="6"/>
<feComposite in2="SourceAlpha" operator="in" result="effect1_backgroundBlur_1025_13495"/>
<feBlend mode="normal" in="SourceGraphic" in2="effect1_backgroundBlur_1025_13495" result="shape"/>
</filter>
</defs>
</svg>
