<svg width="36" height="36" viewBox="0 0 36 36" fill="none" xmlns="http://www.w3.org/2000/svg">
<circle cx="18" cy="18" r="18" fill="#333333"/>
<mask id="mask0_92_1394" style="mask-type:alpha" maskUnits="userSpaceOnUse" x="5" y="5" width="26" height="26">
<rect x="5.39844" y="5.39844" width="25.2" height="25.2" fill="#D9D9D9"/>
</mask>
<g mask="url(#mask0_92_1394)">
<path d="M18.0016 17.9937C16.8466 17.9937 15.8578 17.5825 15.0353 16.76C14.2128 15.9375 13.8016 14.9487 13.8016 13.7937C13.8016 12.6387 14.2128 11.65 15.0353 10.8275C15.8578 10.005 16.8466 9.59375 18.0016 9.59375C19.1566 9.59375 20.1453 10.005 20.9678 10.8275C21.7903 11.65 22.2016 12.6387 22.2016 13.7937C22.2016 14.9487 21.7903 15.9375 20.9678 16.76C20.1453 17.5825 19.1566 17.9937 18.0016 17.9937ZM9.60156 24.2937V23.4537C9.60156 22.8587 9.75469 22.3119 10.0609 21.8131C10.3672 21.3144 10.7741 20.9337 11.2816 20.6712C12.3666 20.1287 13.4691 19.7219 14.5891 19.4506C15.7091 19.1794 16.8466 19.0437 18.0016 19.0437C19.1566 19.0437 20.2941 19.1794 21.4141 19.4506C22.5341 19.7219 23.6366 20.1287 24.7216 20.6712C25.2291 20.9337 25.6359 21.3144 25.9422 21.8131C26.2484 22.3119 26.4016 22.8587 26.4016 23.4537V24.2937C26.4016 24.8712 26.1959 25.3656 25.7847 25.7769C25.3734 26.1881 24.8791 26.3937 24.3016 26.3937H11.7016C11.1241 26.3937 10.6297 26.1881 10.2184 25.7769C9.80719 25.3656 9.60156 24.8712 9.60156 24.2937Z" fill="#8B8B8B"/>
</g>
</svg>
