<svg width="36" height="37" viewBox="0 0 36 37" fill="none" xmlns="http://www.w3.org/2000/svg">
<mask id="mask0_162_158" style="mask-type:alpha" maskUnits="userSpaceOnUse" x="0" y="0" width="36" height="37">
<rect y="0.875488" width="36" height="36" fill="#D9D9D9"/>
</mask>
<g mask="url(#mask0_162_158)">
<path d="M23.9821 29.6616C24.6738 30.2631 24.739 31.3144 24.1269 31.9966V31.9966C23.5268 32.6656 22.5003 32.7277 21.8239 32.1359L19.3002 29.9276C18.3402 30.4796 17.3442 30.8756 16.3122 31.1156C15.2802 31.3556 14.2602 31.4756 13.2522 31.4756C11.3322 31.4756 9.60419 31.1276 8.06819 30.4316C6.55619 29.7116 5.27219 28.7396 4.21619 27.5156C3.16019 26.2916 2.34419 24.8636 1.76819 23.2316C1.21619 21.5996 0.940186 19.8596 0.940186 18.0116C0.940186 16.1876 1.21619 14.4596 1.76819 12.8276C2.34419 11.1956 3.16019 9.76761 4.21619 8.54361C5.27219 7.31961 6.55619 6.34761 8.06819 5.62761C9.60419 4.90761 11.3322 4.54761 13.2522 4.54761C15.1722 4.54761 16.8882 4.90761 18.4002 5.62761C19.9362 6.34761 21.2322 7.31961 22.2882 8.54361C23.3442 9.76761 24.1482 11.1956 24.7002 12.8276C25.2762 14.4596 25.5642 16.1876 25.5642 18.0116C25.5642 18.8996 25.4922 19.7996 25.3482 20.7116C25.2042 21.5996 24.9882 22.4756 24.7002 23.3396C24.4122 24.2036 24.0402 25.0316 23.5842 25.8236C23.1282 26.5916 22.5762 27.2756 21.9282 27.8756L23.9821 29.6616ZM14.7755 26.0045C14.0927 25.407 14.0219 24.3697 14.6173 23.6849V23.6849C15.215 22.9976 16.2571 22.9261 16.943 23.5253L18.8322 25.1756C19.6482 24.1916 20.2242 23.0756 20.5602 21.8276C20.8962 20.5796 21.0642 19.3076 21.0642 18.0116C21.0642 16.7876 20.9082 15.5876 20.5962 14.4116C20.3082 13.2356 19.8522 12.1916 19.2282 11.2796C18.6042 10.3436 17.7882 9.59961 16.7802 9.04761C15.7962 8.49561 14.6202 8.21961 13.2522 8.21961C11.8842 8.21961 10.6962 8.49561 9.68819 9.04761C8.70419 9.59961 7.90019 10.3436 7.27619 11.2796C6.65219 12.1916 6.18419 13.2356 5.87219 14.4116C5.58419 15.5876 5.44019 16.7876 5.44019 18.0116C5.44019 19.2356 5.58419 20.4356 5.87219 21.6116C6.18419 22.7876 6.65219 23.8436 7.27619 24.7796C7.90019 25.6916 8.70419 26.4236 9.68819 26.9756C10.6962 27.5276 11.8842 27.8036 13.2522 27.8036C13.7322 27.8036 14.2122 27.7556 14.6922 27.6596C15.1962 27.5636 15.6762 27.4076 16.1322 27.1916L14.7755 26.0045Z" fill="#F7F7F7"/>
<path d="M32.2877 31.3316C30.7397 31.3316 29.5157 30.1436 29.5157 28.4516C29.5157 26.7236 30.7397 25.4996 32.2877 25.4996C33.8357 25.4996 35.0597 26.7236 35.0597 28.4516C35.0597 30.1436 33.8357 31.3316 32.2877 31.3316Z" fill="#F7F7F7"/>
</g>
</svg>