<svg width="460" height="56" viewBox="0 0 460 56" fill="none" xmlns="http://www.w3.org/2000/svg">
<rect width="460" height="56" rx="12" fill="#FFF374"/>
<path d="M190.489 20.916H192.883V37.638H190.489V20.916ZM179.905 31.806H181.381C184.333 31.806 186.691 31.698 189.337 31.248L189.571 33.174C186.871 33.66 184.423 33.75 181.381 33.75H179.905V31.806ZM179.887 22.338H187.753V28.782H182.335V32.526H179.905V26.892H185.305V24.246H179.887V22.338ZM198.93 30.672H201.342V37.602H198.93V30.672ZM204.888 30.672H207.3V37.602H204.888V30.672ZM195.564 30.384H210.666V32.292H195.564V30.384ZM197.292 21.546H199.668V23.364H206.508V21.546H208.884V28.818H197.292V21.546ZM199.668 25.254V26.892H206.508V25.254H199.668ZM220.268 22.212H222.212V24.642C222.212 28.926 220.736 32.796 217.424 34.326L216.002 32.346C218.9 31.086 220.268 27.882 220.268 24.642V22.212ZM220.736 22.212H222.68V24.642C222.68 27.72 223.994 30.78 226.838 32.004L225.434 33.93C222.212 32.454 220.736 28.746 220.736 24.642V22.212ZM227.63 20.916H230.042V37.638H227.63V20.916ZM236.467 22.644H238.429V23.688C238.429 26.838 236.935 29.664 233.749 30.69L232.507 28.836C235.297 27.936 236.467 25.776 236.467 23.688V22.644ZM236.953 22.644H238.897V23.688C238.897 25.65 240.031 27.684 242.731 28.548L241.507 30.402C238.393 29.394 236.953 26.676 236.953 23.688V22.644ZM233.155 21.906H242.155V23.814H233.155V21.906ZM243.487 20.934H245.881V30.978H243.487V20.934ZM245.215 24.966H248.095V26.928H245.215V24.966ZM234.757 31.698H245.881V37.602H243.487V33.624H234.757V31.698ZM260.01 20.934H262.386V37.602H260.01V20.934ZM261.846 27.432H264.798V29.43H261.846V27.432ZM249.246 23.4H258.948V25.308H249.246V23.4ZM254.124 26.244C256.554 26.244 258.354 27.9 258.354 30.222C258.354 32.544 256.554 34.2 254.124 34.2C251.694 34.2 249.894 32.544 249.894 30.222C249.894 27.9 251.694 26.244 254.124 26.244ZM254.124 28.188C252.99 28.188 252.18 28.944 252.18 30.222C252.18 31.5 252.99 32.256 254.124 32.256C255.258 32.256 256.068 31.5 256.068 30.222C256.068 28.944 255.258 28.188 254.124 28.188ZM252.918 21.204H255.312V24.12H252.918V21.204ZM277.36 20.934H279.772V37.602H277.36V20.934ZM272.446 22.662H274.822C274.822 27.756 273.094 31.932 267.172 34.794L265.93 32.886C270.718 30.582 272.446 27.558 272.446 23.094V22.662ZM266.812 22.662H273.58V24.552H266.812V22.662Z" fill="black"/>
</svg>
