<svg width="8" height="13" viewBox="0 0 8 13" fill="none" xmlns="http://www.w3.org/2000/svg">
<path d="M7.64167 6.50417C7.64167 6.34861 7.61736 6.20278 7.56875 6.06667C7.52014 5.93056 7.4375 5.80417 7.32083 5.6875L1.95417 0.320833C1.74028 0.106945 1.46806 6.41708e-08 1.1375 4.97217e-08C0.806945 3.52727e-08 0.534722 0.106944 0.320833 0.320833C0.106944 0.534722 -3.52727e-08 0.806944 -4.97217e-08 1.1375C-6.41707e-08 1.46806 0.106944 1.74028 0.320833 1.95417L4.87083 6.50417L0.320833 11.0542C0.106944 11.2681 -5.04442e-07 11.5403 -5.18891e-07 11.8708C-5.3334e-07 12.2014 0.106944 12.4736 0.320833 12.6875C0.534722 12.9014 0.806944 13.0083 1.1375 13.0083C1.46806 13.0083 1.74028 12.9014 1.95417 12.6875L7.32083 7.32083C7.4375 7.20417 7.52014 7.07778 7.56875 6.94167C7.61736 6.80556 7.64167 6.65972 7.64167 6.50417Z" fill="#6F6F6F"/>
</svg>
