<svg width="28" height="28" viewBox="0 0 28 28" fill="none" xmlns="http://www.w3.org/2000/svg">
<mask id="mask0_127_1992" style="mask-type:alpha" maskUnits="userSpaceOnUse" x="0" y="0" width="28" height="28">
<rect width="28" height="28" transform="matrix(-4.37114e-08 1 1 4.37114e-08 0 0)" fill="#D9D9D9"/>
</mask>
<g mask="url(#mask0_127_1992)">
<path d="M17.4385 13.9964C17.4385 13.8408 17.4142 13.695 17.3656 13.5589C17.317 13.4227 17.2344 13.2964 17.1177 13.1797L11.751 7.81302C11.5372 7.59913 11.2649 7.49219 10.9344 7.49219C10.6038 7.49219 10.3316 7.59913 10.1177 7.81302C9.90382 8.02691 9.79687 8.29913 9.79687 8.62969C9.79687 8.96024 9.90382 9.23247 10.1177 9.44635L14.6677 13.9964L10.1177 18.5464C9.90382 18.7602 9.79687 19.0325 9.79687 19.363C9.79687 19.6936 9.90382 19.9658 10.1177 20.1797C10.3316 20.3936 10.6038 20.5005 10.9344 20.5005C11.2649 20.5005 11.5372 20.3936 11.751 20.1797L17.1177 14.813C17.2344 14.6964 17.317 14.57 17.3656 14.4339C17.4142 14.2977 17.4385 14.1519 17.4385 13.9964Z" fill="#FFF374" fill-opacity="0.6"/>
</g>
</svg>
