<svg width="134" height="50" viewBox="0 0 134 50" fill="none" xmlns="http://www.w3.org/2000/svg">
<path d="M21 50L26 44H16L21 50Z" fill="#212121"/>
<rect width="134" height="44" rx="8" fill="#212121"/>
<path d="M20.031 28.196C18.393 28.196 17.287 27.594 16.559 26.754L17.539 25.452C18.155 26.054 18.897 26.53 19.835 26.53C20.899 26.53 21.613 25.998 21.613 25.074C21.613 24.052 21.011 23.422 18.757 23.422V21.938C20.661 21.938 21.277 21.294 21.277 20.37C21.277 19.558 20.773 19.068 19.891 19.068C19.149 19.068 18.547 19.418 17.931 19.992L16.881 18.718C17.777 17.948 18.771 17.458 19.975 17.458C21.977 17.458 23.335 18.438 23.335 20.216C23.335 21.322 22.719 22.148 21.613 22.568V22.638C22.789 22.974 23.685 23.828 23.685 25.2C23.685 27.104 22.019 28.196 20.031 28.196ZM25.0408 26.264H36.7728V27.776H25.0408V26.264ZM29.9688 23.772H31.8308V27.048H29.9688V23.772ZM29.9548 18.984H31.6068V19.264C31.6068 21.742 29.6328 23.744 26.0768 24.206L25.4048 22.736C28.5548 22.358 29.9548 20.748 29.9548 19.264V18.984ZM30.2068 18.984H31.8448V19.264C31.8448 20.748 33.2448 22.358 36.3948 22.736L35.7228 24.206C32.1668 23.744 30.2068 21.742 30.2068 19.264V18.984ZM26.0348 18.032H35.7648V19.53H26.0348V18.032ZM29.9688 16.45H31.8308V18.648H29.9688V16.45ZM38.2837 17.346H44.4577V23.604H38.2837V17.346ZM42.6237 18.816H40.1177V22.134H42.6237V18.816ZM46.2497 16.282H48.1117V25.732H46.2497V16.282ZM47.5797 20.02H49.8337V21.546H47.5797V20.02ZM39.7537 27.538H48.5737V29.022H39.7537V27.538ZM39.7537 24.808H41.6157V28.28H39.7537V24.808ZM55.9646 21.056H58.0926V22.554H55.9646V21.056ZM60.1506 16.282H61.9286V29.246H60.1506V16.282ZM57.5046 16.478H59.2546V28.658H57.5046V16.478ZM53.6966 17.192C55.4186 17.192 56.5246 18.97 56.5246 21.896C56.5246 24.836 55.4186 26.614 53.6966 26.614C51.9886 26.614 50.8966 24.836 50.8966 21.896C50.8966 18.97 51.9886 17.192 53.6966 17.192ZM53.6966 18.942C52.9966 18.942 52.5906 19.922 52.5906 21.896C52.5906 23.884 52.9966 24.85 53.6966 24.85C54.4246 24.85 54.8306 23.884 54.8306 21.896C54.8306 19.922 54.4246 18.942 53.6966 18.942ZM69.9994 17.276H71.5114V19.166C71.5114 22.498 70.3634 25.508 67.7874 26.698L66.6814 25.158C68.9354 24.178 69.9994 21.686 69.9994 19.166V17.276ZM70.3634 17.276H71.8754V19.166C71.8754 21.56 72.8974 23.94 75.1094 24.892L74.0174 26.39C71.5114 25.242 70.3634 22.358 70.3634 19.166V17.276ZM75.7254 16.268H77.6014V29.274H75.7254V16.268ZM82.5983 17.612H84.1243V18.424C84.1243 20.874 82.9623 23.072 80.4843 23.87L79.5183 22.428C81.6883 21.728 82.5983 20.048 82.5983 18.424V17.612ZM82.9763 17.612H84.4883V18.424C84.4883 19.95 85.3703 21.532 87.4703 22.204L86.5183 23.646C84.0963 22.862 82.9763 20.748 82.9763 18.424V17.612ZM80.0223 17.038H87.0223V18.522H80.0223V17.038ZM88.0583 16.282H89.9203V24.094H88.0583V16.282ZM89.4023 19.418H91.6423V20.944H89.4023V19.418ZM81.2683 24.654H89.9203V29.246H88.0583V26.152H81.2683V24.654ZM100.909 16.282H102.757V29.246H100.909V16.282ZM102.337 21.336H104.633V22.89H102.337V21.336ZM92.5372 18.2H100.083V19.684H92.5372V18.2ZM96.3312 20.412C98.2212 20.412 99.6212 21.7 99.6212 23.506C99.6212 25.312 98.2212 26.6 96.3312 26.6C94.4412 26.6 93.0412 25.312 93.0412 23.506C93.0412 21.7 94.4412 20.412 96.3312 20.412ZM96.3312 21.924C95.4492 21.924 94.8192 22.512 94.8192 23.506C94.8192 24.5 95.4492 25.088 96.3312 25.088C97.2132 25.088 97.8432 24.5 97.8432 23.506C97.8432 22.512 97.2132 21.924 96.3312 21.924ZM95.3932 16.492H97.2552V18.76H95.3932V16.492ZM114.404 16.282H116.28V29.246H114.404V16.282ZM110.582 17.626H112.43C112.43 21.588 111.086 24.836 106.48 27.062L105.514 25.578C109.238 23.786 110.582 21.434 110.582 17.962V17.626ZM106.2 17.626H111.464V19.096H106.2V17.626Z" fill="#F7F7F7"/>
</svg>
