<svg width="24" height="24" viewBox="0 0 24 24" fill="none" xmlns="http://www.w3.org/2000/svg">
<mask id="mask0_52_681" style="mask-type:alpha" maskUnits="userSpaceOnUse" x="0" y="0" width="24" height="24">
<rect width="24" height="24" fill="#D9D9D9"/>
</mask>
<g mask="url(#mask0_52_681)">
<path d="M6.00938 12.9969L10.9094 17.8969C11.1094 18.0969 11.2052 18.3302 11.1969 18.5969C11.1885 18.8635 11.0844 19.0969 10.8844 19.2969C10.6844 19.4802 10.451 19.576 10.1844 19.5844C9.91771 19.5927 9.68438 19.4969 9.48438 19.2969L2.88438 12.6969C2.78438 12.5969 2.71354 12.4885 2.67188 12.3719C2.63021 12.2552 2.60938 12.1302 2.60938 11.9969C2.60938 11.8635 2.63021 11.7385 2.67188 11.6219C2.71354 11.5052 2.78438 11.3969 2.88438 11.2969L9.48438 4.69688C9.66771 4.51354 9.89687 4.42188 10.1719 4.42188C10.4469 4.42188 10.6844 4.51354 10.8844 4.69688C11.0844 4.89688 11.1844 5.13438 11.1844 5.40938C11.1844 5.68438 11.0844 5.92188 10.8844 6.12188L6.00938 10.9969H20.3886C20.672 10.9969 20.9095 11.0927 21.1011 11.2844C21.2928 11.476 21.3886 11.7135 21.3886 11.9969C21.3886 12.2802 21.2928 12.5177 21.1011 12.7094C20.9095 12.901 20.672 12.9969 20.3886 12.9969H6.00938Z" fill="#F7F7F7"/>
</g>
</svg>
