<svg width="240" height="52" viewBox="0 0 240 52" fill="none" xmlns="http://www.w3.org/2000/svg">
<path d="M0 26C0 11.6406 11.6406 0 26 0H214C228.359 0 240 11.6406 240 26C240 40.3594 228.359 52 214 52H26C11.6406 52 0 40.3594 0 26Z" fill="#212121"/>
<mask id="mask0_711_960" style="mask-type:alpha" maskUnits="userSpaceOnUse" x="21" y="16" width="21" height="20">
<rect x="21.5" y="16" width="20" height="20" fill="#D9D9D9"/>
</mask>
<g mask="url(#mask0_711_960)">
<path fill-rule="evenodd" clip-rule="evenodd" d="M32.8214 20.1253C32.1799 19.0142 30.5761 19.0142 29.9346 20.1253L23.7242 30.8821C23.0827 31.9932 23.8846 33.3821 25.1676 33.3821H37.5884C38.8714 33.3821 39.6733 31.9932 39.0318 30.8821L32.8214 20.1253ZM30.9072 30.7883C31.0709 30.952 31.2677 31.0339 31.4975 31.0339C31.7273 31.0339 31.9241 30.952 32.0878 30.7883C32.2514 30.6247 32.3333 30.4279 32.3333 30.1981C32.3333 29.9682 32.2514 29.7715 32.0878 29.6078C31.9241 29.4442 31.7273 29.3623 31.4975 29.3623C31.2677 29.3623 31.0709 29.4442 30.9072 29.6078C30.7436 29.7715 30.6617 29.9682 30.6617 30.1981C30.6617 30.4279 30.7436 30.6247 30.9072 30.7883ZM30.9074 28.2734C31.0711 28.437 31.2678 28.5189 31.4977 28.5189C31.7275 28.5189 31.9243 28.437 32.0879 28.2734C32.2516 28.1097 32.3334 27.9129 32.3334 27.6831V25.1819C32.3334 24.9521 32.2516 24.7553 32.0879 24.5917C31.9243 24.428 31.7275 24.3462 31.4977 24.3462C31.2678 24.3462 31.0711 24.428 30.9074 24.5917C30.7437 24.7553 30.6619 24.9521 30.6619 25.1819V27.6831C30.6619 27.9129 30.7437 28.1097 30.9074 28.2734Z" fill="#F5511D"/>
</g>
<path d="M55.0092 20.296H56.8572V33.232H55.0092V20.296ZM49.9272 21.206C51.8732 21.206 53.3152 22.97 53.3152 25.798C53.3152 28.64 51.8732 30.418 49.9272 30.418C47.9812 30.418 46.5392 28.64 46.5392 25.798C46.5392 22.97 47.9812 21.206 49.9272 21.206ZM49.9272 22.872C48.9752 22.872 48.3172 23.894 48.3172 25.798C48.3172 27.716 48.9752 28.738 49.9272 28.738C50.8792 28.738 51.5372 27.716 51.5372 25.798C51.5372 23.894 50.8792 22.872 49.9272 22.872ZM67.9861 29.802V24.958H65.9841V23.404H67.9861V20.31H69.8341V29.802H67.9861ZM66.2221 26.358L66.3621 27.828C64.6121 28.108 63.0441 28.15 60.6081 28.15H59.5441V23.908H63.5201V22.634H59.5301V21.164H65.3401V25.294H61.3781V26.666C63.3521 26.652 64.6821 26.596 66.2221 26.358ZM63.1141 31.51H70.1561V32.98H61.2661V29.046H63.1141V31.51ZM73.2491 28.472L72.9551 23.306L72.8851 21.36H74.9571L74.8871 23.306L74.5931 28.472H73.2491ZM73.9211 32.196C73.1931 32.196 72.6471 31.608 72.6471 30.852C72.6471 30.082 73.1931 29.508 73.9211 29.508C74.6491 29.508 75.2091 30.082 75.2091 30.852C75.2091 31.608 74.6491 32.196 73.9211 32.196ZM80.2866 32V30.81C83.1006 28.29 84.7666 26.344 84.7666 24.748C84.7666 23.698 84.2066 23.068 83.2126 23.068C82.4566 23.068 81.8406 23.558 81.3086 24.132L80.1886 23.012C81.1406 21.99 82.0646 21.444 83.4786 21.444C85.4386 21.444 86.7406 22.704 86.7406 24.636C86.7406 26.512 85.1866 28.528 83.2966 30.376C83.8146 30.32 84.5006 30.264 84.9906 30.264H87.2306V32H80.2866ZM92.0587 32.196C89.9447 32.196 88.5447 30.348 88.5447 26.778C88.5447 23.194 89.9447 21.444 92.0587 21.444C94.1727 21.444 95.5587 23.208 95.5587 26.778C95.5587 30.348 94.1727 32.196 92.0587 32.196ZM92.0587 30.586C92.9547 30.586 93.6127 29.69 93.6127 26.778C93.6127 23.88 92.9547 23.04 92.0587 23.04C91.1627 23.04 90.4907 23.88 90.4907 26.778C90.4907 29.69 91.1627 30.586 92.0587 30.586ZM101.507 23.068V23.782C101.507 25.742 102.529 28.024 104.643 29.004L103.621 30.46C102.193 29.802 101.185 28.514 100.611 26.988C100.037 28.668 99.0009 30.082 97.5309 30.782L96.4949 29.312C98.6089 28.332 99.6589 25.91 99.6589 23.782V23.068H96.9849V21.542H104.069V23.068H101.507ZM108.745 25.224V26.75H106.869V33.204H105.021V20.31H106.869V25.224H108.745ZM109.962 21.626H113.448C113.448 25.182 113.126 27.954 110.83 30.502L109.388 29.452C111.096 27.562 111.6 25.7 111.698 23.11H109.962V21.626ZM113.896 21.626H117.004C117.004 25.35 116.71 28.528 114.456 31.314L113 30.292C114.708 28.136 115.17 25.98 115.268 23.11H113.896V21.626ZM121.568 25.35V26.876H119.902V33.19H118.04V20.296H119.902V25.35H121.568ZM127.517 23.068V23.782C127.517 25.882 128.553 28.108 130.709 29.004L129.701 30.46C128.203 29.816 127.181 28.556 126.607 27.002C126.033 28.682 124.997 30.096 123.485 30.782L122.435 29.312C124.591 28.346 125.641 25.98 125.641 23.782V23.068H122.953V21.542H130.177V23.068H127.517ZM131.367 20.31H133.215V33.204H131.367V20.31ZM147.431 20.31H149.293V27.24H147.431V20.31ZM140.725 27.8H142.559V29.004H147.459V27.8H149.293V33.05H140.725V27.8ZM142.559 30.418V31.58H147.459V30.418H142.559ZM142.279 20.842C144.281 20.842 145.779 22.116 145.779 23.88C145.779 25.658 144.281 26.932 142.279 26.932C140.277 26.932 138.765 25.658 138.765 23.88C138.765 22.116 140.277 20.842 142.279 20.842ZM142.279 22.368C141.299 22.368 140.571 22.942 140.571 23.88C140.571 24.846 141.299 25.406 142.279 25.406C143.259 25.406 143.973 24.846 143.973 23.88C143.973 22.942 143.259 22.368 142.279 22.368ZM158.042 26.148L158.224 27.618C156.726 27.898 155.396 27.94 152.946 27.94H151.952V23.74H155.76V22.522H151.938V21.038H157.58V25.112H153.786V26.456C155.634 26.442 156.768 26.386 158.042 26.148ZM153.422 30.306V28.836H162.242V33.218H160.394V30.306H153.422ZM160.394 20.324L162.242 20.31V28.262H160.394V26.316H158.322V24.846H160.394V23.572H158.322V22.088H160.394V20.324ZM168.101 21.626H174.177C174.177 25.49 172.707 28.808 168.423 30.978L167.387 29.564C170.383 28.024 171.979 25.98 172.315 23.124H168.101V21.626ZM179.413 25.224V26.75H177.607V33.176H175.759V20.296H177.607V25.224H179.413ZM190.766 23.516V24.986H181.862V20.534H183.71V23.516H190.766ZM186.188 31.762C187.91 31.762 188.792 31.454 188.792 30.782C188.792 30.11 187.91 29.802 186.188 29.802C184.466 29.802 183.584 30.11 183.584 30.782C183.584 31.454 184.466 31.762 186.188 31.762ZM186.188 28.388C188.974 28.388 190.668 29.27 190.668 30.782C190.668 32.294 188.974 33.176 186.188 33.176C183.402 33.176 181.722 32.294 181.722 30.782C181.722 29.27 183.402 28.388 186.188 28.388ZM180.406 26.078H192.068V27.548H180.406V26.078ZM196.365 28.892C197.065 28.892 197.569 28.332 197.569 27.366C197.569 26.4 197.065 25.826 196.365 25.826C195.665 25.826 195.161 26.4 195.161 27.366C195.161 28.332 195.665 28.892 196.365 28.892ZM196.365 24.286C198.017 24.286 199.193 25.56 199.193 27.366C199.193 29.158 198.017 30.432 196.365 30.432C194.713 30.432 193.537 29.158 193.537 27.366C193.537 25.56 194.713 24.286 196.365 24.286ZM197.275 20.66V22.256H199.417V23.726H193.257V22.256H195.455V20.66H197.275ZM202.581 20.296H204.331V33.19H202.581V27.044H201.601V32.658H199.879V20.548H201.601V25.56H202.581V20.296ZM210.56 27.744V30.208H213.402V27.744C212.954 27.828 212.478 27.87 211.974 27.87C211.47 27.87 211.008 27.828 210.56 27.744ZM211.974 22.396C210.182 22.396 208.992 23.124 208.992 24.412C208.992 25.686 210.182 26.428 211.974 26.428C213.766 26.428 214.97 25.686 214.97 24.412C214.97 23.124 213.766 22.396 211.974 22.396ZM215.236 30.208H217.826V31.706H206.15V30.208H208.726V27.058C207.746 26.456 207.158 25.532 207.172 24.412C207.172 22.298 209.202 20.94 211.974 20.94C214.76 20.94 216.79 22.298 216.79 24.412C216.79 25.532 216.202 26.456 215.236 27.058V30.208Z" fill="#F5511D"/>
</svg>
