<svg width="241" height="52" viewBox="0 0 241 52" fill="none" xmlns="http://www.w3.org/2000/svg">
<path d="M0.805176 26C0.805176 11.6406 12.4458 0 26.8052 0H214.805C229.165 0 240.805 11.6406 240.805 26C240.805 40.3594 229.165 52 214.805 52H26.8052C12.4458 52 0.805176 40.3594 0.805176 26Z" fill="#212121"/>
<mask id="mask0_299_2990" style="mask-type:alpha" maskUnits="userSpaceOnUse" x="27" y="16" width="21" height="20">
<rect x="27.3052" y="16" width="20" height="20" fill="#D9D9D9"/>
</mask>
<g mask="url(#mask0_299_2990)">
<path fill-rule="evenodd" clip-rule="evenodd" d="M38.6267 20.1254C37.9852 19.0143 36.3814 19.0143 35.7399 20.1254L29.5295 30.8822C28.888 31.9934 29.6899 33.3822 30.9729 33.3822H43.3937C44.6767 33.3822 45.4786 31.9934 44.8371 30.8822L38.6267 20.1254ZM36.7125 30.7885C36.8762 30.9521 37.073 31.034 37.3028 31.034C37.5326 31.034 37.7294 30.9521 37.8931 30.7885C38.0567 30.6248 38.1386 30.428 38.1386 30.1982C38.1386 29.9684 38.0567 29.7716 37.8931 29.6079C37.7294 29.4443 37.5326 29.3624 37.3028 29.3624C37.073 29.3624 36.8762 29.4443 36.7125 29.6079C36.5489 29.7716 36.467 29.9684 36.467 30.1982C36.467 30.428 36.5489 30.6248 36.7125 30.7885ZM36.7127 28.2735C36.8764 28.4372 37.0731 28.519 37.303 28.519C37.5328 28.519 37.7296 28.4372 37.8932 28.2735C38.0569 28.1098 38.1387 27.9131 38.1387 27.6832V25.1821C38.1387 24.9522 38.0569 24.7555 37.8932 24.5918C37.7296 24.4281 37.5328 24.3463 37.303 24.3463C37.0731 24.3463 36.8764 24.4281 36.7127 24.5918C36.549 24.7555 36.4672 24.9522 36.4672 25.1821V27.6832C36.4672 27.9131 36.549 28.1098 36.7127 28.2735Z" fill="#F5511D"/>
</g>
<path d="M61.2493 20.268H63.1253V33.274H61.2493V20.268ZM56.1393 21.178C58.0993 21.178 59.5413 22.97 59.5413 25.798C59.5413 28.654 58.0993 30.446 56.1393 30.446C54.1793 30.446 52.7373 28.654 52.7373 25.798C52.7373 22.97 54.1793 21.178 56.1393 21.178ZM56.1393 22.872C55.1733 22.872 54.5153 23.894 54.5153 25.798C54.5153 27.73 55.1733 28.766 56.1393 28.766C57.1053 28.766 57.7493 27.73 57.7493 25.798C57.7493 23.894 57.1053 22.872 56.1393 22.872ZM65.7282 26.68H66.7922C69.2142 26.68 70.7262 26.638 72.4482 26.358L72.5882 27.842C70.8242 28.122 69.2562 28.164 66.7922 28.164H65.7282V26.68ZM65.7142 21.136H71.5662V25.294H67.5762V27.646H65.7282V23.894H69.7322V22.62H65.7142V21.136ZM74.2262 20.296H76.0882V29.83H74.2262V20.296ZM67.4642 31.538H76.4102V33.022H67.4642V31.538ZM67.4642 29.074H69.3262V32.014H67.4642V29.074ZM72.1962 23.39H74.5902V24.958H72.1962V23.39ZM79.4751 28.472L79.1671 23.306L79.1111 21.36H81.1691L81.1131 23.306L80.8191 28.472H79.4751ZM80.1331 32.196C79.4051 32.196 78.8591 31.622 78.8591 30.852C78.8591 30.082 79.4051 29.522 80.1331 29.522C80.8751 29.522 81.4211 30.082 81.4211 30.852C81.4211 31.622 80.8751 32.196 80.1331 32.196ZM86.4986 32V30.824C89.3266 28.29 90.9786 26.344 90.9786 24.748C90.9786 23.712 90.4326 23.068 89.4386 23.068C88.6686 23.068 88.0666 23.558 87.5346 24.146L86.4006 23.026C87.3526 22.004 88.2906 21.458 89.7046 21.458C91.6506 21.458 92.9666 22.704 92.9666 24.636C92.9666 26.526 91.3986 28.542 89.5086 30.39C90.0266 30.334 90.7126 30.264 91.2026 30.264H93.4426V32H86.4986ZM98.2985 32.196C96.1845 32.196 94.7845 30.362 94.7845 26.778C94.7845 23.208 96.1845 21.458 98.2985 21.458C100.398 21.458 101.798 23.208 101.798 26.778C101.798 30.362 100.398 32.196 98.2985 32.196ZM98.2985 30.586C99.1945 30.586 99.8525 29.69 99.8525 26.778C99.8525 23.88 99.1945 23.04 98.2985 23.04C97.4025 23.04 96.7305 23.88 96.7305 26.778C96.7305 29.69 97.4025 30.586 98.2985 30.586ZM105.898 22.326H107.368V23.782C107.368 26.708 106.136 29.69 103.756 30.81L102.706 29.34C104.848 28.332 105.898 25.91 105.898 23.782V22.326ZM106.29 22.326H107.76V23.782C107.76 25.742 108.768 28.038 110.896 29.018L109.874 30.488C107.494 29.382 106.29 26.54 106.29 23.782V22.326ZM103.21 21.528H110.322V23.054H103.21V21.528ZM111.274 20.282H113.15V33.246H111.274V20.282ZM112.73 25.224H115.026V26.764H112.73V25.224ZM115.865 26.092H127.611V27.45H115.865V26.092ZM117.181 28.094H126.211V31.174H119.057V32.28H117.209V29.998H124.377V29.354H117.181V28.094ZM117.209 31.888H126.575V33.148H117.209V31.888ZM117.307 20.506H126.183V23.558H119.169V24.622H117.321V22.396H124.349V21.752H117.307V20.506ZM117.321 24.23H126.421V25.49H117.321V24.23ZM131.93 30.264H143.662V31.776H131.93V30.264ZM136.858 27.772H138.72V31.048H136.858V27.772ZM136.844 22.984H138.496V23.264C138.496 25.742 136.522 27.744 132.966 28.206L132.294 26.736C135.444 26.358 136.844 24.748 136.844 23.264V22.984ZM137.096 22.984H138.734V23.264C138.734 24.748 140.134 26.358 143.284 26.736L142.612 28.206C139.056 27.744 137.096 25.742 137.096 23.264V22.984ZM132.924 22.032H142.654V23.53H132.924V22.032ZM136.858 20.45H138.72V22.648H136.858V20.45ZM145.341 21.57H150.927V23.04H145.341V21.57ZM147.007 25.28H148.841V29.676H147.007V25.28ZM150.185 21.57H152.019V22.62C152.019 23.88 152.019 25.448 151.669 27.604L149.849 27.436C150.185 25.364 150.185 23.866 150.185 22.62V21.57ZM153.125 20.282H154.987V33.246H153.125V20.282ZM154.441 25.49H156.723V27.03H154.441V25.49ZM144.851 30.628L144.683 29.13C146.965 29.13 149.989 29.088 152.537 28.766L152.635 30.124C150.017 30.572 147.105 30.628 144.851 30.628ZM165.99 20.282H167.838V33.246H165.99V20.282ZM167.418 25.336H169.714V26.89H167.418V25.336ZM157.618 22.2H165.164V23.684H157.618V22.2ZM161.412 24.412C163.302 24.412 164.702 25.7 164.702 27.506C164.702 29.312 163.302 30.6 161.412 30.6C159.522 30.6 158.122 29.312 158.122 27.506C158.122 25.7 159.522 24.412 161.412 24.412ZM161.412 25.924C160.53 25.924 159.9 26.512 159.9 27.506C159.9 28.5 160.53 29.088 161.412 29.088C162.294 29.088 162.924 28.5 162.924 27.506C162.924 26.512 162.294 25.924 161.412 25.924ZM160.474 20.492H162.336V22.76H160.474V20.492ZM177.455 21.57H180.045V23.054H177.455V21.57ZM177.455 23.992H180.045V25.462H177.455V23.992ZM179.541 20.282H181.403V27.73H179.541V20.282ZM173.521 20.744H175.047V21.92C175.047 24.58 173.941 26.918 171.491 27.828L170.469 26.372C172.639 25.602 173.521 23.782 173.521 21.92V20.744ZM173.885 20.744H175.397V21.92C175.397 23.698 176.237 25.462 178.295 26.218L177.259 27.688C174.935 26.778 173.885 24.496 173.885 21.92V20.744ZM173.619 28.22H175.019V28.528C175.019 30.502 174.165 32.336 172.135 33.078L171.225 31.72C172.919 31.132 173.619 29.816 173.619 28.528V28.22ZM174.095 28.22H175.439V28.528C175.439 29.816 176.055 31.174 177.665 31.846L176.895 33.204C174.837 32.434 174.095 30.46 174.095 28.528V28.22ZM178.351 28.22H179.681V28.528C179.681 30.334 178.925 32.392 176.895 33.204L176.125 31.846C177.721 31.104 178.351 29.69 178.351 28.528V28.22ZM178.785 28.22H180.185V28.528C180.185 29.9 180.871 31.174 182.607 31.72L181.669 33.078C179.625 32.364 178.785 30.6 178.785 28.528V28.22ZM186.988 21.178C188.92 21.178 190.334 22.97 190.334 25.798C190.334 28.654 188.92 30.446 186.988 30.446C185.042 30.446 183.642 28.654 183.642 25.798C183.642 22.97 185.042 21.178 186.988 21.178ZM186.988 22.872C186.05 22.872 185.42 23.894 185.42 25.798C185.42 27.73 186.05 28.766 186.988 28.766C187.94 28.766 188.556 27.73 188.556 25.798C188.556 23.894 187.94 22.872 186.988 22.872ZM192.462 20.268H194.31V33.274H192.462V20.268ZM189.788 24.944H193.246V26.442H189.788V24.944ZM198.9 26.862H200.748V30.502H198.9V26.862ZM203.604 26.862H205.466V30.502H203.604V26.862ZM196.324 30.236H208.056V31.748H196.324V30.236ZM202.176 20.912C204.962 20.912 207.02 22.284 207.02 24.398C207.02 26.512 204.962 27.87 202.176 27.87C199.376 27.87 197.332 26.512 197.332 24.398C197.332 22.284 199.376 20.912 202.176 20.912ZM202.176 22.368C200.37 22.368 199.166 23.11 199.166 24.398C199.166 25.672 200.37 26.428 202.176 26.428C203.982 26.428 205.186 25.672 205.186 24.398C205.186 23.11 203.982 22.368 202.176 22.368ZM210.547 28.472L210.239 23.306L210.183 21.36H212.241L212.185 23.306L211.891 28.472H210.547ZM211.205 32.196C210.477 32.196 209.931 31.622 209.931 30.852C209.931 30.082 210.477 29.522 211.205 29.522C211.947 29.522 212.493 30.082 212.493 30.852C212.493 31.622 211.947 32.196 211.205 32.196Z" fill="#F5511D"/>
</svg>
