<svg width="20" height="20" viewBox="0 0 20 20" fill="none" xmlns="http://www.w3.org/2000/svg">
<mask id="mask0_715_633" style="mask-type:alpha" maskUnits="userSpaceOnUse" x="0" y="0" width="20" height="20">
<rect width="20" height="20" fill="#D9D9D9"/>
</mask>
<g mask="url(#mask0_715_633)">
<path d="M10.0008 14.166C10.2369 14.166 10.4348 14.0862 10.5946 13.9264C10.7543 13.7667 10.8341 13.5688 10.8341 13.3327C10.8341 13.0966 10.7543 12.8987 10.5946 12.7389C10.4348 12.5792 10.2369 12.4993 10.0008 12.4993C9.7647 12.4993 9.56678 12.5792 9.40706 12.7389C9.24734 12.8987 9.16748 13.0966 9.16748 13.3327C9.16748 13.5688 9.24734 13.7667 9.40706 13.9264C9.56678 14.0862 9.7647 14.166 10.0008 14.166ZM10.0008 10.8327C10.2369 10.8327 10.4348 10.7528 10.5946 10.5931C10.7543 10.4334 10.8341 10.2355 10.8341 9.99935V6.66601C10.8341 6.4299 10.7543 6.23199 10.5946 6.07226C10.4348 5.91254 10.2369 5.83268 10.0008 5.83268C9.7647 5.83268 9.56678 5.91254 9.40706 6.07226C9.24734 6.23199 9.16748 6.4299 9.16748 6.66601V9.99935C9.16748 10.2355 9.24734 10.4334 9.40706 10.5931C9.56678 10.7528 9.7647 10.8327 10.0008 10.8327ZM10.0008 18.3327C8.84803 18.3327 7.7647 18.1139 6.75081 17.6764C5.73692 17.2389 4.85498 16.6452 4.10498 15.8952C3.35498 15.1452 2.76123 14.2632 2.32373 13.2493C1.88623 12.2355 1.66748 11.1521 1.66748 9.99935C1.66748 8.84657 1.88623 7.76324 2.32373 6.74935C2.76123 5.73546 3.35498 4.85352 4.10498 4.10352C4.85498 3.35352 5.73692 2.75977 6.75081 2.32227C7.7647 1.88477 8.84803 1.66602 10.0008 1.66602C11.1536 1.66602 12.2369 1.88477 13.2508 2.32227C14.2647 2.75977 15.1466 3.35352 15.8966 4.10352C16.6466 4.85352 17.2404 5.73546 17.6779 6.74935C18.1154 7.76324 18.3341 8.84657 18.3341 9.99935C18.3341 11.1521 18.1154 12.2355 17.6779 13.2493C17.2404 14.2632 16.6466 15.1452 15.8966 15.8952C15.1466 16.6452 14.2647 17.2389 13.2508 17.6764C12.2369 18.1139 11.1536 18.3327 10.0008 18.3327Z" fill="#FFF374"/>
</g>
</svg>
