<svg width="21" height="20" viewBox="0 0 21 20" fill="none" xmlns="http://www.w3.org/2000/svg">
<mask id="mask0_230_266" style="mask-type:alpha" maskUnits="userSpaceOnUse" x="0" y="0" width="21" height="20">
<rect x="0.5" width="20" height="20" fill="#D9D9D9"/>
</mask>
<g mask="url(#mask0_230_266)">
<path d="M10.5009 14.166C10.737 14.166 10.935 14.0862 11.0947 13.9264C11.2544 13.7667 11.3343 13.5688 11.3343 13.3327C11.3343 13.0966 11.2544 12.8987 11.0947 12.7389C10.935 12.5792 10.737 12.4993 10.5009 12.4993C10.2648 12.4993 10.0669 12.5792 9.90719 12.7389C9.74746 12.8987 9.6676 13.0966 9.6676 13.3327C9.6676 13.5688 9.74746 13.7667 9.90719 13.9264C10.0669 14.0862 10.2648 14.166 10.5009 14.166ZM10.5009 10.8327C10.737 10.8327 10.935 10.7528 11.0947 10.5931C11.2544 10.4334 11.3343 10.2355 11.3343 9.99935V6.66601C11.3343 6.4299 11.2544 6.23199 11.0947 6.07226C10.935 5.91254 10.737 5.83268 10.5009 5.83268C10.2648 5.83268 10.0669 5.91254 9.90719 6.07226C9.74746 6.23199 9.6676 6.4299 9.6676 6.66601V9.99935C9.6676 10.2355 9.74746 10.4334 9.90719 10.5931C10.0669 10.7528 10.2648 10.8327 10.5009 10.8327ZM10.5009 18.3327C9.34816 18.3327 8.26482 18.1139 7.25094 17.6764C6.23705 17.2389 5.3551 16.6452 4.6051 15.8952C3.8551 15.1452 3.26135 14.2632 2.82385 13.2493C2.38635 12.2355 2.1676 11.1521 2.1676 9.99935C2.1676 8.84657 2.38635 7.76324 2.82385 6.74935C3.26135 5.73546 3.8551 4.85352 4.6051 4.10352C5.3551 3.35352 6.23705 2.75977 7.25094 2.32227C8.26482 1.88477 9.34816 1.66602 10.5009 1.66602C11.6537 1.66602 12.737 1.88477 13.7509 2.32227C14.7648 2.75977 15.6468 3.35352 16.3968 4.10352C17.1468 4.85352 17.7405 5.73546 18.178 6.74935C18.6155 7.76324 18.8343 8.84657 18.8343 9.99935C18.8343 11.1521 18.6155 12.2355 18.178 13.2493C17.7405 14.2632 17.1468 15.1452 16.3968 15.8952C15.6468 16.6452 14.7648 17.2389 13.7509 17.6764C12.737 18.1139 11.6537 18.3327 10.5009 18.3327Z" fill="#FFF374"/>
</g>
</svg>
