<svg width="240" height="52" viewBox="0 0 240 52" fill="none" xmlns="http://www.w3.org/2000/svg">
<path d="M0 26C0 11.6406 11.6406 0 26 0H214C228.359 0 240 11.6406 240 26V26C240 40.3594 228.359 52 214 52H26C11.6406 52 0 40.3594 0 26V26Z" fill="#212121"/>
<mask id="mask0_326_10149" style="mask-type:alpha" maskUnits="userSpaceOnUse" x="17" y="16" width="20" height="20">
<rect x="17" y="16" width="20" height="20" fill="#D9D9D9"/>
</mask>
<g mask="url(#mask0_326_10149)">
<path fill-rule="evenodd" clip-rule="evenodd" d="M28.323 20.1253C27.6815 19.0142 26.0777 19.0142 25.4362 20.1253L19.2258 30.8821C18.5843 31.9932 19.3862 33.3821 20.6692 33.3821H33.09C34.373 33.3821 35.1749 31.9932 34.5334 30.8821L28.323 20.1253ZM26.4088 30.7883C26.5725 30.952 26.7693 31.0339 26.9991 31.0339C27.2289 31.0339 27.4257 30.952 27.5894 30.7883C27.753 30.6247 27.8349 30.4279 27.8349 30.1981C27.8349 29.9682 27.753 29.7715 27.5894 29.6078C27.4257 29.4442 27.2289 29.3623 26.9991 29.3623C26.7693 29.3623 26.5725 29.4442 26.4088 29.6078C26.2452 29.7715 26.1633 29.9682 26.1633 30.1981C26.1633 30.4279 26.2452 30.6247 26.4088 30.7883ZM26.409 28.2734C26.5727 28.437 26.7694 28.5189 26.9993 28.5189C27.2291 28.5189 27.4258 28.437 27.5895 28.2734C27.7532 28.1097 27.835 27.9129 27.835 27.6831V25.1819C27.835 24.9521 27.7532 24.7553 27.5895 24.5917C27.4258 24.428 27.2291 24.3462 26.9993 24.3462C26.7694 24.3462 26.5727 24.428 26.409 24.5917C26.2453 24.7553 26.1635 24.9521 26.1635 25.1819V27.6831C26.1635 27.9129 26.2453 28.1097 26.409 28.2734Z" fill="#F5511D"/>
</g>
<path d="M50.8807 20.268H52.7567V33.274H50.8807V20.268ZM45.7707 21.178C47.7307 21.178 49.1727 22.97 49.1727 25.798C49.1727 28.654 47.7307 30.446 45.7707 30.446C43.8107 30.446 42.3687 28.654 42.3687 25.798C42.3687 22.97 43.8107 21.178 45.7707 21.178ZM45.7707 22.872C44.8047 22.872 44.1467 23.894 44.1467 25.798C44.1467 27.73 44.8047 28.766 45.7707 28.766C46.7367 28.766 47.3807 27.73 47.3807 25.798C47.3807 23.894 46.7367 22.872 45.7707 22.872ZM55.3596 26.68H56.4236C58.8456 26.68 60.3576 26.638 62.0796 26.358L62.2196 27.842C60.4556 28.122 58.8876 28.164 56.4236 28.164H55.3596V26.68ZM55.3456 21.136H61.1976V25.294H57.2076V27.646H55.3596V23.894H59.3636V22.62H55.3456V21.136ZM63.8576 20.296H65.7196V29.83H63.8576V20.296ZM57.0956 31.538H66.0416V33.022H57.0956V31.538ZM57.0956 29.074H58.9576V32.014H57.0956V29.074ZM61.8276 23.39H64.2216V24.958H61.8276V23.39ZM69.1065 28.472L68.7985 23.306L68.7425 21.36H70.8005L70.7445 23.306L70.4505 28.472H69.1065ZM69.7645 32.196C69.0365 32.196 68.4905 31.622 68.4905 30.852C68.4905 30.082 69.0365 29.522 69.7645 29.522C70.5065 29.522 71.0525 30.082 71.0525 30.852C71.0525 31.622 70.5065 32.196 69.7645 32.196ZM79.406 32.196C77.768 32.196 76.676 31.552 75.892 30.782L76.858 29.48C77.432 30.054 78.174 30.53 79.126 30.53C80.218 30.53 80.96 29.844 80.96 28.612C80.96 27.408 80.26 26.736 79.224 26.736C78.608 26.736 78.272 26.89 77.67 27.282L76.718 26.666L77.012 21.64H82.556V23.362H78.79L78.594 25.56C79 25.378 79.364 25.28 79.84 25.28C81.576 25.28 83.032 26.302 83.032 28.57C83.032 30.866 81.31 32.196 79.406 32.196ZM87.9298 32.196C85.8158 32.196 84.4158 30.362 84.4158 26.778C84.4158 23.208 85.8158 21.458 87.9298 21.458C90.0298 21.458 91.4298 23.208 91.4298 26.778C91.4298 30.362 90.0298 32.196 87.9298 32.196ZM87.9298 30.586C88.8258 30.586 89.4838 29.69 89.4838 26.778C89.4838 23.88 88.8258 23.04 87.9298 23.04C87.0338 23.04 86.3618 23.88 86.3618 26.778C86.3618 29.69 87.0338 30.586 87.9298 30.586ZM96.1876 32.196C94.0736 32.196 92.6736 30.362 92.6736 26.778C92.6736 23.208 94.0736 21.458 96.1876 21.458C98.2876 21.458 99.6876 23.208 99.6876 26.778C99.6876 30.362 98.2876 32.196 96.1876 32.196ZM96.1876 30.586C97.0836 30.586 97.7416 29.69 97.7416 26.778C97.7416 23.88 97.0836 23.04 96.1876 23.04C95.2916 23.04 94.6196 23.88 94.6196 26.778C94.6196 29.69 95.2916 30.586 96.1876 30.586ZM103.787 22.326H105.257V23.782C105.257 26.708 104.025 29.69 101.645 30.81L100.595 29.34C102.737 28.332 103.787 25.91 103.787 23.782V22.326ZM104.179 22.326H105.649V23.782C105.649 25.742 106.657 28.038 108.785 29.018L107.763 30.488C105.383 29.382 104.179 26.54 104.179 23.782V22.326ZM101.099 21.528H108.211V23.054H101.099V21.528ZM109.163 20.282H111.039V33.246H109.163V20.282ZM110.619 25.224H112.915V26.764H110.619V25.224ZM122.196 20.282H124.058V33.246H122.196V20.282ZM123.484 25.35H125.738V26.89H123.484V25.35ZM115.84 21.598H117.576C117.576 25.196 117.24 27.954 114.944 30.53L113.488 29.48C115.49 27.268 115.84 25.112 115.84 21.822V21.598ZM114.062 21.598H116.568V23.11H114.062V21.598ZM119.41 21.598H121.146C121.146 25.364 120.838 28.542 118.584 31.356L117.128 30.32C119.088 27.842 119.41 25.35 119.41 21.808V21.598ZM118.01 21.598H120.18V23.11H118.01V21.598ZM129.755 22.326H131.239V23.782C131.239 26.778 130.021 29.704 127.585 30.81L126.535 29.34C128.705 28.374 129.755 25.98 129.755 23.782V22.326ZM130.175 22.326H131.645V23.782C131.645 25.882 132.681 28.122 134.851 29.018L133.843 30.488C131.379 29.424 130.175 26.666 130.175 23.782V22.326ZM127.053 21.528H134.319V23.054H127.053V21.528ZM135.523 20.282H137.399V33.246H135.523V20.282ZM151.588 20.282H153.464V27.254H151.588V20.282ZM144.84 27.814H146.674V29.018H151.616V27.814H153.464V33.106H144.84V27.814ZM146.674 30.446V31.622H151.616V30.446H146.674ZM146.408 20.814C148.424 20.814 149.922 22.088 149.922 23.88C149.922 25.672 148.424 26.946 146.408 26.946C144.392 26.946 142.88 25.672 142.88 23.88C142.88 22.088 144.392 20.814 146.408 20.814ZM146.408 22.354C145.414 22.354 144.7 22.928 144.7 23.88C144.7 24.846 145.414 25.406 146.408 25.406C147.388 25.406 148.102 24.846 148.102 23.88C148.102 22.928 147.388 22.354 146.408 22.354ZM156.053 26.456H157.047C159.455 26.456 160.715 26.414 162.185 26.148L162.367 27.618C160.855 27.898 159.525 27.94 157.047 27.94H156.053V26.456ZM156.039 21.024H161.737V25.112H157.901V27.436H156.053V23.726H159.889V22.494H156.039V21.024ZM164.551 20.296H166.413V28.276H164.551V20.296ZM162.479 22.074H164.887V23.558H162.479V22.074ZM162.479 24.832H164.887V26.316H162.479V24.832ZM157.537 28.864H166.413V33.26H164.551V30.348H157.537V28.864ZM179.902 20.268H181.778V33.232H179.902V20.268ZM181.288 25.224H183.57V26.75H181.288V25.224ZM176.5 21.612H178.32C178.32 25.504 176.836 28.836 172.524 31.006L171.488 29.592C174.89 27.828 176.5 25.448 176.5 21.934V21.612ZM172.202 21.612H177.452V23.11H172.202V21.612ZM185.977 23.502H194.923V24.986H185.977V23.502ZM185.977 20.492H187.825V24.174H185.977V20.492ZM184.507 26.092H196.239V27.576H184.507V26.092ZM190.331 28.402C193.131 28.402 194.825 29.27 194.825 30.81C194.825 32.336 193.131 33.218 190.331 33.218C187.531 33.218 185.823 32.336 185.823 30.81C185.823 29.27 187.531 28.402 190.331 28.402ZM190.331 29.83C188.595 29.83 187.713 30.138 187.713 30.81C187.713 31.468 188.595 31.79 190.331 31.79C192.067 31.79 192.949 31.468 192.949 30.81C192.949 30.138 192.067 29.83 190.331 29.83ZM197.358 22.228H203.56V23.712H197.358V22.228ZM200.48 24.286C202.132 24.286 203.322 25.56 203.322 27.38C203.322 29.186 202.132 30.46 200.48 30.46C198.842 30.46 197.638 29.186 197.638 27.38C197.638 25.56 198.842 24.286 200.48 24.286ZM200.48 25.84C199.78 25.84 199.29 26.4 199.29 27.38C199.29 28.36 199.78 28.906 200.48 28.906C201.18 28.906 201.684 28.36 201.684 27.38C201.684 26.4 201.18 25.84 200.48 25.84ZM206.738 20.282H208.516V33.246H206.738V20.282ZM205.184 25.546H207.326V27.044H205.184V25.546ZM204.022 20.52H205.758V32.7H204.022V20.52ZM199.57 20.632H201.404V23.166H199.57V20.632ZM212.84 26.862H214.688V30.502H212.84V26.862ZM217.544 26.862H219.406V30.502H217.544V26.862ZM210.264 30.236H221.996V31.748H210.264V30.236ZM216.116 20.912C218.902 20.912 220.96 22.284 220.96 24.398C220.96 26.512 218.902 27.87 216.116 27.87C213.316 27.87 211.272 26.512 211.272 24.398C211.272 22.284 213.316 20.912 216.116 20.912ZM216.116 22.368C214.31 22.368 213.106 23.11 213.106 24.398C213.106 25.672 214.31 26.428 216.116 26.428C217.922 26.428 219.126 25.672 219.126 24.398C219.126 23.11 217.922 22.368 216.116 22.368Z" fill="#F5511D"/>
</svg>
