<svg width="240" height="52" viewBox="0 0 240 52" fill="none" xmlns="http://www.w3.org/2000/svg">
<path d="M0 26C0 11.6406 11.6406 0 26 0H214C228.359 0 240 11.6406 240 26C240 40.3594 228.359 52 214 52H26C11.6406 52 0 40.3594 0 26Z" fill="#212121"/>
<mask id="mask0_1119_1133" style="mask-type:alpha" maskUnits="userSpaceOnUse" x="21" y="16" width="21" height="20">
<rect x="21.5" y="16" width="20" height="20" fill="#D9D9D9"/>
</mask>
<g mask="url(#mask0_1119_1133)">
<path fill-rule="evenodd" clip-rule="evenodd" d="M32.8213 20.1263C32.1798 19.0152 30.5761 19.0152 29.9346 20.1263L23.7241 30.8831C23.0826 31.9942 23.8845 33.3831 25.1675 33.3831H37.5884C38.8714 33.3831 39.6733 31.9942 39.0318 30.8831L32.8213 20.1263ZM30.9072 30.7893C31.0709 30.953 31.2676 31.0348 31.4974 31.0348C31.7273 31.0348 31.924 30.953 32.0877 30.7893C32.2514 30.6257 32.3332 30.4289 32.3332 30.1991C32.3332 29.9692 32.2514 29.7725 32.0877 29.6088C31.924 29.4451 31.7273 29.3633 31.4974 29.3633C31.2676 29.3633 31.0709 29.4451 30.9072 29.6088C30.7435 29.7725 30.6617 29.9692 30.6617 30.1991C30.6617 30.4289 30.7435 30.6257 30.9072 30.7893ZM30.9073 28.2743C31.071 28.438 31.2678 28.5199 31.4976 28.5199C31.7274 28.5199 31.9242 28.438 32.0879 28.2743C32.2515 28.1107 32.3334 27.9139 32.3334 27.6841V25.1829C32.3334 24.9531 32.2515 24.7563 32.0879 24.5927C31.9242 24.429 31.7274 24.3471 31.4976 24.3471C31.2678 24.3471 31.071 24.429 30.9073 24.5927C30.7437 24.7563 30.6618 24.9531 30.6618 25.1829V27.6841C30.6618 27.9139 30.7437 28.1107 30.9073 28.2743Z" fill="#F5511D"/>
</g>
<path d="M55.0096 20.268H56.8856V33.274H55.0096V20.268ZM49.8996 21.178C51.8596 21.178 53.3016 22.97 53.3016 25.798C53.3016 28.654 51.8596 30.446 49.8996 30.446C47.9396 30.446 46.4976 28.654 46.4976 25.798C46.4976 22.97 47.9396 21.178 49.8996 21.178ZM49.8996 22.872C48.9336 22.872 48.2756 23.894 48.2756 25.798C48.2756 27.73 48.9336 28.766 49.8996 28.766C50.8656 28.766 51.5096 27.73 51.5096 25.798C51.5096 23.894 50.8656 22.872 49.8996 22.872ZM59.4885 26.68H60.5525C62.9745 26.68 64.4865 26.638 66.2085 26.358L66.3485 27.842C64.5845 28.122 63.0165 28.164 60.5525 28.164H59.4885V26.68ZM59.4745 21.136H65.3265V25.294H61.3365V27.646H59.4885V23.894H63.4925V22.62H59.4745V21.136ZM67.9865 20.296H69.8485V29.83H67.9865V20.296ZM61.2245 31.538H70.1705V33.022H61.2245V31.538ZM61.2245 29.074H63.0865V32.014H61.2245V29.074ZM65.9565 23.39H68.3505V24.958H65.9565V23.39ZM73.2354 28.472L72.9274 23.306L72.8714 21.36H74.9294L74.8734 23.306L74.5794 28.472H73.2354ZM73.8934 32.196C73.1654 32.196 72.6194 31.622 72.6194 30.852C72.6194 30.082 73.1654 29.522 73.8934 29.522C74.6354 29.522 75.1814 30.082 75.1814 30.852C75.1814 31.622 74.6354 32.196 73.8934 32.196ZM80.8049 32V30.334H83.0449V23.782H81.1549V22.508C82.2049 22.312 82.9049 22.046 83.5769 21.64H85.1029V30.334H87.0489V32H80.8049ZM92.0587 32.196C89.9447 32.196 88.5447 30.362 88.5447 26.778C88.5447 23.208 89.9447 21.458 92.0587 21.458C94.1587 21.458 95.5587 23.208 95.5587 26.778C95.5587 30.362 94.1587 32.196 92.0587 32.196ZM92.0587 30.586C92.9547 30.586 93.6127 29.69 93.6127 26.778C93.6127 23.88 92.9547 23.04 92.0587 23.04C91.1627 23.04 90.4907 23.88 90.4907 26.778C90.4907 29.69 91.1627 30.586 92.0587 30.586ZM99.6585 22.326H101.129V23.782C101.129 26.708 99.8965 29.69 97.5165 30.81L96.4665 29.34C98.6085 28.332 99.6585 25.91 99.6585 23.782V22.326ZM100.051 22.326H101.521V23.782C101.521 25.742 102.529 28.038 104.657 29.018L103.635 30.488C101.255 29.382 100.051 26.54 100.051 23.782V22.326ZM96.9705 21.528H104.083V23.054H96.9705V21.528ZM105.035 20.282H106.911V33.246H105.035V20.282ZM106.491 25.224H108.787V26.764H106.491V25.224ZM118.067 20.282H119.929V33.246H118.067V20.282ZM119.355 25.35H121.609V26.89H119.355V25.35ZM111.711 21.598H113.447C113.447 25.196 113.111 27.954 110.815 30.53L109.359 29.48C111.361 27.268 111.711 25.112 111.711 21.822V21.598ZM109.933 21.598H112.439V23.11H109.933V21.598ZM115.281 21.598H117.017C117.017 25.364 116.709 28.542 114.455 31.356L112.999 30.32C114.959 27.842 115.281 25.35 115.281 21.808V21.598ZM113.881 21.598H116.051V23.11H113.881V21.598ZM125.626 22.326H127.11V23.782C127.11 26.778 125.892 29.704 123.456 30.81L122.406 29.34C124.576 28.374 125.626 25.98 125.626 23.782V22.326ZM126.046 22.326H127.516V23.782C127.516 25.882 128.552 28.122 130.722 29.018L129.714 30.488C127.25 29.424 126.046 26.666 126.046 23.782V22.326ZM122.924 21.528H130.19V23.054H122.924V21.528ZM131.394 20.282H133.27V33.246H131.394V20.282ZM147.459 20.282H149.335V27.254H147.459V20.282ZM140.711 27.814H142.545V29.018H147.487V27.814H149.335V33.106H140.711V27.814ZM142.545 30.446V31.622H147.487V30.446H142.545ZM142.279 20.814C144.295 20.814 145.793 22.088 145.793 23.88C145.793 25.672 144.295 26.946 142.279 26.946C140.263 26.946 138.751 25.672 138.751 23.88C138.751 22.088 140.263 20.814 142.279 20.814ZM142.279 22.354C141.285 22.354 140.571 22.928 140.571 23.88C140.571 24.846 141.285 25.406 142.279 25.406C143.259 25.406 143.973 24.846 143.973 23.88C143.973 22.928 143.259 22.354 142.279 22.354ZM151.924 26.456H152.918C155.326 26.456 156.586 26.414 158.056 26.148L158.238 27.618C156.726 27.898 155.396 27.94 152.918 27.94H151.924V26.456ZM151.91 21.024H157.608V25.112H153.772V27.436H151.924V23.726H155.76V22.494H151.91V21.024ZM160.422 20.296H162.284V28.276H160.422V20.296ZM158.35 22.074H160.758V23.558H158.35V22.074ZM158.35 24.832H160.758V26.316H158.35V24.832ZM153.408 28.864H162.284V33.26H160.422V30.348H153.408V28.864ZM175.773 20.268H177.649V33.232H175.773V20.268ZM177.159 25.224H179.441V26.75H177.159V25.224ZM172.371 21.612H174.191C174.191 25.504 172.707 28.836 168.395 31.006L167.359 29.592C170.761 27.828 172.371 25.448 172.371 21.934V21.612ZM168.073 21.612H173.323V23.11H168.073V21.612ZM181.848 23.502H190.794V24.986H181.848V23.502ZM181.848 20.492H183.696V24.174H181.848V20.492ZM180.378 26.092H192.11V27.576H180.378V26.092ZM186.202 28.402C189.002 28.402 190.696 29.27 190.696 30.81C190.696 32.336 189.002 33.218 186.202 33.218C183.402 33.218 181.694 32.336 181.694 30.81C181.694 29.27 183.402 28.402 186.202 28.402ZM186.202 29.83C184.466 29.83 183.584 30.138 183.584 30.81C183.584 31.468 184.466 31.79 186.202 31.79C187.938 31.79 188.82 31.468 188.82 30.81C188.82 30.138 187.938 29.83 186.202 29.83ZM193.229 22.228H199.431V23.712H193.229V22.228ZM196.351 24.286C198.003 24.286 199.193 25.56 199.193 27.38C199.193 29.186 198.003 30.46 196.351 30.46C194.713 30.46 193.509 29.186 193.509 27.38C193.509 25.56 194.713 24.286 196.351 24.286ZM196.351 25.84C195.651 25.84 195.161 26.4 195.161 27.38C195.161 28.36 195.651 28.906 196.351 28.906C197.051 28.906 197.555 28.36 197.555 27.38C197.555 26.4 197.051 25.84 196.351 25.84ZM202.609 20.282H204.387V33.246H202.609V20.282ZM201.055 25.546H203.197V27.044H201.055V25.546ZM199.893 20.52H201.629V32.7H199.893V20.52ZM195.441 20.632H197.275V23.166H195.441V20.632ZM208.712 26.862H210.56V30.502H208.712V26.862ZM213.416 26.862H215.278V30.502H213.416V26.862ZM206.136 30.236H217.868V31.748H206.136V30.236ZM211.988 20.912C214.774 20.912 216.832 22.284 216.832 24.398C216.832 26.512 214.774 27.87 211.988 27.87C209.188 27.87 207.144 26.512 207.144 24.398C207.144 22.284 209.188 20.912 211.988 20.912ZM211.988 22.368C210.182 22.368 208.978 23.11 208.978 24.398C208.978 25.672 210.182 26.428 211.988 26.428C213.794 26.428 214.998 25.672 214.998 24.398C214.998 23.11 213.794 22.368 211.988 22.368Z" fill="#F5511D"/>
</svg>
